<?xml version="1.0" encoding="UTF-8"?><svg id="b" xmlns="http://www.w3.org/2000/svg" xmlns:xlink="http://www.w3.org/1999/xlink" viewBox="0 0 306 306"><defs><style>.f{fill:#fff;}.g{clip-path:url(#d);}.h{fill:#005b99;}.i{clip-path:url(#e);}.j{fill:none;}</style><clipPath id="d"><rect class="j" width="306" height="306"/></clipPath><clipPath id="e"><rect class="j" width="306" height="306"/></clipPath></defs><g id="c"><g class="g"><circle class="f" cx="153" cy="153" r="148.5"/><g class="i"><path class="h" d="m153,0C68.5,0,0,68.5,0,153s68.5,153,153,153,153-68.5,153-153S237.5,0,153,0m0,299.31c-80.81,0-146.31-65.51-146.31-146.31S72.19,6.69,153,6.69s146.31,65.51,146.31,146.31-65.51,146.31-146.31,146.31"/><path class="h" d="m33.51,153c0,3.85-3.12,6.97-6.97,6.97s-6.97-3.12-6.97-6.97,3.12-6.97,6.97-6.97,6.97,3.12,6.97,6.97"/><path class="h" d="m286.42,153c0,3.85-3.12,6.97-6.97,6.97s-6.97-3.12-6.97-6.97,3.12-6.97,6.97-6.97,6.97,3.12,6.97,6.97"/><path class="h" d="m178.77,49.59c-57.1-14.24-114.95,20.52-129.18,77.63-14.25,57.1,20.51,114.94,77.61,129.18,57.12,14.24,114.96-20.51,129.2-77.63,14.24-57.1-20.52-114.95-77.63-129.19m70.2,127.34c-13.22,53.01-66.9,85.26-119.92,72.04-52.99-13.21-85.25-66.9-72.03-119.9,13.21-53.01,66.89-85.26,119.89-72.05,53.01,13.21,85.27,66.9,72.05,119.9"/><path class="h" d="m45.57,111.11l-1.93,5.68-10.97-3.72c-1.33-.45-2.54-.89-3.63-1.33.31.49.6,1.08.89,1.76l1.14,3.01-4.56,1.69-3.38-9.08,1.71-5.05,20.72,7.03Z"/><path class="h" d="m45.41,86.77c3.42,1.82,5.61,3.73,6.59,5.72.98,1.99.84,4.17-.42,6.53-1.23,2.31-2.99,3.6-5.27,3.89-2.28.29-5.06-.44-8.34-2.19-3.43-1.83-5.65-3.75-6.64-5.75-.99-2-.86-4.18.4-6.54,1.23-2.3,2.99-3.59,5.28-3.88,2.3-.29,5.09.45,8.4,2.21m-4.67,8.76c2.18,1.16,3.76,1.83,4.72,1.99.96.16,1.62-.08,1.96-.72.35-.65.17-1.34-.53-2.06-.7-.72-2.12-1.65-4.25-2.78-2.14-1.14-3.71-1.8-4.72-1.99-1-.19-1.68.04-2.02.69-.34.64-.17,1.32.51,2.04.68.71,2.12,1.66,4.32,2.83"/><path class="h" d="m57.51,70.3c3.08,2.35,4.94,4.59,5.58,6.71.64,2.12.16,4.25-1.47,6.37-1.59,2.08-3.53,3.07-5.83,2.99-2.3-.09-4.93-1.26-7.88-3.51-3.09-2.36-4.97-4.61-5.63-6.74-.66-2.13-.17-4.26,1.45-6.39,1.58-2.07,3.53-3.06,5.84-2.97,2.31.09,4.95,1.27,7.93,3.54m-6.02,7.89c1.97,1.5,3.41,2.41,4.34,2.73.92.32,1.61.19,2.05-.39.45-.59.38-1.29-.19-2.12-.58-.82-1.83-1.97-3.75-3.43-1.93-1.47-3.37-2.38-4.33-2.72-.96-.34-1.66-.23-2.1.35-.44.58-.38,1.28.17,2.09.56.82,1.83,1.98,3.81,3.49"/><path class="h" d="m65.51,56.11c1.44,1.66,2.18,3.27,2.22,4.82.04,1.56-.63,2.93-2.01,4.13-1.3,1.12-2.73,1.55-4.3,1.26-1.57-.28-3.05-1.22-4.44-2.82-1.44-1.66-2.17-3.25-2.21-4.79-.04-1.53.61-2.88,1.95-4.04,1.32-1.14,2.77-1.59,4.35-1.33,1.58.25,3.06,1.18,4.44,2.77m-5.08,4.49c.75.87,1.37,1.43,1.84,1.69.48.26.86.27,1.14.02s.34-.62.15-1.12c-.19-.5-.66-1.19-1.43-2.07-.75-.87-1.36-1.43-1.84-1.7-.47-.26-.85-.27-1.14-.02-.29.25-.34.64-.14,1.15.2.51.67,1.2,1.41,2.05m9.05-16.57l5.16,24.49-3.36,2.91-5.16-24.49,3.36-2.91Zm14.31,7.76c1.43,1.65,2.17,3.26,2.2,4.82.04,1.56-.63,2.93-2,4.12-1.3,1.12-2.73,1.55-4.3,1.26-1.57-.28-3.05-1.22-4.43-2.81-1.44-1.66-2.17-3.26-2.21-4.79-.04-1.53.61-2.88,1.95-4.04,1.32-1.14,2.77-1.59,4.35-1.33s3.06,1.18,4.44,2.77m-5.08,4.49c.75.87,1.37,1.43,1.84,1.69.48.26.86.27,1.14.02.32-.28.36-.7.1-1.25-.26-.55-.71-1.2-1.37-1.95-.65-.75-1.23-1.3-1.74-1.63-.51-.33-.92-.36-1.25-.08-.29.25-.34.64-.14,1.15.2.51.67,1.2,1.41,2.05"/><path class="h" d="m107.66,47.07l-10-12.98-.12.05c1.19,2.42,2.06,4.31,2.61,5.7l3.52,8.83-4.87,1.94-8.11-20.33,7.31-2.92,10,12.74.11-.04-1.6-16.09,7.33-2.92,8.11,20.33-5.05,2.01-3.55-8.91c-.18-.46-.38-.98-.59-1.55-.21-.57-.7-1.98-1.47-4.23l-.13.05,1.73,16.25-5.23,2.08Z"/><path class="h" d="m145.25,26.65c.53,3.64.04,6.54-1.48,8.7-1.51,2.16-3.99,3.48-7.44,3.98-3.4.49-6.14-.08-8.23-1.73-2.09-1.64-3.4-4.29-3.93-7.93-.52-3.6-.02-6.49,1.51-8.65,1.53-2.16,4.01-3.49,7.44-3.99,3.45-.5,6.2.06,8.25,1.69,2.05,1.63,3.34,4.27,3.87,7.92m-14.9,2.16c.61,4.19,2.37,6.07,5.28,5.65,1.48-.22,2.51-.88,3.07-2,.57-1.12.7-2.76.38-4.91-.31-2.16-.91-3.71-1.78-4.63-.88-.93-2.03-1.29-3.48-1.08-2.93.43-4.09,2.75-3.48,6.98"/><path class="h" d="m171.74,38.88l-7.73-.55-6.87-15.95h-.13c.02,2.42-.02,4.28-.11,5.55l-.7,9.84-5.23-.37,1.56-21.83,7.7.55,6.86,15.74h.09c.02-2.2.08-3.97.17-5.31l.71-9.87,5.26.38-1.56,21.83Z"/><polygon class="h" points="189.32 43.46 176.76 40.13 182.37 18.97 194.93 22.3 193.71 26.89 186.87 25.08 185.99 28.4 192.32 30.08 191.11 34.67 184.77 32.99 183.71 36.98 190.56 38.8 189.32 43.46"/><polygon class="h" points="206.38 35.6 213.17 29.78 219 32.43 206.92 41.59 203.38 49.37 197.96 46.9 201.42 39.28 200.47 24 206.33 26.67 206.38 35.6"/><path class="h" d="m234.25,42.34l5.88,4.87c2.29,1.9,3.71,3.65,4.26,5.25.55,1.6.23,3.12-.97,4.56-.78.95-1.69,1.55-2.73,1.82-1.04.27-2.03.17-2.98-.29l-.1.11c.82,1.14,1.19,2.23,1.13,3.26-.07,1.03-.53,2.07-1.38,3.1-1.27,1.53-2.84,2.26-4.72,2.19-1.88-.07-3.81-.93-5.79-2.57l-6.56-5.43,13.96-16.85Zm-3.56,13.57l-2.93,3.54,1.6,1.33c1.42,1.18,2.63,1.17,3.62-.03.46-.56.63-1.15.5-1.76-.13-.61-.56-1.22-1.28-1.82l-1.51-1.25Zm2.76-3.33l1.37,1.14c.65.54,1.27.83,1.85.85.58.03,1.09-.22,1.53-.75.78-.95.46-2.01-.97-3.19l-1.28-1.06-2.5,3.02Z"/><path class="h" d="m244.8,83.3l2.48-3.44-4.53-5.48-3.87,1.76-4.14-5.01,21.49-8.49,5.02,6.08-12.33,19.57-4.12-4.98Zm5.43-7.48l2.17-3.02c.48-.68,1.1-1.54,1.88-2.59.78-1.05,1.35-1.79,1.7-2.21-.45.25-1.21.65-2.28,1.19-1.07.54-3.22,1.55-6.44,3.04l2.97,3.59Z"/><path class="h" d="m270.14,90.96c-.68-1.23-1.72-1.91-3.11-2.05s-2.97.29-4.75,1.27c-3.69,2.03-4.76,4.45-3.21,7.26.47.85,1.04,1.6,1.71,2.27.67.66,1.4,1.31,2.18,1.93l-4.38,2.42c-1.59-1.21-2.94-2.82-4.06-4.84-1.6-2.89-1.98-5.57-1.15-8.04.83-2.47,2.82-4.58,6-6.33,1.98-1.09,3.93-1.68,5.85-1.76,1.91-.08,3.66.35,5.25,1.31,1.58.96,2.9,2.38,3.94,4.28,1.14,2.07,1.78,4.3,1.93,6.68l-4.95.66c-.06-.89-.17-1.75-.33-2.59-.16-.83-.47-1.66-.92-2.47"/><path class="h" d="m265.62,126.58l-2.11-6.33,6.57-6.75-1.55-1.33-6.94,2.31-1.88-5.64,20.76-6.91,1.88,5.64-9.02,3c.65.1,1.73.38,3.23.83l7.81,2.24,2.04,6.14-11.48-3.45-9.32,10.25Z"/><path class="h" d="m22.23,194.45l-1.6-5.79,11.17-3.08c1.36-.37,2.61-.69,3.75-.94-.53-.24-1.11-.56-1.72-.95l-2.64-1.85,2.82-3.96,7.9,5.62,1.42,5.14-21.1,5.82Z"/><path class="h" d="m42.9,215.1c-3.48,1.69-6.32,2.34-8.51,1.96-2.19-.38-3.86-1.77-5.03-4.18-1.14-2.35-1.16-4.54-.04-6.55,1.11-2.01,3.34-3.83,6.68-5.45,3.5-1.7,6.35-2.36,8.55-1.99,2.2.38,3.88,1.77,5.05,4.17,1.14,2.34,1.15,4.53.03,6.55-1.12,2.02-3.36,3.85-6.73,5.49m-4.33-8.93c-2.23,1.08-3.69,1.96-4.39,2.65-.7.68-.89,1.35-.57,2.01.32.66.98.92,1.97.78.99-.14,2.58-.74,4.75-1.8,2.18-1.06,3.64-1.94,4.38-2.64.74-.7.95-1.38.63-2.04-.32-.66-.97-.92-1.95-.79-.98.13-2.59.74-4.84,1.83"/><path class="h" d="m55.92,233.93c-3.12,2.29-5.79,3.45-8.01,3.47-2.22.02-4.12-1.05-5.7-3.2-1.55-2.11-1.96-4.25-1.22-6.44.73-2.18,2.59-4.37,5.59-6.57,3.14-2.3,5.82-3.47,8.05-3.5,2.23-.03,4.14,1.04,5.72,3.19,1.54,2.1,1.94,4.25,1.21,6.44-.74,2.19-2.61,4.4-5.63,6.61m-5.87-8c-2,1.46-3.28,2.6-3.84,3.39-.57.8-.63,1.49-.2,2.08.44.6,1.13.73,2.08.41.95-.32,2.4-1.2,4.35-2.63,1.95-1.44,3.23-2.56,3.83-3.39.6-.83.69-1.53.26-2.12-.43-.59-1.12-.73-2.06-.42-.94.31-2.42,1.2-4.43,2.67"/><path class="h" d="m83.86,245.48l-23.5,8.6-3.36-2.91,23.5-8.6,3.36,2.91Zm-12.52-2.21c-1.44,1.66-2.92,2.62-4.46,2.88-1.53.26-2.99-.2-4.37-1.4-1.3-1.12-1.92-2.48-1.86-4.08.06-1.6.77-3.19,2.16-4.79,1.44-1.66,2.91-2.62,4.43-2.87,1.51-.25,2.94.2,4.27,1.35,1.32,1.14,1.97,2.52,1.94,4.12-.03,1.6-.73,3.2-2.11,4.79m-5.17-4.39c-.75.87-1.22,1.56-1.41,2.06-.19.51-.14.89.14,1.14.29.25.66.24,1.13-.01.47-.26,1.08-.83,1.85-1.71.75-.87,1.22-1.56,1.42-2.06.19-.51.15-.88-.14-1.13-.29-.25-.68-.25-1.16.02-.48.27-1.09.83-1.83,1.69m12.05,21.88c-1.43,1.65-2.91,2.61-4.45,2.87-1.54.26-2.99-.21-4.37-1.39-1.3-1.12-1.92-2.48-1.86-4.08.05-1.6.77-3.19,2.15-4.78,1.44-1.66,2.91-2.62,4.43-2.87,1.51-.25,2.94.2,4.27,1.35,1.32,1.14,1.97,2.52,1.94,4.12-.03,1.6-.73,3.2-2.11,4.79m-5.17-4.39c-.75.87-1.22,1.56-1.41,2.06-.19.51-.14.89.15,1.14.32.28.74.25,1.25-.08.51-.33,1.09-.88,1.74-1.63.65-.75,1.11-1.41,1.37-1.96.26-.55.22-.96-.1-1.24-.29-.26-.68-.25-1.16.02-.48.27-1.09.83-1.83,1.69"/><path class="h" d="m108.22,268.92l8.81,3.39-4.23,11.01c-2.71-.1-5.5-.7-8.37-1.81-3.15-1.21-5.23-3.06-6.25-5.55-1.02-2.49-.87-5.42.43-8.8,1.27-3.3,3.2-5.5,5.78-6.61,2.59-1.11,5.58-1.01,8.97.29,1.29.49,2.45,1.08,3.5,1.76,1.05.68,1.92,1.37,2.63,2.07l-3.41,3.66c-1.19-1.29-2.67-2.28-4.43-2.96-1.61-.62-3.06-.57-4.34.13-1.28.71-2.3,2.04-3.05,3.98-.73,1.91-.9,3.52-.48,4.83.41,1.31,1.37,2.25,2.87,2.83.82.32,1.6.53,2.35.63l1.23-3.2-3.65-1.4,1.64-4.26Z"/><path class="h" d="m145.48,268.31l-1.9,13.03c-.41,2.83-1.54,4.91-3.37,6.23-1.83,1.32-4.26,1.76-7.28,1.32-2.95-.43-5.11-1.52-6.48-3.26-1.36-1.74-1.84-4.03-1.43-6.86l1.92-13.17,5.88.86-1.85,12.71c-.22,1.53-.1,2.68.37,3.46.47.77,1.27,1.24,2.38,1.41,1.19.17,2.11-.04,2.75-.65.64-.61,1.07-1.69,1.3-3.25l1.85-12.68,5.85.85Z"/><path class="h" d="m167.61,289.36l-1.37-4.01-7.09.51-.81,4.17-6.48.47,5.55-22.43,7.87-.57,8.79,21.4-6.45.46Zm-2.94-8.76l-1.2-3.52c-.28-.78-.62-1.79-1.02-3.03-.4-1.24-.68-2.13-.82-2.67-.05.51-.17,1.36-.35,2.55-.18,1.18-.6,3.52-1.26,7.01l4.64-.33Z"/><path class="h" d="m186.95,277.59l2.21,7.65-5.68,1.64-6.08-21.02,6.89-1.99c5.71-1.65,9.17-.41,10.37,3.73.7,2.43.06,4.66-1.93,6.68l8.78,7.39-6.44,1.87-6.67-6.36-1.44.42Zm-1.24-4.27l1.06-.31c1.98-.57,2.72-1.74,2.21-3.49-.42-1.45-1.6-1.89-3.55-1.33l-1.12.32,1.39,4.8Z"/><path class="h" d="m221.83,271.63l-2.89-3.1-6.26,3.36.96,4.14-5.72,3.07-4.1-22.74,6.95-3.73,16.76,15.94-5.7,3.06Zm-6.26-6.8l-2.53-2.72c-.57-.6-1.29-1.38-2.17-2.35-.88-.97-1.49-1.67-1.83-2.11.16.49.4,1.31.72,2.47.32,1.15.89,3.46,1.71,6.91l4.1-2.2Z"/><path class="h" d="m251.22,249.14l-5.83,5.12-16.18-6.31-.1.09c1.74,1.7,3.03,3.02,3.88,3.98l6.51,7.41-3.94,3.46-14.44-16.44,5.8-5.1,16.02,6.17.07-.06c-1.56-1.56-2.78-2.85-3.66-3.86l-6.53-7.44,3.96-3.48,14.44,16.44Z"/><polygon class="h" points="264.82 232.32 261.29 237.06 247.61 226.89 244.42 231.18 240.54 228.29 250.43 214.98 254.31 217.87 251.13 222.14 264.82 232.32"/><polygon class="h" points="278.85 207.79 273.06 219.42 253.47 209.67 259.26 198.04 263.51 200.15 260.35 206.49 263.43 208.02 266.35 202.16 270.6 204.27 267.68 210.14 271.38 211.98 274.53 205.64 278.85 207.79"/><polygon class="h" points="286.38 185.4 282.68 197.86 261.7 191.63 265.4 179.17 269.95 180.52 267.93 187.31 271.23 188.29 273.1 182.01 277.65 183.36 275.78 189.64 279.74 190.82 281.76 184.03 286.38 185.4"/><path class="h" d="m125.52,190.38c0,4.9-1.35,8.68-4.05,11.34-2.7,2.65-6.5,3.98-11.39,3.98h-9.51v-29.39h10.17c4.72,0,8.36,1.21,10.92,3.62,2.57,2.41,3.85,5.9,3.85,10.45m-8.24.28c0-2.69-.53-4.69-1.6-5.99-1.07-1.3-2.68-1.95-4.85-1.95h-2.31v16.46h1.77c2.41,0,4.18-.7,5.31-2.1,1.13-1.4,1.69-3.54,1.69-6.42"/><path class="h" d="m148.82,205.7l-1.45-5.51h-9.55l-1.49,5.51h-8.72l9.59-29.51h10.59l9.71,29.51h-8.68Zm-3.1-12.02l-1.27-4.82c-.29-1.07-.65-2.46-1.08-4.16-.42-1.7-.7-2.92-.83-3.66-.12.68-.36,1.81-.71,3.38-.36,1.57-1.14,4.66-2.36,9.27h6.25Z"/><polygon class="h" points="171.17 187.2 176.24 176.31 184.84 176.31 175.17 194.22 175.17 205.7 167.17 205.7 167.17 194.46 157.5 176.31 166.15 176.31 171.17 187.2"/><path class="h" d="m207.23,196.77c0,1.82-.46,3.44-1.39,4.85-.92,1.41-2.26,2.51-4,3.3-1.74.78-3.79,1.18-6.13,1.18-1.96,0-3.6-.14-4.92-.41-1.33-.27-2.71-.75-4.14-1.44v-7.08c1.51.78,3.09,1.38,4.72,1.82,1.63.44,3.14.65,4.5.65,1.18,0,2.04-.2,2.59-.61.55-.41.82-.93.82-1.58,0-.4-.11-.75-.33-1.06-.22-.3-.58-.61-1.07-.91-.49-.31-1.79-.94-3.91-1.89-1.92-.87-3.35-1.72-4.31-2.53-.96-.82-1.67-1.76-2.13-2.81-.46-1.06-.69-2.31-.69-3.76,0-2.71.99-4.82,2.96-6.33,1.97-1.51,4.68-2.27,8.12-2.27,3.04,0,6.14.7,9.31,2.11l-2.43,6.13c-2.75-1.26-5.12-1.89-7.12-1.89-1.03,0-1.78.18-2.25.54-.47.36-.7.81-.7,1.35,0,.58.3,1.09.89,1.55.6.46,2.21,1.29,4.85,2.49,2.53,1.14,4.29,2.36,5.28,3.67.99,1.31,1.48,2.95,1.48,4.93"/><polygon class="h" points="153 58.81 157.88 68.69 168.78 70.27 160.89 77.96 162.75 88.82 153 83.69 143.25 88.82 145.11 77.96 137.22 70.27 148.12 68.69 153 58.81"/><polygon class="h" points="119.21 66.69 122.8 73.97 130.84 75.14 125.03 80.81 126.4 88.82 119.21 85.04 112.02 88.82 113.39 80.81 107.57 75.14 115.61 73.97 119.21 66.69"/><polygon class="h" points="186.79 66.69 190.39 73.97 198.43 75.14 192.61 80.81 193.98 88.82 186.79 85.04 179.6 88.82 180.97 80.81 175.16 75.14 183.2 73.97 186.79 66.69"/><polygon class="h" points="153 217.18 157.88 227.06 168.78 228.64 160.89 236.33 162.75 247.19 153 242.06 143.25 247.19 145.11 236.33 137.22 228.64 148.12 227.06 153 217.18"/><polygon class="h" points="119.21 217.18 122.8 224.47 130.84 225.63 125.03 231.3 126.4 239.31 119.21 235.53 112.02 239.31 113.39 231.3 107.57 225.63 115.61 224.47 119.21 217.18"/><polygon class="h" points="186.79 217.18 190.39 224.47 198.43 225.63 192.61 231.3 193.98 239.31 186.79 235.53 179.6 239.31 180.97 231.3 175.16 225.63 183.2 224.47 186.79 217.18"/><path class="h" d="m120.95,146.32c0,10.46-8.78,17.24-21.87,17.24s-21.07-6.31-22.19-17.48l-.08-.8h12.53l.08.8c.8,4.79,4.15,8.22,9.42,8.22s8.94-3.11,8.94-7.58c0-5.11-3.59-7.82-10.14-8.06h-2v-8.38l2-.08c5.59-.32,8.86-3.43,8.86-7.98,0-4.07-2.63-6.7-7.02-6.7-4.63,0-7.18,3.43-7.58,7.98l-.08.8h-12.45l.08-.8c.96-9.5,7.82-17.24,21.31-17.24,12.61,0,18.92,6.55,18.92,14.53,0,6.39-3.43,10.86-10.3,12.53,7.58,1.68,11.57,5.91,11.57,13.01"/><path class="h" d="m172.51,143.28c0,13.09-10.06,20.27-21.47,20.27-14.37,0-21.79-8.38-21.79-27.22,0-19.8,9.66-30.09,23.23-30.09,11.57,0,18.2,6.07,19.4,15.65l.08.8h-12.61l-.16-.8c-1.2-4.39-3.51-6.39-7.42-6.39-5.83,0-9.34,5.35-9.74,17.96l2.63-4.95c2.95-2.39,5.91-3.03,9.82-3.03,12.21,0,18.04,7.98,18.04,17.8m-13.17,1.52c0-5.99-2.95-10.06-8.54-10.06-4.47,0-8.3,3.43-8.3,9.74,0,5.83,3.27,9.82,8.38,9.82,5.43,0,8.46-4.31,8.46-9.5"/><path class="h" d="m223.52,144c0,12.77-10.38,19.56-21.39,19.56-12.69,0-19.88-5.03-21.07-16.36l-.08-.8h12.53l.08.8c.64,4.39,3.11,7.1,7.82,7.1,5.83,0,8.94-4.07,8.94-9.9s-3.19-9.9-8.7-9.9c-4.07,0-6.55,1.68-8.14,5.67h-11.57l3.99-32.81h35.36v9.74h-25.06l-2,13.89,2.48-3.67c2.55-1.52,5.43-2.08,8.54-2.08,11.34,0,18.28,7.1,18.28,18.76"/></g></g></g></svg>