<svg id="Group_260" data-name="Group 260" xmlns="http://www.w3.org/2000/svg" xmlns:xlink="http://www.w3.org/1999/xlink" width="77.019" height="67.384" viewBox="0 0 77.019 67.384">
  <defs>
    <clipPath id="clip-path">
      <rect id="Rectangle_114" data-name="Rectangle 114" width="77.019" height="67.384" fill="#fff"/>
    </clipPath>
  </defs>
  <g id="Group_259" data-name="Group 259" clip-path="url(#clip-path)">
    <path id="Path_387" data-name="Path 387" d="M68.578,341.543a8.925,8.925,0,0,1-1.018-3.163,3.345,3.345,0,0,0-2.519-2.7,5.258,5.258,0,0,1-3.016-1.988,4.754,4.754,0,0,1-.824-3.5c.129-.919.2-1.846.307-2.882,1.272.007,2.7,0,4.12.045.172.006.391.309.489.52a28.917,28.917,0,0,0,3.655,5.935,26.844,26.844,0,0,0,8.515,7.077,27.689,27.689,0,0,0,34.988-7.5,25.859,25.859,0,0,0,3.3-5.534.763.763,0,0,1,.844-.527c1.313.029,2.627.01,3.79.009.1.978.139,1.891.3,2.783a4.828,4.828,0,0,1-3.076,5.31,8.881,8.881,0,0,0-1.922.834,3.381,3.381,0,0,0-1.456,2.624,4.863,4.863,0,0,1-3.265,4.248,4.551,4.551,0,0,1-1.937.269,3.983,3.983,0,0,0-4.153,2.39,4.73,4.73,0,0,1-5.358,2.543,5.047,5.047,0,0,1-1.063-.344,3.835,3.835,0,0,0-4.542.847,4.759,4.759,0,0,1-4.062,1.3,4.864,4.864,0,0,1-2.442-1.07,9.307,9.307,0,0,0-1.841-1.248,3.206,3.206,0,0,0-2.693.083,4.964,4.964,0,0,1-6.567-1.858,7.98,7.98,0,0,0-1.581-1.97,3.212,3.212,0,0,0-1.948-.634,6.857,6.857,0,0,1-4.087-.967Z" transform="translate(-52.831 -282.805)" fill="#fff"/>
    <path id="Path_388" data-name="Path 388" d="M121.122,22.848c-1.279,0-2.7.018-4.126-.016-.161,0-.376-.265-.463-.454a28.34,28.34,0,0,0-4.974-7.493,27.644,27.644,0,0,0-40.759.191,27.432,27.432,0,0,0-4.773,7.308.688.688,0,0,1-.74.483c-1.338-.015-2.676.008-3.868.015-.1-1.006-.139-1.915-.3-2.8a4.8,4.8,0,0,1,3.068-5.3c.27-.094.542-.18.813-.27a3.462,3.462,0,0,0,2.528-2.99A5.384,5.384,0,0,1,68.979,8.2a4.853,4.853,0,0,1,3.437-1.432c.22,0,.441,0,.66.009A3.586,3.586,0,0,0,76.77,4.649a4.6,4.6,0,0,1,3.46-2.762,10.67,10.67,0,0,1,2.657.146,4.585,4.585,0,0,1,.927.335A3.435,3.435,0,0,0,87.448,1.7,5.365,5.365,0,0,1,91.853.039a4.735,4.735,0,0,1,2.56,1.108,9.249,9.249,0,0,0,1.132.907,3.512,3.512,0,0,0,3.411.224,5.118,5.118,0,0,1,4.579.012,4.556,4.556,0,0,1,1.933,1.83c.132.228.267.455.392.687a3.465,3.465,0,0,0,3.455,1.965,4.9,4.9,0,0,1,4.3,1.527,11.319,11.319,0,0,1,1.236,2.352,1.314,1.314,0,0,1,.08.453,3.758,3.758,0,0,0,3.021,3.545,4.649,4.649,0,0,1,3.156,2.771,4.786,4.786,0,0,1,.3,2.712c-.137.854-.186,1.722-.288,2.717" transform="translate(-52.754 0)" fill="#fff"/>
    <path id="Path_389" data-name="Path 389" d="M156.557,328.089l34.388,0c-2.041,3.928-7.891,8.923-15.633,9.486a20.327,20.327,0,0,1-18.755-9.489" transform="translate(-135.268 -283.475)" fill="#fff"/>
    <path id="Path_390" data-name="Path 390" d="M156.316,106.982c4.118-6.022,9.787-9.383,17.14-9.42,7.46-.038,13.221,3.322,17.387,9.423l-34.527,0" transform="translate(-135.06 -84.295)" fill="#fff"/>
    <path id="Path_391" data-name="Path 391" d="M115.493,76.226c4.552-8.519,11.555-13.5,21.3-14.193A25.083,25.083,0,0,1,161.129,76.4c-.9,0-1.741.014-2.583-.034-.144-.008-.3-.286-.4-.465a22.855,22.855,0,0,0-33.36-7.068,21.369,21.369,0,0,0-6.268,7.04.9.9,0,0,1-.926.536c-.675-.015-1.353.058-2.029.094l-.066-.279" transform="translate(-99.788 -53.544)" fill="#fff"/>
    <path id="Path_392" data-name="Path 392" d="M115.262,326.656c.912.028,1.7.021,2.485.1.193.019.414.281.531.484a21.825,21.825,0,0,0,11.125,9.787c7.962,3.112,15.478,2.135,22.429-2.87a21.426,21.426,0,0,0,6.1-6.926.866.866,0,0,1,.88-.51c.673.008,1.346-.062,2.1-.1a25.191,25.191,0,0,1-45.651.04" transform="translate(-99.588 -282.202)" fill="#fff"/>
    <path id="Path_393" data-name="Path 393" d="M234.228,210.866c.89.89,1.7,1.693,2.5,2.508a2.361,2.361,0,0,1,.473.625,1.169,1.169,0,0,1-1.836,1.369c-.756-.7-1.475-1.446-2.209-2.172-.164-.162-.327-.327-.49-.49l-.222.054c.028.495.082.99.079,1.485a1.236,1.236,0,0,1-1.172,1.391c-.752.018-1.222-.5-1.226-1.4-.01-2.682-.019-5.363,0-8.045a2.343,2.343,0,0,1,2.53-2.513,7.879,7.879,0,0,1,2.69.419,3.348,3.348,0,0,1,1.974,3.486,3.576,3.576,0,0,1-2.474,3.111c-.162.053-.328.093-.618.175m-1.635-4.807c-.012.836-.024,1.6-.035,2.412.755-.077,1.627.275,2.117-.53a1.532,1.532,0,0,0,.044-1.27c-.451-.905-1.366-.529-2.125-.612" transform="translate(-198.822 -175.978)" fill="#fff"/>
    <path id="Path_394" data-name="Path 394" d="M519.255,214.123a5.447,5.447,0,0,1-4.77,1.356c-.676-.075-1-.54-1.009-1.33-.017-1.364-.006-2.729-.006-4.094q0-2.443,0-4.886c0-1.3.382-1.645,1.7-1.683a5.133,5.133,0,0,1,4.41,1.782,4.091,4.091,0,0,1,1.026,2.382c.065,1.183.071,2.374.019,3.558a4.363,4.363,0,0,1-1.374,2.915m-3.267-8.155q0,3.551,0,7.1a2.22,2.22,0,0,0,2.255-2.073,18.581,18.581,0,0,0,0-2.9,2.239,2.239,0,0,0-2.256-2.125" transform="translate(-443.645 -175.813)" fill="#fff"/>
    <path id="Path_395" data-name="Path 395" d="M307.349,214.266c-1.381,1.282-2.638,1.618-4.055,1.115a3.246,3.246,0,0,1-2.341-2.977,49.356,49.356,0,0,1,0-5.6,3.492,3.492,0,0,1,3.48-3.223,3.56,3.56,0,0,1,3.594,3.122,47.483,47.483,0,0,1-.007,5.858,4.973,4.973,0,0,1-.668,1.7m-2.012-1.232a3.422,3.422,0,0,0,.338-.919c.024-1.688.034-3.378-.005-5.066a1.145,1.145,0,0,0-1.2-1.074,1.1,1.1,0,0,0-1.144,1.052c-.04,1.71-.054,3.423.023,5.13a1.385,1.385,0,0,0,.766.933c.335.146.807-.025,1.22-.057" transform="translate(-259.958 -175.9)" fill="#fff"/>
    <path id="Path_396" data-name="Path 396" d="M9.452,215.171a1.269,1.269,0,0,1-2.022-.038,2.739,2.739,0,0,1-.218-.478c-.559-1.4-.558-1.4-2.043-1.4a2.364,2.364,0,0,1-.4,0c-1.311-.225-2.174.13-2.466,1.59a1.1,1.1,0,0,1-1.562.755,1.185,1.185,0,0,1-.634-1.644c1.006-2.717,2.029-5.428,3.046-8.14.169-.452.323-.911.514-1.354a1.192,1.192,0,0,1,1.166-.813,1.154,1.154,0,0,1,1.1.8c1.213,3.2,2.426,6.405,3.586,9.627a2.47,2.47,0,0,1-.076,1.1m-4.558-6.677-.163-.021-.841,2.24,1.881.116-.877-2.335" transform="translate(0 -175.954)" fill="#fff"/>
    <path id="Path_397" data-name="Path 397" d="M445.128,205.875l.03,2.552c.628-.035,1.345-.1,2.063-.108.9-.007,1.426.462,1.427,1.2s-.518,1.193-1.427,1.2c-.7,0-1.4-.031-2.074-.048,0,.86,0,1.635.006,2.633.905-.04,1.888-.09,2.872-.124a3.862,3.862,0,0,1,.788.047,1.169,1.169,0,0,1,1.011,1.193,1.151,1.151,0,0,1-1.072,1.136c-.567.049-1.142.021-1.713.018-1.012-.006-2.024,0-3.035-.032a1.243,1.243,0,0,1-1.381-1.4q-.022-4.618,0-9.236A1.244,1.244,0,0,1,444,203.5c1.473-.018,2.947-.015,4.42,0,.859.008,1.371.467,1.378,1.184a1.222,1.222,0,0,1-1.353,1.213c-1.119.014-2.238-.013-3.321-.022" transform="translate(-382.425 -175.818)" fill="#fff"/>
    <path id="Path_398" data-name="Path 398" d="M90.84,210.727c.014,1.189.041,2.351.034,3.514a1.163,1.163,0,0,1-.919,1.214,1.078,1.078,0,0,1-1.29-.552,1.751,1.751,0,0,1-.181-.821c-.014-2.683-.023-5.367-.007-8.051a2.407,2.407,0,0,1,2.567-2.562,4.752,4.752,0,0,1,3.2.739,3.646,3.646,0,0,1,1.327,3.753,3.565,3.565,0,0,1-3.011,2.678c-.541.063-1.09.058-1.724.089m.2-4.835c-.023.812-.045,1.587-.068,2.39.749-.069,1.654.282,2.109-.617a1.487,1.487,0,0,0-.029-1.211c-.486-.861-1.374-.51-2.012-.562" transform="translate(-76.439 -175.796)" fill="#fff"/>
    <path id="Path_399" data-name="Path 399" d="M161.7,210.81c.01,1.048.023,2.058.028,3.069a4.016,4.016,0,0,1-.04.723,1.171,1.171,0,0,1-2.31.019,7.965,7.965,0,0,1-.052-1.25q-.006-3.566,0-7.132a2.414,2.414,0,0,1,2.65-2.671,7.979,7.979,0,0,1,1.77.128,3.585,3.585,0,0,1-.417,7.035c-.5.061-1.009.051-1.629.079m.122-2.436c.722-.065,1.594.264,2.057-.573a1.516,1.516,0,0,0-.012-1.275c-.475-.818-1.337-.5-2.1-.55.019.808.037,1.549.057,2.4" transform="translate(-137.659 -175.886)" fill="#fff"/>
    <path id="Path_400" data-name="Path 400" d="M375.691,209.4l1.032-4.1c.054-.213.1-.429.162-.638a1.221,1.221,0,0,1,1.484-.965,1.208,1.208,0,0,1,.838,1.559c-.373,1.582-.781,3.155-1.174,4.732-.372,1.492-.741,2.984-1.118,4.475-.2.805-.644,1.216-1.265,1.205s-1.022-.388-1.22-1.175q-1.138-4.538-2.262-9.079c-.24-.973.144-1.652.953-1.748a1.221,1.221,0,0,1,1.351,1.076c.354,1.36.682,2.727,1.024,4.09.035.139.092.272.194.569" transform="translate(-321.499 -175.96)" fill="#fff"/>
  </g>
</svg>
