<svg id="Group_262" data-name="Group 262" xmlns="http://www.w3.org/2000/svg" xmlns:xlink="http://www.w3.org/1999/xlink" width="60.23" height="64.532" viewBox="0 0 60.23 64.532">
  <defs>
    <clipPath id="clip-path">
      <rect id="Rectangle_115" data-name="Rectangle 115" width="60.23" height="64.533" fill="#fff"/>
    </clipPath>
  </defs>
  <g id="Group_261" data-name="Group 261" clip-path="url(#clip-path)">
    <path id="Path_401" data-name="Path 401" d="M24.424,286.655a3.011,3.011,0,1,1,3.007-3.007,3.018,3.018,0,0,1-3.007,3.007m-10.7,6.667a4.767,4.767,0,1,1,4.767-4.767A4.772,4.772,0,0,1,13.724,293.322Zm23.807-10.634-4.056-6.733H10.006L.757,291.313a5.225,5.225,0,0,0,4.481,7.921H35.682a14.241,14.241,0,0,1,1.848-16.546Z" transform="translate(0 -239.813)" fill="#fff"/>
    <path id="Path_402" data-name="Path 402" d="M180.849,328.211a.851.851,0,1,0,.851.851.851.851,0,0,0-.851-.851" transform="translate(-156.424 -285.226)" fill="#fff"/>
    <path id="Path_403" data-name="Path 403" d="M102.484,26.094a1.063,1.063,0,0,1-.154-.558V6.974h-5.8a1.078,1.078,0,0,1,0-2.156H104.2a.132.132,0,0,0,.132-.132V.132A.132.132,0,0,0,104.2,0H88.857a.132.132,0,0,0-.132.132V4.687a.132.132,0,0,0,.132.132h3.3a1.078,1.078,0,1,1,0,2.156H91.27V25.537a1.064,1.064,0,0,1-.154.558l-4.745,7.884h20.866l-4.745-7.884Z" transform="translate(-75.059)" fill="#fff"/>
    <path id="Path_404" data-name="Path 404" d="M87.519,352.281a2.6,2.6,0,1,0,2.6,2.6,2.6,2.6,0,0,0-2.6-2.6" transform="translate(-73.794 -306.143)" fill="#fff"/>
    <path id="Path_405" data-name="Path 405" d="M291.4,322.724a1.079,1.079,0,0,1-1.526,1.526l-2.787-2.787-2.787,2.787a1.079,1.079,0,0,1-1.526-1.526l2.787-2.787-2.787-2.787a1.079,1.079,0,0,1,1.526-1.526l2.787,2.787,2.787-2.787a1.079,1.079,0,0,1,1.526,1.526l-2.787,2.787Zm-4.32-14.9a12.109,12.109,0,1,0,12.109,12.109A12.121,12.121,0,0,0,287.082,307.821Z" transform="translate(-238.96 -267.506)" fill="#fff"/>
  </g>
</svg>
