<?xml version="1.0" encoding="utf-8"?>
<!-- Generator: Adobe Illustrator 27.3.1, SVG Export Plug-In . SVG Version: 6.00 Build 0)  -->
<svg version="1.1" id="Layer_1" xmlns="http://www.w3.org/2000/svg" xmlns:xlink="http://www.w3.org/1999/xlink" x="0px" y="0px"
	 viewBox="0 0 433 110" style="enable-background:new 0 0 433 110;" xml:space="preserve">
<style type="text/css">
	.st0{fill:#FF3840;}
	.st1{enable-background:new    ;}
	.st2{fill:#F5F5F5;}
	.st3{fill:url(#Ellipse_133_00000115510735452976528450000016881971832302681791_);}
	.st4{fill:#FFFFFF;}
</style>
<g>
	<g transform="matrix(1, 0, 0, 1, 501, 3853)">
		<path id="Rectangle_401-2" class="st0" d="M-455.4-3821h348.9c16.3,0,29.5,13.4,29.5,30l0,0c0,16.6-13.2,30-29.5,30h-348.9
			c-16.3,0-29.5-13.4-29.5-30l0,0C-484.9-3807.6-471.7-3821-455.4-3821z"/>
	</g>
	<g class="st1">
		<path class="st2" d="M153,73V49.5h4.7V73H153z"/>
		<path class="st2" d="M178.7,62.8V73H174v-9.6c0-0.7,0-1.6-0.1-2.5c-0.1-1.9-1.2-3.2-3.5-3.2c-2.3,0-4.1,2-4.1,7V73h-4.7V54.9h4.7
			v2.9l1.4-2.1c1.3-0.9,2.6-1.3,4.4-1.3c3.8,0,6.1,1.9,6.4,5.1C178.7,60.4,178.7,61.3,178.7,62.8z"/>
		<path class="st2" d="M205.7,69.3V73h-17.1v-2.2l7.9-7.7c3.2-3.1,4.4-4.8,4.4-7c0-2.1-1.2-3.5-3.4-3.5c-2.3,0-3.5,1.5-3.8,4.3
			l0,0.3h-4.7l0-0.3c0.5-5,3.6-7.8,8.9-7.8c5.2,0,7.9,2.8,7.9,6.8c0,3-1.5,5.1-5.7,9.2l-4.4,4.2H205.7z"/>
		<path class="st2" d="M208.6,64.7v-2.7h7.9v2.7H208.6z"/>
		<path class="st2" d="M236.9,66.4c0,5.1-4.2,7.1-9,7.1c-5.2,0-8.9-2-8.9-7.1c0-3,2.1-5,4.6-5.8c-2-0.7-3.5-2.3-3.5-5
			c0-3.9,3-6.5,8.2-6.5c5.1,0,8.1,2.6,8.1,6.5c0,2.7-1.8,4.3-3.9,5C234.8,61.4,236.9,63.4,236.9,66.4z M231.9,66.3
			c0-2.2-1.3-3.8-4.1-3.8c-2.6,0-4,1.6-4,3.8c0,2.3,1.5,3.7,4.1,3.7C230.7,70,231.9,68.5,231.9,66.3z M224.8,55.8
			c0,2,1.2,3.3,3.2,3.3c2.1,0,3.4-1.3,3.4-3.3c0-1.9-1.2-3.2-3.4-3.2C226.1,52.6,224.8,53.9,224.8,55.8z"/>
		<path class="st2" d="M271.9,73h-6.2l-4-19.5L257.4,73h-6.3l-5.9-23.5h5.1l3.9,19.9l4.1-19.5h6.6l4,19.6l4.2-19.9h4.8L271.9,73z"/>
		<path class="st2" d="M295.4,65.2h-12.9c0.3,3.8,2,5,4.2,5c2,0,3.5-1.1,3.8-3.1h4.7c-0.9,4.2-4.3,6.4-8.6,6.4c-5,0-8.8-3.1-8.8-9.5
			c0-5.5,3.6-9.6,9.2-9.6c5.5,0,8.5,4.2,8.5,9.1C295.4,64,295.4,64.6,295.4,65.2z M282.7,62.1h8c-0.3-2.9-1.6-4.4-3.8-4.4
			C284.6,57.7,283.1,59.1,282.7,62.1z"/>
		<path class="st2" d="M314.7,65.2h-12.8c0.3,3.8,2,5,4.2,5c2,0,3.5-1.1,3.8-3.1h4.7c-0.9,4.2-4.3,6.4-8.6,6.4c-5,0-8.8-3.1-8.8-9.5
			c0-5.5,3.6-9.6,9.2-9.6s8.5,4.2,8.5,9.1C314.8,64,314.8,64.6,314.7,65.2z M302,62.1h8c-0.3-2.9-1.6-4.4-3.8-4.4
			C303.9,57.7,302.4,59.1,302,62.1z"/>
		<path class="st2" d="M322.3,67.5V73h-4.7V48h4.7v15.2l7.3-8.3h5.6l-8,8.4l8.1,9.7h-5.9l-5.6-7.1L322.3,67.5z"/>
		<path class="st2" d="M350.8,60.1h-4.7c-0.3-1.7-1.2-2.6-2.8-2.6c-1.4,0-2.1,0.8-2.1,1.9c0,1.4,1.1,2.1,4.1,2.8
			c3.7,1,5.9,2.4,5.9,5.8c0,3.6-3.3,5.4-7.4,5.4c-4.4,0-7.5-1.9-8-6h4.7c0.4,2,1.7,2.9,3.4,2.9c1.5,0,2.7-0.6,2.7-2
			c0-1.4-1.2-2.2-4.3-3c-3.4-0.9-5.7-2.3-5.7-5.4c0-3.5,2.9-5.6,7.2-5.6C347.9,54.4,350.4,56.9,350.8,60.1z"/>
		<path class="st2" d="M358.6,57.3c0,1.7-1.2,2.8-2.9,2.8c-1.7,0-2.8-1.2-2.8-2.8c0-1.7,1.2-2.9,2.8-2.9
			C357.4,54.4,358.6,55.6,358.6,57.3z M358.6,70.6c0,1.7-1.2,2.9-2.9,2.9c-1.7,0-2.8-1.2-2.8-2.9s1.2-2.9,2.8-2.9
			C357.4,67.8,358.6,69,358.6,70.6z"/>
	</g>
	<g id="Artwork_16" transform="translate(510 3853)">
		<g id="Group_974" transform="translate(0 0)">
			
				<linearGradient id="Ellipse_133_00000042016828733463928930000012513563132166609298_" gradientUnits="userSpaceOnUse" x1="-598.1909" y1="-3404.5908" x2="-597.1909" y2="-3404.5908" gradientTransform="matrix(110 0 0 -110 65300 -378303)">
				<stop  offset="0" style="stop-color:#E81E25"/>
				<stop  offset="0.502" style="stop-color:#BF2026"/>
				<stop  offset="1" style="stop-color:#981B1E"/>
			</linearGradient>
			
				<circle id="Ellipse_133" style="fill:url(#Ellipse_133_00000042016828733463928930000012513563132166609298_);" cx="-446" cy="-3798" r="55"/>
		</g>
		<path id="Path_878" class="st4" d="M-420.3-3804.8c-2.2-1.6-4.4,0-5.3,1.1l-5.3,7.8c-0.5,0.9-1.6,1.3-2.6,1.1
			c-1.3-0.2-1.5-3-1.5-3.8l2.1-22.6c0.1-0.9,0-1.9-0.5-2.7c-0.6-0.8-1.5-1.3-2.6-1.4c-0.9-0.2-1.8,0.1-2.4,0.7
			c-0.9,1-1.4,2.4-1.3,3.7l-2.1,16.1c0,0-0.2,2-1.3,2c-0.2,0-0.5-0.6-0.6-2.6c-0.4-3.5-1.8-21.2-2-21.2c-0.1-1-0.7-1.9-1.5-2.5
			c-0.9-0.6-2-0.8-3.1-0.5c-3.2,0.6-3.4,4-3.1,5.6l1.3,20c0.1,0.6,0,1.3-0.2,1.9c-0.1,0.2-0.3,0.2-0.5,0.2c-0.7,0.1-1.1-1.6-1.5-2.5
			l-5-17.1c-0.3-0.9-1-1.7-1.8-2.2c-0.8-0.4-1.7-0.4-2.6-0.1c-3.2,1.1-1.6,6.3-1.6,6.4l3.8,16.1c0.3,0.8,0.3,1.7,0.1,2.6
			c-0.1,0.2-0.2,0.4-0.5,0.4c-0.9-0.1-3.2-4.7-5-9.9c-0.3-0.8-0.9-1.5-1.7-1.9c-1-0.3-2-0.3-2.9,0.1c-0.9,0.3-1.6,1.1-1.8,2
			c-0.3,1.1-0.1,2.3,0.4,3.3l8.1,25.6c0,0.1,2.9,10.3,13.8,12.4c1,0.1,3.8,0.2,4.7,0.2c9.4,0,14.3-9.5,14.3-9.7l12.4-23.2
			C-418.2-3801-418.5-3803.5-420.3-3804.8C-420.2-3804.8-420.3-3804.8-420.3-3804.8L-420.3-3804.8z"/>
	</g>
</g>
</svg>
