<?xml version="1.0" encoding="UTF-8"?><svg id="b" xmlns="http://www.w3.org/2000/svg" viewBox="0 0 575 575"><defs><style>.d{fill:#fff;}.e{fill:#005b99;}</style></defs><g id="c"><circle class="d" cx="287.5" cy="287.5" r="287"/><path class="e" d="m287.5,0C128.72,0,0,128.72,0,287.5s128.72,287.5,287.5,287.5,287.5-128.72,287.5-287.5S446.28,0,287.5,0Zm0,562.43c-151.84,0-274.93-123.09-274.93-274.93S135.66,12.57,287.5,12.57s274.93,123.09,274.93,274.93-123.09,274.93-274.93,274.93Z"/><circle class="e" cx="49.88" cy="287.5" r="13.09"/><circle class="e" cx="525.12" cy="287.5" r="13.09"/><path class="e" d="m335.93,93.19c-107.3-26.75-216,38.55-242.74,145.88-26.77,107.3,38.55,215.99,145.83,242.75,107.33,26.75,216.03-38.55,242.79-145.86,26.75-107.3-38.55-216.01-145.88-242.76Zm131.91,239.28c-24.84,99.6-125.72,160.2-225.33,135.38-99.57-24.83-160.19-125.71-135.35-225.29,24.82-99.61,125.7-160.22,225.29-135.39,99.61,24.83,160.22,125.72,135.39,225.31Z"/><path class="e" d="m85.63,208.79l-3.63,10.68-20.62-7c-2.5-.85-4.78-1.68-6.82-2.49.58.93,1.13,2.03,1.67,3.3l2.15,5.66-8.57,3.18-6.35-17.07,3.22-9.48,38.94,13.22Z"/><path class="e" d="m85.33,163.05c6.42,3.42,10.55,7.01,12.39,10.75,1.84,3.74,1.58,7.83-.79,12.27-2.31,4.33-5.61,6.77-9.91,7.31-4.29.54-9.52-.84-15.67-4.12-6.45-3.44-10.61-7.04-12.47-10.8-1.86-3.76-1.61-7.85.75-12.29,2.3-4.32,5.61-6.75,9.93-7.28,4.31-.54,9.57.85,15.78,4.16Zm-8.78,16.45c4.1,2.19,7.06,3.44,8.87,3.74,1.81.31,3.04-.14,3.68-1.35.65-1.22.32-2.51-1-3.86-1.32-1.35-3.98-3.1-7.98-5.23-4.02-2.14-6.97-3.39-8.86-3.74-1.89-.35-3.15.08-3.8,1.29-.64,1.21-.33,2.48.96,3.83,1.28,1.34,3.99,3.12,8.13,5.32Z"/><path class="e" d="m108.06,132.1c5.78,4.41,9.28,8.62,10.49,12.61,1.21,3.99.29,7.98-2.76,11.98-2.98,3.91-6.63,5.78-10.95,5.62-4.32-.16-9.26-2.36-14.8-6.59-5.81-4.44-9.34-8.66-10.57-12.67-1.23-4.01-.33-8.01,2.72-12.01,2.97-3.89,6.63-5.75,10.97-5.59,4.34.17,9.31,2.38,14.9,6.65Zm-11.31,14.82c3.7,2.82,6.41,4.53,8.15,5.13,1.74.6,3.02.35,3.85-.74.84-1.1.72-2.43-.36-3.97-1.08-1.55-3.43-3.7-7.04-6.45-3.62-2.76-6.34-4.47-8.14-5.12-1.81-.65-3.12-.43-3.95.66-.83,1.09-.72,2.4.33,3.93,1.05,1.53,3.44,3.72,7.16,6.56Z"/><path class="e" d="m123.1,105.43c2.7,3.12,4.09,6.14,4.17,9.06.08,2.92-1.18,5.51-3.77,7.76-2.44,2.11-5.13,2.9-8.09,2.37-2.95-.53-5.73-2.3-8.34-5.3-2.7-3.12-4.09-6.12-4.15-9-.07-2.88,1.15-5.41,3.66-7.59,2.48-2.15,5.2-2.98,8.17-2.51,2.97.48,5.75,2.21,8.34,5.2Zm-9.55,8.43c1.41,1.63,2.57,2.69,3.46,3.18.9.49,1.61.5,2.15.03.54-.47.63-1.17.28-2.1-.35-.94-1.25-2.23-2.68-3.89-1.41-1.63-2.56-2.69-3.45-3.19-.89-.5-1.6-.51-2.14-.04-.55.48-.64,1.2-.26,2.16.38.96,1.26,2.25,2.65,3.85Zm17.02-31.13l9.7,46.01-6.31,5.47-9.7-46.01,6.31-5.47Zm26.9,14.58c2.69,3.1,4.07,6.12,4.14,9.05.07,2.93-1.18,5.51-3.76,7.75-2.44,2.11-5.13,2.9-8.09,2.37-2.95-.53-5.73-2.29-8.32-5.28-2.7-3.12-4.09-6.12-4.15-9-.07-2.88,1.15-5.41,3.66-7.59,2.48-2.15,5.2-2.99,8.17-2.51,2.97.48,5.75,2.21,8.34,5.2Zm-9.55,8.43c1.41,1.63,2.57,2.69,3.46,3.18.9.49,1.61.5,2.15.03.61-.53.67-1.31.19-2.34-.49-1.03-1.34-2.26-2.57-3.67-1.23-1.42-2.32-2.44-3.27-3.06-.95-.63-1.73-.68-2.34-.15-.55.48-.64,1.2-.26,2.16s1.26,2.25,2.65,3.85Z"/><path class="e" d="m202.29,88.44l-18.78-24.4-.23.09c2.23,4.54,3.87,8.11,4.9,10.7l6.62,16.59-9.14,3.65-15.23-38.2,13.74-5.48,18.78,23.94.21-.08-3-30.23,13.77-5.49,15.23,38.2-9.48,3.78-6.68-16.75c-.35-.87-.72-1.84-1.12-2.92-.4-1.07-1.32-3.72-2.76-7.95l-.24.09,3.24,30.53-9.82,3.92Z"/><path class="e" d="m272.94,50.08c.99,6.85.07,12.3-2.77,16.35-2.84,4.05-7.5,6.54-13.98,7.48-6.38.93-11.54-.15-15.46-3.24-3.92-3.09-6.38-8.06-7.38-14.9-.98-6.77-.04-12.19,2.83-16.26,2.87-4.06,7.53-6.56,13.99-7.5,6.48-.94,11.64.12,15.5,3.18,3.85,3.06,6.28,8.02,7.28,14.89Zm-28,4.06c1.14,7.87,4.45,11.4,9.92,10.61,2.78-.4,4.71-1.66,5.78-3.77,1.07-2.11,1.31-5.18.72-9.23-.59-4.06-1.71-6.97-3.35-8.71-1.64-1.74-3.82-2.42-6.53-2.02-5.51.8-7.69,5.17-6.54,13.11Z"/><path class="e" d="m322.71,73.06l-14.53-1.04-12.91-29.97-.25-.02c.03,4.57-.04,8.05-.21,10.45l-1.32,18.49-9.82-.7,2.93-41.02,14.48,1.04,12.89,29.57h.17c.03-4.14.14-7.47.32-9.98l1.33-18.54,9.88.71-2.93,41.02Z"/><path class="e" d="m355.75,81.66l-23.6-6.26,10.54-39.75,23.6,6.26-2.28,8.62-12.86-3.41-1.66,6.25,11.91,3.16-2.28,8.62-11.91-3.16-1.99,7.5,12.86,3.41-2.32,8.75Z"/><path class="e" d="m387.8,66.89l12.77-10.94,10.96,4.99-22.7,17.2-6.66,14.62-10.19-4.64,6.52-14.31-1.79-28.72,11.01,5.01.08,16.79Z"/><path class="e" d="m440.17,79.55l11.05,9.15c4.3,3.56,6.97,6.85,8,9.86,1.03,3.01.42,5.86-1.81,8.56-1.47,1.78-3.18,2.92-5.13,3.42-1.95.5-3.82.32-5.61-.55l-.18.22c1.53,2.15,2.24,4.19,2.11,6.13-.12,1.94-.99,3.88-2.59,5.82-2.38,2.87-5.34,4.24-8.86,4.11-3.53-.14-7.16-1.75-10.88-4.83l-12.32-10.21,26.23-31.67Zm-6.7,25.5l-5.51,6.65,3.01,2.49c2.67,2.21,4.94,2.19,6.81-.06.87-1.05,1.19-2.16.94-3.31-.25-1.16-1.05-2.3-2.41-3.42l-2.84-2.35Zm5.19-6.26l2.58,2.14c1.23,1.02,2.39,1.55,3.48,1.6,1.09.05,2.05-.42,2.87-1.42,1.47-1.78.86-3.78-1.82-6l-2.4-1.99-4.7,5.67Z"/><path class="e" d="m460,156.52l4.65-6.47-8.51-10.3-7.27,3.3-7.78-9.41,40.38-15.96,9.44,11.43-23.18,36.77-7.74-9.37Zm10.21-14.05l4.07-5.67c.89-1.27,2.07-2.9,3.53-4.87s2.53-3.36,3.2-4.16c-.84.48-2.27,1.23-4.28,2.24-2.01,1.01-6.04,2.92-12.1,5.71l5.57,6.74Z"/><path class="e" d="m507.61,170.92c-1.28-2.31-3.22-3.6-5.84-3.85-2.61-.25-5.58.54-8.92,2.38-6.93,3.82-8.94,8.37-6.03,13.64.88,1.59,1.95,3.01,3.22,4.26,1.27,1.25,2.63,2.46,4.09,3.62l-8.22,4.54c-2.99-2.27-5.53-5.3-7.62-9.09-3-5.43-3.72-10.47-2.17-15.11,1.55-4.64,5.31-8.6,11.27-11.89,3.73-2.06,7.39-3.16,10.99-3.32,3.6-.15,6.88.67,9.86,2.46,2.97,1.8,5.44,4.48,7.41,8.04,2.15,3.89,3.35,8.08,3.62,12.55l-9.3,1.25c-.11-1.67-.32-3.29-.63-4.86-.31-1.56-.88-3.11-1.72-4.64Z"/><path class="e" d="m499.12,237.85l-3.96-11.9,12.35-12.68-2.91-2.5-13.05,4.35-3.53-10.59,39.02-12.99,3.53,10.59-16.95,5.64c1.23.18,3.25.71,6.07,1.57l14.68,4.21,3.84,11.53-21.58-6.48-17.51,19.26Z"/><path class="e" d="m41.78,365.4l-3-10.87,20.99-5.79c2.55-.7,4.9-1.29,7.04-1.77-1-.44-2.08-1.04-3.24-1.79l-4.96-3.48,5.3-7.44,14.84,10.55,2.66,9.65-39.64,10.93Z"/><path class="e" d="m80.6,404.19c-6.55,3.18-11.87,4.41-15.98,3.69-4.11-.72-7.26-3.33-9.45-7.86-2.15-4.42-2.17-8.52-.08-12.31,2.09-3.79,6.27-7.2,12.55-10.25,6.58-3.19,11.94-4.44,16.07-3.73,4.13.7,7.3,3.32,9.49,7.84,2.14,4.4,2.15,8.51.05,12.31-2.1,3.8-6.32,7.24-12.65,10.31Zm-8.14-16.78c-4.18,2.03-6.93,3.69-8.25,4.97-1.32,1.28-1.67,2.54-1.08,3.77.6,1.25,1.84,1.74,3.71,1.47,1.87-.27,4.85-1.4,8.93-3.38,4.1-1.99,6.84-3.65,8.24-4.97,1.39-1.32,1.79-2.6,1.19-3.83-.6-1.23-1.82-1.73-3.66-1.48-1.84.25-4.87,1.39-9.09,3.44Z"/><path class="e" d="m105.08,439.57c-5.87,4.3-10.88,6.48-15.05,6.51-4.17.04-7.74-1.97-10.72-6.02-2.91-3.96-3.67-7.99-2.3-12.09,1.37-4.1,4.87-8.22,10.5-12.34,5.9-4.33,10.94-6.52,15.13-6.57,4.19-.05,7.78,1.94,10.75,6,2.9,3.95,3.65,7.98,2.27,12.1-1.38,4.12-4.91,8.26-10.58,12.42Zm-11.03-15.03c-3.75,2.75-6.15,4.88-7.22,6.38-1.06,1.5-1.19,2.8-.38,3.91.82,1.12,2.13,1.38,3.92.77,1.79-.6,4.51-2.25,8.17-4.93,3.67-2.7,6.07-4.82,7.2-6.37,1.13-1.55,1.29-2.88.48-3.98-.81-1.1-2.1-1.37-3.86-.79-1.77.58-4.54,2.25-8.32,5.02Z"/><path class="e" d="m157.59,461.27l-44.16,16.16-6.32-5.47,44.16-16.16,6.31,5.47Zm-23.53-4.15c-2.7,3.12-5.49,4.92-8.37,5.42-2.88.49-5.62-.38-8.21-2.63-2.44-2.11-3.61-4.67-3.5-7.66.1-3,1.46-6,4.06-9.01,2.7-3.12,5.47-4.92,8.32-5.39,2.84-.48,5.52.37,8.03,2.54,2.48,2.15,3.7,4.73,3.65,7.73-.05,3.01-1.37,6.01-3.96,9Zm-9.71-8.26c-1.41,1.63-2.29,2.92-2.65,3.88-.36.96-.27,1.67.27,2.14.54.47,1.25.46,2.12-.02.88-.48,2.03-1.55,3.47-3.21,1.41-1.63,2.3-2.92,2.66-3.87.36-.95.28-1.66-.26-2.12-.55-.48-1.28-.46-2.18.05-.9.51-2.04,1.57-3.43,3.17Zm22.64,41.11c-2.69,3.11-5.48,4.9-8.37,5.39-2.89.49-5.62-.39-8.2-2.62-2.44-2.11-3.61-4.67-3.5-7.66.1-3,1.45-5.99,4.04-8.99,2.7-3.12,5.47-4.92,8.32-5.39,2.84-.48,5.52.37,8.03,2.54,2.48,2.15,3.7,4.73,3.65,7.73-.05,3.01-1.37,6.01-3.96,9Zm-9.71-8.26c-1.41,1.63-2.3,2.92-2.65,3.88-.36.96-.27,1.67.27,2.14.61.53,1.39.48,2.34-.15.95-.63,2.04-1.65,3.27-3.07,1.23-1.42,2.08-2.64,2.57-3.67.48-1.03.42-1.81-.19-2.34-.55-.48-1.28-.46-2.18.05-.9.51-2.04,1.57-3.43,3.17Z"/><path class="e" d="m203.36,505.33l16.56,6.37-7.96,20.69c-5.09-.19-10.33-1.32-15.72-3.4-5.92-2.28-9.83-5.75-11.74-10.42-1.91-4.67-1.64-10.19.8-16.54,2.38-6.2,6.01-10.34,10.87-12.42,4.86-2.09,10.48-1.91,16.85.54,2.42.93,4.61,2.03,6.58,3.31,1.97,1.28,3.61,2.57,4.94,3.89l-6.41,6.88c-2.24-2.43-5.01-4.28-8.32-5.55-3.03-1.16-5.75-1.08-8.16.25-2.41,1.33-4.32,3.83-5.73,7.48-1.38,3.59-1.69,6.61-.91,9.07.77,2.46,2.57,4.23,5.39,5.31,1.54.59,3.01.99,4.42,1.19l2.31-6.01-6.85-2.63,3.08-8.01Z"/><path class="e" d="m273.37,504.17l-3.57,24.49c-.78,5.33-2.89,9.23-6.33,11.71-3.44,2.48-8,3.31-13.68,2.48-5.55-.81-9.6-2.85-12.17-6.12-2.56-3.27-3.46-7.57-2.68-12.9l3.61-24.74,11.05,1.61-3.49,23.88c-.42,2.88-.19,5.04.7,6.5.89,1.46,2.38,2.34,4.47,2.64,2.24.33,3.97-.08,5.17-1.22,1.2-1.14,2.01-3.18,2.44-6.11l3.48-23.83,10.99,1.61Z"/><path class="e" d="m314.96,543.73l-2.57-7.54-13.33.96-1.52,7.84-12.18.87,10.42-42.15,14.78-1.06,16.51,40.21-12.12.87Zm-5.53-16.47l-2.25-6.6c-.52-1.47-1.16-3.37-1.92-5.7-.76-2.33-1.27-4.01-1.53-5.02-.1.97-.32,2.56-.66,4.78-.34,2.22-1.13,6.62-2.37,13.17l8.72-.63Z"/><path class="e" d="m351.29,521.62l4.16,14.37-10.67,3.09-11.43-39.5,12.94-3.75c10.73-3.11,17.23-.77,19.48,7.01,1.32,4.58.11,8.76-3.63,12.56l16.49,13.88-12.1,3.5-12.54-11.95-2.7.78Zm-2.32-8.02l2-.58c3.73-1.08,5.12-3.27,4.16-6.56-.79-2.72-3.01-3.55-6.67-2.49l-2.11.61,2.61,9.02Z"/><path class="e" d="m416.83,510.42l-5.43-5.83-11.77,6.32,1.81,7.78-10.76,5.77-7.7-42.73,13.06-7.01,31.49,29.96-10.71,5.75Zm-11.77-12.77l-4.75-5.11c-1.07-1.13-2.43-2.6-4.08-4.42-1.65-1.82-2.8-3.14-3.45-3.96.3.92.75,2.47,1.35,4.64.6,2.17,1.67,6.5,3.22,12.99l7.71-4.13Z"/><path class="e" d="m472.06,468.16l-10.95,9.61-30.4-11.86-.19.17c3.27,3.19,5.7,5.68,7.29,7.49l12.23,13.93-7.4,6.49-27.13-30.9,10.91-9.58,30.1,11.6.13-.11c-2.93-2.94-5.23-5.36-6.88-7.24l-12.27-13.97,7.44-6.53,27.13,30.9Z"/><path class="e" d="m497.61,436.54l-6.63,8.92-25.71-19.11-5.99,8.06-7.29-5.42,18.59-25.01,7.29,5.42-5.97,8.04,25.71,19.11Z"/><path class="e" d="m523.98,390.46l-10.88,21.85-36.81-18.33,10.88-21.85,7.98,3.97-5.93,11.91,5.79,2.88,5.49-11.03,7.98,3.97-5.49,11.03,6.95,3.46,5.93-11.91,8.11,4.04Z"/><path class="e" d="m538.13,348.39l-6.95,23.4-39.42-11.7,6.95-23.41,8.55,2.54-3.79,12.75,6.2,1.84,3.51-11.81,8.55,2.54-3.51,11.81,7.44,2.21,3.79-12.75,8.68,2.58Z"/><path class="e" d="m235.87,357.74c0,9.22-2.54,16.32-7.61,21.3-5.07,4.99-12.21,7.48-21.4,7.48h-17.87v-55.22h19.11c8.86,0,15.71,2.27,20.53,6.8,4.82,4.53,7.23,11.08,7.23,19.64Zm-15.49.53c0-5.06-1-8.81-3-11.26-2-2.44-5.04-3.66-9.12-3.66h-4.34v30.94h3.32c4.53,0,7.86-1.32,9.97-3.95,2.12-2.63,3.17-6.65,3.17-12.07Z"/><path class="e" d="m279.64,386.52l-2.72-10.35h-17.94l-2.79,10.35h-16.39l18.02-55.45h19.91l18.24,55.45h-16.32Zm-5.82-22.59l-2.38-9.07c-.55-2.01-1.23-4.62-2.02-7.82-.79-3.2-1.32-5.49-1.57-6.87-.23,1.28-.67,3.4-1.34,6.35-.67,2.95-2.15,8.75-4.44,17.41h11.75Z"/><path class="e" d="m321.65,351.77l9.52-20.47h16.17l-18.17,33.66v21.57h-15.03v-21.11l-18.17-34.11h16.24l9.44,20.47Z"/><path class="e" d="m389.41,369.75c0,3.42-.87,6.47-2.61,9.12-1.74,2.66-4.24,4.72-7.52,6.2-3.27,1.47-7.11,2.21-11.52,2.21-3.68,0-6.76-.26-9.25-.77-2.49-.52-5.09-1.42-7.78-2.7v-13.3c2.84,1.46,5.8,2.6,8.88,3.42,3.07.82,5.89,1.23,8.46,1.23,2.21,0,3.84-.38,4.87-1.15,1.03-.77,1.55-1.76,1.55-2.96,0-.76-.21-1.42-.62-1.98-.42-.57-1.08-1.14-2-1.72-.92-.58-3.37-1.76-7.35-3.55-3.6-1.64-6.3-3.22-8.1-4.76-1.8-1.54-3.13-3.3-4-5.29-.87-1.99-1.3-4.34-1.3-7.06,0-5.09,1.85-9.05,5.55-11.9,3.7-2.84,8.79-4.27,15.26-4.27,5.72,0,11.54,1.32,17.49,3.97l-4.57,11.52c-5.16-2.37-9.62-3.55-13.37-3.55-1.94,0-3.35.34-4.23,1.02-.88.68-1.32,1.52-1.32,2.53,0,1.08.56,2.05,1.68,2.91,1.12.86,4.16,2.42,9.12,4.68,4.76,2.14,8.06,4.44,9.91,6.89,1.85,2.45,2.78,5.55,2.78,9.27Z"/><polygon class="e" points="287.5 110.51 296.66 129.07 317.15 132.05 302.32 146.5 305.82 166.9 287.5 157.27 269.18 166.9 272.68 146.5 257.85 132.05 278.34 129.07 287.5 110.51"/><polygon class="e" points="224 125.32 230.76 139 245.87 141.2 234.94 151.85 237.52 166.9 224 159.8 210.49 166.9 213.07 151.85 202.14 141.2 217.25 139 224 125.32"/><polygon class="e" points="351 125.32 357.75 139 372.86 141.2 361.93 151.85 364.51 166.9 351 159.8 337.48 166.9 340.06 151.85 329.13 141.2 344.24 139 351 125.32"/><polygon class="e" points="287.5 408.1 296.66 426.66 317.15 429.64 302.32 444.09 305.82 464.49 287.5 454.86 269.18 464.49 272.68 444.09 257.85 429.64 278.34 426.66 287.5 408.1"/><polygon class="e" points="224 408.1 230.76 421.79 245.87 423.98 234.94 434.64 237.52 449.68 224 442.58 210.49 449.68 213.07 434.64 202.14 423.98 217.25 421.79 224 408.1"/><polygon class="e" points="351 408.1 357.75 421.79 372.86 423.98 361.93 434.64 364.51 449.68 351 442.58 337.48 449.68 340.06 434.64 329.13 423.98 344.24 421.79 351 408.1"/><path class="e" d="m227.27,274.94c0,19.65-16.5,32.4-41.1,32.4s-39.6-11.85-41.7-32.85l-.15-1.5h23.55l.15,1.5c1.5,9,7.8,15.45,17.7,15.45s16.8-5.85,16.8-14.25c0-9.6-6.75-14.7-19.05-15.15h-3.75v-15.75l3.75-.15c10.5-.6,16.65-6.45,16.65-15,0-7.65-4.95-12.6-13.2-12.6-8.7,0-13.5,6.45-14.25,15l-.15,1.5h-23.4l.15-1.5c1.8-17.85,14.7-32.4,40.05-32.4,23.7,0,35.55,12.3,35.55,27.3,0,12-6.45,20.4-19.35,23.55,14.25,3.15,21.75,11.1,21.75,24.45Z"/><path class="e" d="m324.17,269.24c0,24.6-18.9,38.1-40.35,38.1-27,0-40.95-15.75-40.95-51.15,0-37.2,18.15-56.55,43.65-56.55,21.75,0,34.2,11.4,36.45,29.4l.15,1.5h-23.7l-.3-1.5c-2.25-8.25-6.6-12-13.95-12-10.95,0-17.55,10.05-18.3,33.75l4.95-9.3c5.55-4.5,11.1-5.7,18.45-5.7,22.95,0,33.9,15,33.9,33.45Zm-24.75,2.85c0-11.25-5.55-18.9-16.05-18.9-8.4,0-15.6,6.45-15.6,18.3,0,10.95,6.15,18.45,15.75,18.45,10.2,0,15.9-8.1,15.9-17.85Z"/><path class="e" d="m420.02,270.59c0,24-19.5,36.75-40.2,36.75-23.85,0-37.35-9.45-39.6-30.75l-.15-1.5h23.55l.15,1.5c1.2,8.25,5.85,13.35,14.7,13.35,10.95,0,16.8-7.65,16.8-18.6s-6-18.6-16.35-18.6c-7.65,0-12.3,3.15-15.3,10.65h-21.75l7.5-61.65h66.45v18.3h-47.1l-3.75,26.1,4.65-6.9c4.8-2.85,10.2-3.9,16.05-3.9,21.3,0,34.35,13.35,34.35,35.25Z"/></g></svg>