<?xml version="1.0" encoding="UTF-8"?><svg id="b" xmlns="http://www.w3.org/2000/svg" viewBox="0 0 303 303"><defs><style>.d,.e{fill:#fff;}.e{stroke:#005b99;stroke-miterlimit:10;stroke-width:6px;}.f{fill:#005b99;}</style></defs><g id="c"><circle class="e" cx="151.5" cy="151.5" r="148.5"/><path class="f" d="m35.51,108.26l4.5-11.4,4.46,1.76-4.5,11.4,10.42,4.11-2.26,5.74-25.22-9.95,7.24-18.35,4.46,1.76-4.97,12.61,5.88,2.32Z"/><path class="f" d="m69.21,80.81l-3.76,5.57c-1.94-.5-3.49-1.08-5.51-2.16-2.64-1.36-4.71-1.38-5.98.22-.45.6-.82,1.15-1.24,1.77l-1.36,2.02,8.82,5.96-3.46,5.11-22.46-15.18,5.76-8.53c.9-1.33,1.53-2.19,2.45-3.28,2.59-2.99,6.04-4.59,9.98-1.93,2.86,1.94,3.62,4.82,2.52,8.2,2.39-1.71,4.77-1.38,7.55.12,2.83,1.49,4.77,2.13,6.69,2.1Zm-19.82,2.25c.48-.72.86-1.27,1.13-1.75.96-1.77,1.19-3.65-.86-5.04-2.05-1.39-3.52-.62-4.83.91-.34.43-.75.96-1.23,1.68l-1.91,2.83,5.92,4,1.78-2.64Z"/><path class="f" d="m85.75,65.4l-14.64,13.8-18.59-19.73,14.35-13.53,3.29,3.49-9.87,9.3,4.34,4.6,9.21-8.68,3.29,3.49-9.21,8.68,4.37,4.63,10.15-9.57,3.31,3.52Z"/><path class="f" d="m105.64,53.33l-17.24,10.36-13.96-23.24,16.91-10.16,2.47,4.11-11.62,6.98,3.26,5.42,10.84-6.52,2.47,4.11-10.84,6.51,3.28,5.46,11.96-7.18,2.49,4.14Z"/><path class="f" d="m135.29,30.18c2,8.12-1.82,13.84-7.74,16.06-1.3.48-1.91.63-3.32.98l-9.42,2.32-6.47-26.32,9.46-2.33c1.41-.35,2.02-.5,3.39-.67,6.27-.82,12.1,1.84,14.1,9.96Zm-6.28,1.62c-1.22-4.96-4.34-7.1-8.14-6.61-.9.14-1.59.27-2.7.54l-2.71.67,4.18,16.98,2.67-.66c1.11-.27,1.79-.44,2.65-.73,3.6-1.33,5.3-5.11,4.05-10.18Z"/><path class="f" d="m161.83,43.57l-20.12.33-.44-27.11,19.72-.32.08,4.79-13.56.22.1,6.33,12.65-.21.08,4.79-12.65.21.1,6.37,13.95-.23.08,4.83Z"/><path class="f" d="m184.66,48.32l-19.7-4.09,5.52-26.54,6.04,1.26-4.46,21.46,13.66,2.84-1.06,5.08Z"/><path class="f" d="m187.36,49.83l9.63-25.34,5.77,2.19-9.63,25.34-5.77-2.19Z"/><path class="f" d="m204.03,57.35l5.6-28.23,5.74,3.42-5.56,22.72,17.47-15.61,5.6,3.34-22.3,18.26-6.54-3.91Z"/><path class="f" d="m234.32,81.68l-14.48-13.96,18.81-19.51,14.19,13.69-3.33,3.45-9.75-9.41-4.39,4.55,9.1,8.78-3.33,3.45-9.1-8.78-4.42,4.58,10.04,9.68-3.35,3.48Z"/><path class="f" d="m248.46,102.8l-3.7-5.61c1.21-1.59,2.34-2.81,4.11-4.26,2.27-1.92,3.08-3.82,2.09-5.61-.38-.64-.75-1.2-1.16-1.83l-1.34-2.03-8.89,5.86-3.39-5.15,22.64-14.91,5.66,8.6c.89,1.34,1.44,2.25,2.08,3.52,1.77,3.54,1.92,7.34-2.05,9.96-2.89,1.9-5.84,1.49-8.54-.82.66,2.86-.56,4.93-3.01,6.92-2.46,2.05-3.8,3.58-4.51,5.37Zm5.53-19.17c.47.72.84,1.28,1.18,1.72,1.27,1.57,2.92,2.5,4.98,1.14,2.07-1.36,1.92-3.01,1.02-4.81-.27-.48-.6-1.06-1.08-1.78l-1.88-2.85-5.97,3.93,1.75,2.66Z"/><path class="f" d="m253.78,117.32l-2.14-5.74,9.72-3.62,12.34-14.83,2.43,6.52-8.55,9.47,12.58,1.35,2.36,6.33-18.95-3.13-9.79,3.65Z"/><circle class="f" cx="151.5" cy="151.5" r="101.25"/><path class="f" d="m77.38,261.96l-4.47-3.76,7.86-13.89-12.48,10-4.49-3.78,8.81-17.9,3.61,3.04-7.98,14.12,12.38-10.05,4.79,4.03-7.94,13.97,12.78-10.27,3.46,2.91-16.33,11.57Z"/><path class="f" d="m106.65,267.43c-2.83,5.43-7.97,7.21-13.27,4.45-5.33-2.78-6.81-8.01-3.99-13.44,2.84-5.45,7.97-7.21,13.3-4.44,5.3,2.76,6.8,7.97,3.96,13.43Zm-4.03-2.1c2.01-3.86,1.41-6.96-1.43-8.44-2.86-1.49-5.75-.21-7.76,3.65-2,3.83-1.41,6.96,1.46,8.45,2.84,1.48,5.74.17,7.73-3.67Z"/><path class="f" d="m122.55,282.57l-4.58-1.42c-.06-1.43.02-2.61.34-4.22.38-2.09-.03-3.51-1.39-4.05-.5-.18-.96-.33-1.47-.48l-1.66-.52-2.26,7.27-4.21-1.31,5.75-18.5,7.02,2.18c1.1.34,1.81.59,2.75,1,2.58,1.16,4.39,3.19,3.38,6.43-.73,2.36-2.55,3.47-5.09,3.42,1.66,1.28,1.93,2.98,1.47,5.19-.43,2.25-.48,3.7-.06,5.01Zm-5.63-13.1c.59.18,1.05.32,1.43.41,1.41.29,2.75.06,3.27-1.63.53-1.69-.3-2.53-1.62-3.12-.37-.14-.81-.31-1.4-.5l-2.33-.72-1.52,4.88,2.17.67Z"/><path class="f" d="m138.34,268.9l-2.24,15.78-4.33-.62,2.24-15.78-6.39-.91.48-3.39,17.12,2.43-.48,3.39-6.39-.91Z"/><path class="f" d="m163.99,285.29l-4.38.12-.21-7.77-8.47.23.21,7.77-4.41.12-.53-19.36,4.41-.12.22,8.14,8.47-.23-.22-8.14,4.38-.12.53,19.36Z"/><path class="f" d="m183.71,281.79l.53,2.12-2.45.61-.53-2.12c-3.73.59-6.63-.57-7.85-4.08l4.09-1.02c.6,1.35,1.69,2.01,3,2.03l-1.25-4.98c-3.88-.33-6.34-1.28-7.11-4.36-.87-3.46,1.33-5.89,4.27-7l-.54-2.15,2.45-.61.53,2.12c3.92-.55,6.33,1.22,7.47,4.18l-4.11,1.03c-.48-1.24-1.29-2.05-2.59-2.13l1.19,4.77c4.68.3,6.89,1.52,7.68,4.68.79,3.16-1.33,5.69-4.78,6.93Zm-5.47-11.45l-1.09-4.36c-.99.54-1.46,1.44-1.18,2.55.31,1.23,1.05,1.65,2.28,1.8Zm4.72,8.46c1.22-.57,1.76-1.4,1.45-2.65-.25-1.01-.94-1.67-2.57-1.84l1.12,4.49Z"/><path class="f" d="m204.09,263.1c2.74,6.4,1.15,11.02-3.34,12.94-3.82,1.64-6.77.58-8.42-2.41l-.14-.25,4.08-1.75.16.24c.93,1.31,1.95,1.64,3.29,1.06,1.88-.81,2.28-3.02.65-7.18l-.18,2c-.63,1.16-1.46,1.79-2.73,2.33-3.97,1.7-6.94-.08-8.29-3.26-1.81-4.23.45-7.95,4.13-9.53,4.62-1.98,8.17-.32,10.79,5.79Zm-5.41-.8c-.81-1.88-2.39-2.73-4.07-2.01-1.73.74-2.11,2.55-1.39,4.23.82,1.91,2.32,2.85,4.15,2.07,1.45-.62,2.18-2.25,1.31-4.29Z"/><path class="f" d="m214.88,266.07c.73,1.29.36,2.73-.96,3.48-1.29.73-2.75.33-3.48-.96-.75-1.32-.33-2.75.96-3.48,1.32-.75,2.73-.36,3.48.96Z"/><path class="f" d="m225.53,249.03c4.08,5.64,3.54,10.5-.42,13.36-3.37,2.43-6.48,2.05-8.75-.5l-.19-.21,3.59-2.6.21.19c1.19,1.08,2.26,1.17,3.45.31,1.66-1.2,1.56-3.45-.94-7.15l.26,1.99c-.36,1.27-1.04,2.07-2.15,2.87-3.5,2.53-6.79,1.44-8.81-1.36-2.7-3.73-1.31-7.85,1.94-10.2,4.07-2.94,7.9-2.11,11.8,3.28Zm-5.45.41c-1.2-1.66-2.93-2.14-4.41-1.07-1.52,1.1-1.5,2.96-.43,4.43,1.22,1.68,2.89,2.27,4.51,1.11,1.27-.92,1.64-2.67.34-4.47Z"/><path class="f" d="m241.33,238.89c3.17,3.18,2.27,7.45-.48,10.18-3.16,3.15-6.2,3.68-9.31,1.15l-.22-.18,3.12-3.11.22.18c1.25.94,2.54,1,3.71-.17,1.45-1.45,1.22-3.23-.23-4.69-1.45-1.45-3.25-1.68-4.62-.31-1.01,1.01-1.22,2.04-.62,3.43l-2.89,2.87-7.14-9.17,8.81-8.77,2.42,2.43-6.25,6.22,2.95,3.96-.29-1.53c.26-1.01.84-1.86,1.61-2.64,2.83-2.81,6.32-2.76,9.21.14Z"/><path class="d" d="m75.09,156.03c1.23-2.81,3.37-3.81,6.42-3.74,6.32.15,12.65.08,18.98.03,4-.03,6.57-3.43,5.28-6.94-.77-2.1-2.32-3.3-4.57-3.4-1.97-.09-3.95,0-5.92-.08-2.4-.11-4.22-1.53-4.87-3.67-.63-2.09.07-4.47,1.94-5.62.98-.6,2.24-.91,3.4-1.03,1.7-.17,3.44,0,5.16-.06,3.04-.1,5.18-2.31,5.16-5.23-.03-2.87-2.28-5.09-5.29-5.12-3.24-.04-6.48,0-9.72-.01-3.45-.02-5.68-2.06-5.68-5.14,0-3.08,2.27-5.21,5.65-5.21,26.27,0,52.53,0,78.8.06,4.5.01,9.01.21,13.5.49,6.38.39,10.42,4.16,11.5,10.46.04.24.13.48.26.95,2.96,0,5.93.02,8.9,0,4.35-.03,8.53.73,12.03,3.43,1.81,1.39,3.6,3.06,4.78,4.99,2.85,4.64,5.34,9.51,7.98,14.28,1.8,3.24,2.16,6.66,1.47,10.28-.96,5.01-1.73,10.06-2.74,15.07-.74,3.68-2.31,7.01-4.98,9.72-1.96,1.99-4.33,3.07-7.27,3-.13-1.1-.19-2.15-.39-3.17-1.54-8.01-8.81-13.25-16.85-11.99-9.09,1.43-14.9,6.71-17.54,15.5-.06.19-.11.38-.19.64h-30.62c-.21-1.71-.25-3.44-.66-5.08-2.12-8.6-10.79-13.2-19.8-10.43-6.4,1.97-11.07,5.99-13.42,12.37-.58,1.57-1.31,2.12-3.03,2.08-5.92-.13-11.84-.04-17.76-.05-3.4,0-5.67-2.09-5.66-5.18,0-3.06,2.3-5.15,5.69-5.17,1.92,0,3.85.02,5.77,0,3.01-.05,5.25-2.26,5.27-5.14.02-2.96-2.23-5.18-5.34-5.2-6.28-.02-12.55-.11-18.83.03-3.09.07-5.42-.81-6.81-3.66v-3.04Zm116.68-4.73c2.24,0,4.26,0,6.27,0,6.42,0,12.83.03,19.25-.02,3.21-.02,4.76-2.57,3.23-5.39-1.87-3.46-3.84-6.87-5.87-10.24-1.73-2.86-4.33-4.87-7.61-5.28-4.13-.51-8.33-.46-12.55-.65-.92,7.31-1.81,14.31-2.73,21.56Zm-47.13-7.89c3.24-1.78,4.5-4.57,4.5-7.97,0-3.04-1.53-4.94-4.55-5.26-2.95-.3-5.95-.26-8.92-.18-1.37.04-2.07,1.09-2.26,2.45-.77,5.5-1.59,10.99-2.27,16.5-.08.66.48,1.88.98,2.03.69.2,1.74-.19,2.38-.68.46-.35.57-1.25.7-1.92.26-1.42.43-2.86.65-4.37,1.21,0,2.28.06,3.33-.02.87-.06,1.26.29,1.51,1.1.45,1.5.99,2.97,1.51,4.44.53,1.49,1.34,1.98,2.6,1.59,1.26-.38,1.88-1.65,1.44-3.03-.49-1.54-1.03-3.06-1.59-4.68Zm9.64,4.09c.26-1.89.5-3.61.76-5.47,2,0,3.91.02,5.82,0,1.54-.03,2.67-.99,2.55-2.2-.15-1.51-1.3-1.59-2.47-1.58-1.75,0-3.5,0-5.38,0,.25-1.65.47-3.07.68-4.47.38-.04.57-.07.77-.07,2.38-.01,4.75.03,7.13-.04,1.35-.04,2.33-1.06,2.2-2.19-.15-1.3-1.09-1.54-2.21-1.54-2.17.02-4.35.05-6.52,0-4.77-.12-5.03.35-5.57,4.68-.58,4.66-1.32,9.3-1.93,13.96-.26,2,.33,2.65,2.26,2.66,3.03.02,6.07.02,9.1,0,1.48-.01,2.46-.92,2.38-2.16-.1-1.46-1.15-1.57-2.29-1.56-2.37.02-4.73,0-7.28,0Zm17.34-5.47c2.02,0,3.84.02,5.65,0,1.68-.02,2.8-.91,2.69-2.2-.14-1.65-1.42-1.58-2.61-1.58-1.69,0-3.39,0-5.15,0,.07-.73.09-1.19.16-1.63q.44-2.92,3.45-2.92c1.72,0,3.44.04,5.16-.06,1.22-.08,1.96-.86,1.93-2.11-.03-1.23-.91-1.58-1.99-1.58-3.03,0-6.07-.02-9.1,0-1.65.02-2.62.83-2.84,2.37-.8,5.55-1.58,11.11-2.34,16.66-.19,1.39.54,2.19,1.99,2.23,1.42.04,2.83.01,4.25.01,1.82,0,3.64.03,5.46-.02,1.26-.04,2.19-.99,2.13-2.1-.07-1.33-.97-1.63-2.11-1.6-.56.01-1.11,0-1.67,0-1.9,0-3.79,0-5.81,0,.27-1.93.5-3.62.76-5.47Zm-49.72-8.11c2.45,0,4.72.04,6.99-.02,1.36-.04,2.42-1.17,2.26-2.34-.17-1.33-1.11-1.65-2.31-1.64-2.58.03-5.15,0-7.73.01-1.92.01-2.75.71-3.06,2.63-.36,2.19-.64,4.4-.94,6.6-.46,3.3-.95,6.6-1.34,9.9-.19,1.65,1.05,2.69,2.4,1.97.69-.37,1.35-1.26,1.52-2.03.47-2.05.67-4.16.98-6.3.48-.03.88-.07,1.27-.07,1.26-.01,2.53.04,3.79-.02,1.43-.07,2.57-1.19,2.44-2.38-.16-1.46-1.23-1.67-2.44-1.65-1.45.02-2.91,0-4.51,0,.23-1.62.44-3.05.67-4.66Z"/><path class="d" d="m133.55,174.22c6.53.03,10.99,5.54,9.69,11.95-1.27,6.26-6.84,10.92-13,10.88-6.11-.03-10.44-4.83-9.86-10.91.62-6.51,6.64-11.96,13.17-11.92Z"/><path class="d" d="m209.08,184.01c.03,7.53-7.16,13.91-14.64,12.99-5.09-.63-8.78-5.14-8.45-10.33.44-6.83,6.48-12.48,13.3-12.44,5.62.03,9.76,4.17,9.78,9.78Z"/><path class="d" d="m87.09,136.84c0,2.86-2.38,5.22-5.22,5.19-2.85-.03-5.19-2.43-5.14-5.28.06-2.83,2.31-5.06,5.15-5.07,2.91-.01,5.22,2.27,5.21,5.16Z"/><path class="d" d="m136.35,140.26c.27-2.06.47-3.95.81-5.81.05-.3.66-.69,1.04-.72,1.15-.09,2.32-.06,3.47-.03,2.21.05,3.18.74,3.3,2.29.17,2.1-1.13,3.9-3.07,4.21-.54.09-1.11.06-1.66.06-1.25,0-2.5,0-3.9,0Z"/></g></svg>