<svg xmlns="http://www.w3.org/2000/svg" xmlns:xlink="http://www.w3.org/1999/xlink" width="148.814" height="156.359" viewBox="0 0 148.814 156.359">
  <defs>
    <filter id="Ellipse_179" x="4.078" y="11.623" width="144.737" height="144.736" filterUnits="userSpaceOnUse">
      <feOffset dx="3.07" dy="3.07" input="SourceAlpha"/>
      <feGaussianBlur stdDeviation="1.096" result="blur"/>
      <feFlood flood-color="#d8d8d8" flood-opacity="0.749"/>
      <feComposite operator="in" in2="blur"/>
      <feComposite in="SourceGraphic"/>
    </filter>
  </defs>
  <g id="Artwork_28" data-name="Artwork 28" transform="translate(73.376 75)">
    <g id="Group_1244" data-name="Group 1244" transform="translate(-73.376 -75)">
      <g transform="matrix(1, 0, 0, 1, 0, 0)" filter="url(#Ellipse_179)">
        <ellipse id="Ellipse_179-2" data-name="Ellipse 179" cx="69.079" cy="69.079" rx="69.079" ry="69.079" transform="translate(4.3 11.84)" fill="#f2f2f2"/>
      </g>
      <g id="Group_1242" data-name="Group 1242" transform="translate(40.822)">
        <path id="Path_1594" data-name="Path 1594" d="M177.13,107.249c-.5.343-1.183.128-1.668.522h-1.329a.406.406,0,0,0-.665,0h-1.329a.762.762,0,0,0-1,0h-.665c-1.061-.35-2.19-.384-3.262-.72a20.082,20.082,0,0,1-6.745-3.5,21.136,21.136,0,0,1-5.026-6.248A18.7,18.7,0,0,1,153.4,86.614a18.966,18.966,0,0,1,1.863-6.18c1.978-4.654,3.937-9.315,5.916-13.969q4.565-10.739,9.151-21.469c.1-.24.107-.5.236-.739a2.174,2.174,0,0,1,2.507-1.121,2.2,2.2,0,0,1,1.755,1.479c1.019,2.216,1.907,4.485,2.9,6.711a1.512,1.512,0,0,1,.2.78c-.679.414-.689,1.186-.957,1.8-2.068,4.789-4.1,9.592-6.144,14.392-1.616,3.8-3.2,7.614-4.844,11.4a21.514,21.514,0,0,0-2.187,10.5,18.987,18.987,0,0,0,5.2,11.584,19.414,19.414,0,0,0,8.3,5.167Z" transform="translate(-126.907 -24.191)" fill="#62ddfc"/>
        <path id="Path_1595" data-name="Path 1595" d="M150.582,21.25a5.915,5.915,0,0,1-5.078.593,6.858,6.858,0,0,1-4-3.218,5.662,5.662,0,0,1-.429-4.921c1.727-4.309,3.6-8.563,5.413-12.836.126-.3.293-.579.44-.868h.831a12.374,12.374,0,0,1,1.423,3.012,25.637,25.637,0,0,1,1.64,4.163c-.147.047-.2.164-.252.3-.7,1.624-1.407,3.241-2.1,4.867a7.666,7.666,0,0,0-.853,3.765,6.848,6.848,0,0,0,2.962,4.959Z" transform="translate(-119.807)" fill="#63ddfc"/>
        <path id="Path_1596" data-name="Path 1596" d="M190.6,118.5a19.414,19.414,0,0,1-8.3-5.167,18.987,18.987,0,0,1-5.2-11.584,21.515,21.515,0,0,1,2.187-10.5c1.647-3.787,3.228-7.6,4.844-11.4,2.041-4.8,4.076-9.6,6.144-14.392.268-.619.277-1.39.957-1.8A8.979,8.979,0,0,1,192.3,65.91c2.641,6.182,5.241,12.381,7.853,18.575,1.354,3.21,2.835,6.375,4.027,9.642a17.75,17.75,0,0,1,.18,12.055,18.68,18.68,0,0,1-3.889,6.663c-.181.2-.378.384-.567.575a2,2,0,0,0-.669.665,17.751,17.751,0,0,1-6.636,4.089c-.539.191-1.1.334-1.646.5A.349.349,0,0,0,190.6,118.5ZM197.9,99.72a.739.739,0,0,0,0,1.305,14.281,14.281,0,0,1-1.5,4.951,13.576,13.576,0,0,1-3.466,3.985,1.243,1.243,0,0,0-.5,1.685,1.13,1.13,0,0,0,1.629.4,10.442,10.442,0,0,0,2.849-2.434,13.752,13.752,0,0,0,2.547-14.529,1.443,1.443,0,0,0-1.7-1.058,1.319,1.319,0,0,0-.7,1.9A19.875,19.875,0,0,1,197.9,99.72Z" transform="translate(-140.216 -35.729)" fill="#9be8fd"/>
        <path id="Path_1597" data-name="Path 1597" d="M117.434,58.065a6.474,6.474,0,0,1,1.1,2.231c1.938,4.466,3.8,8.964,5.719,13.438a11.206,11.206,0,0,1-2.921,13.371,9.128,9.128,0,0,1-4.028,2.164c-.026-.345-.312-.4-.566-.509a11.251,11.251,0,0,1-6.876-7.882,9.446,9.446,0,0,1,.041-5.34c.432-1.378,1.011-2.685,1.565-4.007q2.707-6.459,5.454-12.9C117.023,58.4,117.066,58.079,117.434,58.065Zm-.817,24.161a1.329,1.329,0,0,1-.274.287,1.226,1.226,0,0,0-.543,1.4,1.034,1.034,0,0,0,.983.925c.022.13.041.269.211.29.219.027.264-.125.288-.29a5.757,5.757,0,0,0,2.256-1.975,7.361,7.361,0,0,0,1-7.442,1.336,1.336,0,0,0-1.811-.826,1.357,1.357,0,0,0-.6,1.793,4.963,4.963,0,0,1-.846,5.179Q116.563,81.52,116.617,82.226Z" transform="translate(-102.295 -32.598)" fill="#9be8fd"/>
        <path id="Path_1598" data-name="Path 1598" d="M108.214,49.661c-.368.014-.411.331-.51.564q-2.738,6.447-5.454,12.9c-.554,1.322-1.133,2.629-1.565,4.007a9.446,9.446,0,0,0-.041,5.34,11.25,11.25,0,0,0,6.876,7.882c.254.107.54.164.566.509a2.963,2.963,0,0,1-2.024.326l-.164.136a6.587,6.587,0,0,1-3.508-.053,11.557,11.557,0,0,1-9.081-8.964,10.647,10.647,0,0,1,.813-6.71c3.11-7.222,6.158-14.47,9.215-21.714a1.119,1.119,0,0,1,.939-.768,1.348,1.348,0,0,1,1.539.686,54.4,54.4,0,0,1,2.369,5.532A1.33,1.33,0,0,1,108.214,49.661Z" transform="translate(-93.075 -24.194)" fill="#62ddfc"/>
        <path id="Path_1599" data-name="Path 1599" d="M159.416,30.245a6.848,6.848,0,0,1-2.962-4.959,7.666,7.666,0,0,1,.853-3.765c.689-1.626,1.4-3.243,2.1-4.867.056-.131.1-.248.252-.3a12.891,12.891,0,0,1,1.454,3.435.267.267,0,0,0,.126.331l.7,1.628a.266.266,0,0,0,.126.331,6.189,6.189,0,0,1-2.16,8.029l-.166.127-.154,0Z" transform="translate(-128.643 -9.184)" fill="#9be8fd"/>
        <path id="Path_1600" data-name="Path 1600" d="M167.207,24.522a.267.267,0,0,1-.126-.331C167.306,24.234,167.464,24.3,167.207,24.522Z" transform="translate(-134.615 -13.581)" fill="#f9feff"/>
        <path id="Path_1601" data-name="Path 1601" d="M169.1,28.988a.266.266,0,0,1-.126-.331C169.2,28.7,169.359,28.768,169.1,28.988Z" transform="translate(-135.679 -16.088)" fill="#f9feff"/>
        <path id="Path_1602" data-name="Path 1602" d="M163.977,47.845l.166-.127Z" transform="translate(-132.88 -26.789)" fill="#fdfeff"/>
        <path id="Path_1603" data-name="Path 1603" d="M163.237,48.017l.171,0-.168.19Z" transform="translate(-132.464 -26.955)" fill="#67defc"/>
        <path id="Path_1604" data-name="Path 1604" d="M122.311,130.091l.164-.136Z" transform="translate(-109.488 -72.957)" fill="#fcfeff"/>
        <path id="Path_1605" data-name="Path 1605" d="M217.389,138.551a19.881,19.881,0,0,0-.846-3.788,1.319,1.319,0,0,1,.7-1.9,1.443,1.443,0,0,1,1.7,1.058,13.752,13.752,0,0,1-2.547,14.529,10.444,10.444,0,0,1-2.849,2.434,1.13,1.13,0,0,1-1.629-.4,1.243,1.243,0,0,1,.5-1.685,13.577,13.577,0,0,0,3.466-3.985,14.29,14.29,0,0,0,1.5-4.951Q217.389,139.2,217.389,138.551Z" transform="translate(-159.701 -74.56)" fill="#c9f0fe"/>
        <path id="Path_1606" data-name="Path 1606" d="M224.1,145.9q0,.653,0,1.305A.739.739,0,0,1,224.1,145.9Z" transform="translate(-166.413 -81.909)" fill="#9de8fd"/>
        <path id="Path_1607" data-name="Path 1607" d="M124.814,105.862a1.034,1.034,0,0,1-.983-.925,1.226,1.226,0,0,1,.543-1.4,1.33,1.33,0,0,0,.274-.287,1.713,1.713,0,0,0,.664-.655,4.963,4.963,0,0,0,.846-5.179,1.357,1.357,0,0,1,.6-1.793,1.336,1.336,0,0,1,1.811.826,7.361,7.361,0,0,1-1,7.442,5.753,5.753,0,0,1-2.256,1.975Z" transform="translate(-110.327 -53.618)" fill="#c9f0fe"/>
        <path id="Path_1608" data-name="Path 1608" d="M126.388,111.654a1.713,1.713,0,0,1-.664.655Q125.67,111.6,126.388,111.654Z" transform="translate(-111.402 -62.681)" fill="#9de8fd"/>
        <path id="Path_1609" data-name="Path 1609" d="M126.106,119.115h.5c-.024.166-.069.318-.288.291C126.147,119.384,126.128,119.245,126.106,119.115Z" transform="translate(-111.619 -66.871)" fill="#9de8fd"/>
      </g>
      <path id="Path_1610" data-name="Path 1610" d="M166.722,190.939a.417.417,0,0,1,.5-.234C167.167,191.018,167.09,191.293,166.722,190.939Z" transform="translate(-93.599 -107.058)" fill="#fdffff"/>
      <path id="Path_1611" data-name="Path 1611" d="M166.72,190.937a.419.419,0,0,1,.506-.234C167.166,191.017,167.089,191.293,166.72,190.937Z" transform="translate(-93.597 -107.057)" fill="#fcffff"/>
      <path id="Path_1612" data-name="Path 1612" d="M167,186.448l.263.224Z" transform="translate(-93.753 -104.673)" fill="#9cffff"/>
      <g id="Group_1243" data-name="Group 1243" transform="translate(0 86.842)">
        <path id="Path_1613" data-name="Path 1613" d="M18.665,257.45a2.363,2.363,0,1,1-2.324,2.328A2.3,2.3,0,0,1,18.665,257.45Z" transform="translate(-9.174 -231.375)" fill="#ffc1a8"/>
        <path id="Path_1614" data-name="Path 1614" d="M4.882,225.118h.886c-.043.3-.122.576-.513.527C4.952,225.607,4.921,225.355,4.882,225.118Z" transform="translate(-2.741 -213.224)" fill="#ffdebf"/>
        <path id="Path_1615" data-name="Path 1615" d="M146.648,225.042q.014,15.51.02,31.021a4.788,4.788,0,0,1-4.461,4.461c-.344.008-.689,0-1.034,0q-67.8,0-135.608.075A5.529,5.529,0,0,1,0,255.028c.2-9.992.09-19.989.1-29.985l2.04.024c.039.237.07.489.373.528.391.05.471-.226.513-.527,2.78.51,5.627.749,8.249,1.919.571.255,1.037.855,1.615.966,2.437.471,4.775,1.409,7.281,1.547.042.3.121.576.511.528.3-.037.335-.289.374-.526a18.5,18.5,0,0,0,6.8,0c.038.313.164.538.521.559a.548.548,0,0,0,.661-.563l1.183-.293c.076.15.129.409.233.432.314.068.314-.221.357-.435l.584-.014c1.37.173,2.664.116,3.554-1.169.727-.073,1.289-.7,2.063-.611a.588.588,0,0,0,.67.275,1.54,1.54,0,0,1,.221,1.122q-.005,5.07-.02,10.141c-.787-.061-1.083-.786-1.617-1.191-.657-.5-1.218-1.26-2.223-.842a2.586,2.586,0,0,0-3.038,1.5c-.6,1.283.136,2.223,1.022,3.095,1.992,1.958,4.011,3.893,5.914,5.936a3.105,3.105,0,0,0,3.8.953c.424.528.684.062.932-.183,2.085-2.067,4.152-4.152,6.237-6.218a1.445,1.445,0,0,0,.508-1.3,2.569,2.569,0,0,0-3.5-3.5c-.73-.139-1.123.371-1.589.787-.521.465-.855,1.191-1.673,1.266q0-6.951,0-13.9l.57.02c.039.237.071.489.374.527.391.048.47-.227.512-.528l1.479-.293c.761,1.042,1.423,1.041,2.364,0h2.07c.964,1.134,1.531,1.135,2.364,0l1.479.292c.189.971.734.436,1.189.282.1,0,.193,0,.288.008a1.9,1.9,0,0,0,2.364.589,1.921,1.921,0,0,1,1.183.3c.192.616.459,1.075,1.188.571a2.93,2.93,0,0,1,1.768.6c.063.382.132.75.6.284a2.024,2.024,0,0,1,1.176.317c.619,1.12,1.589,1.159,2.668.864l.583.022c.131.644.419.768.9.271l.879.025c.489.931.982.929,1.477,0l.864-.023v9.469c-.806.115-1.2-.493-1.671-.959-.446-.443-.857-.939-1.591-.8a2.569,2.569,0,0,0-3.5,3.5,1.443,1.443,0,0,0,.508,1.3c2.086,2.067,4.153,4.152,6.237,6.219.247.245.507.711.932.183a3.748,3.748,0,0,0,2.942,0c.424.528.684.062.931-.183,2.085-2.067,4.152-4.152,6.238-6.219a1.443,1.443,0,0,0,.507-1.3,2.569,2.569,0,0,0-3.5-3.5c-.73-.139-1.123.371-1.589.787-.521.465-.855,1.191-1.673,1.266q0-4.882,0-9.764l.863.023c.495.925.987.927,1.477,0l.888-.29c.727.74,2.385.435,3.25-.6a2.013,2.013,0,0,1,1.177-.311c.692.308,1.21.175,1.483-.582a14.347,14.347,0,0,1,4.139-1.477,1.916,1.916,0,0,0,2.364-.589c.1-.007.193-.011.29-.013.515.418.965.56,1.188-.276l1.479-.292q1.02,1.857,2.364,0h2.07q1.347,1.861,2.364,0l1.479.293c.3,1.044.922.46,1.463.292q0,6.648-.007,13.3c-.806.115-1.2-.493-1.671-.959-.446-.443-.856-.939-1.591-.8a2.569,2.569,0,0,0-3.5,3.5A1.5,1.5,0,0,0,97.842,242c1.954,2.069,4.162,3.889,5.936,6.137.242.307.692.8,1.229.259a3.75,3.75,0,0,0,2.942,0c.422.527.683.063.93-.182,2.081-2.064,4.139-4.151,6.231-6.2a1.835,1.835,0,0,0,.526-1.594,2.2,2.2,0,0,0-.336-2.687c-.918-1.061-2.027-.962-3.193-.547-.725-.119-1.113.391-1.576.8-.518.462-.851,1.185-1.665,1.258q0-5.615,0-11.231c1.193-.168,2.133.594,3.2.859,1.554.383,3.038,1.406,4.749.628l.3,0c.586.841,1.207,1.43,2.069.287a48.064,48.064,0,0,0,15.362-2.068c.434.007.869.014.891-.6.211-.345.562-.279.882-.3a.415.415,0,0,0,.487.2,22.065,22.065,0,0,1,4.741-1.123c.276-.026.353-.289.393-.536C143.478,224.728,145.086,225.22,146.648,225.042ZM59.234,253.432a2.364,2.364,0,1,0-2.41-2.39A2.3,2.3,0,0,0,59.234,253.432Zm-30.788-2.383a2.363,2.363,0,1,0-2.27,2.383A2.3,2.3,0,0,0,28.446,251.048Zm111.136-9.377a2.364,2.364,0,1,0-2.5,2.3A2.3,2.3,0,0,0,139.582,241.671ZM9.492,239.247a2.363,2.363,0,1,0,.078,4.726,2.363,2.363,0,1,0-.078-4.726ZM123.03,251.011a2.364,2.364,0,1,0-2.233,2.42A2.3,2.3,0,0,0,123.03,251.011Zm-33.1.069a2.363,2.363,0,1,0-2.449,2.351A2.3,2.3,0,0,0,89.925,251.081Z" transform="translate(0 -213.172)" fill="#ffdfbf"/>
        <path id="Path_1616" data-name="Path 1616" d="M79.083,214.037l-.888.29-1.477,0-.863-.023c-.008-2.156,0-4.313-.029-6.47-.018-1.651-.877-2.636-2.287-2.678-1.473-.044-2.414.973-2.433,2.678-.025,2.157-.02,4.313-.028,6.47l-.864.023-1.477,0-.879-.024c-.225-.332-.569-.272-.9-.271l-.584-.022a8.345,8.345,0,0,0-2.667-.864,2.02,2.02,0,0,0-1.176-.316.628.628,0,0,0-.6-.285,2.926,2.926,0,0,0-1.768-.6,1.666,1.666,0,0,0-1.188-.571,1.921,1.921,0,0,0-1.183-.3,4.436,4.436,0,0,0-2.364-.589q-.143-.009-.288-.008c-.318-.423-.777-.255-1.189-.282L52.48,209.9l-2.364,0h-2.07l-2.364,0-1.479.293h-.886l-.57-.02c-.007-.738-.012-1.476-.022-2.214-.024-1.769-.869-2.779-2.336-2.8s-2.327,1-2.4,2.739c-.061,1.365.271,2.755-.242,4.093a.561.561,0,0,0-.64.246c-.774-.088-1.336.539-2.063.611l-3.554,1.169-.584.014-.59,0-1.183.292-1.181,0a18.5,18.5,0,0,1-6.8,0h-.886c-2.505-.139-4.843-1.077-7.281-1.547-.578-.111-1.044-.711-1.615-.966-2.622-1.171-5.468-1.409-8.249-1.919H2.233l-2.04-.024c-.009-2.413-.046-4.826-.021-7.239A4.788,4.788,0,0,1,4.7,198.065c.344-.009.689,0,1.034,0q67.741,0,135.483-.062c3.14-.006,5.975,2.357,5.6,5.671a57.478,57.478,0,0,0-.07,6.2c-1.562.178-3.17-.315-4.7.319a13.542,13.542,0,0,0-5.621,1.458c-.321.022-.672-.044-.882.3-.427,0-.862-.005-.891.6a48.066,48.066,0,0,1-15.362,2.068c-.625-.56-1.38-.184-2.069-.287l-.3,0-7.929-2.4c-.018-1.514.01-3.031-.068-4.543a2.35,2.35,0,0,0-4.693,0c-.062.925-.029,1.856-.038,2.785l-1.456.018-1.479-.293-2.364,0h-2.07l-2.364,0-1.479.292c-.411.028-.868-.141-1.188.276-.1,0-.193.006-.29.013a4.439,4.439,0,0,0-2.364.589,14.345,14.345,0,0,0-4.139,1.477,3.014,3.014,0,0,0-1.483.582,2.014,2.014,0,0,0-1.177.311Z" transform="translate(-0.092 -198)" fill="#ffbea6"/>
        <path id="Path_1617" data-name="Path 1617" d="M77.06,221.157c.513-1.338.181-2.728.242-4.093.077-1.736.933-2.757,2.4-2.739s2.312,1.028,2.336,2.8c.01.738.015,1.476.022,2.214q0,6.951,0,13.9c.013.327-.126.675.138.995l3.125-3.048a2.569,2.569,0,0,1,3.5,3.5c-2.568,2.559-5.578,4.677-7.677,7.7a3.105,3.105,0,0,1-3.8-.953c-1.9-2.043-3.921-3.979-5.914-5.936-.886-.872-1.622-1.812-1.022-3.095a2.587,2.587,0,0,1,3.038-1.5c1,1.359,2.5,2.152,3.65,3.4.346-.5.163-.943.19-1.363q.011-5.07.02-10.141a1.535,1.535,0,0,0-.222-1.122Q77.074,221.418,77.06,221.157Z" transform="translate(-39.408 -207.165)" fill="#fff"/>
        <path id="Path_1618" data-name="Path 1618" d="M152.815,223.472c.008-2.157,0-4.313.028-6.47.019-1.705.961-2.722,2.433-2.678,1.411.042,2.269,1.027,2.287,2.678.024,2.157.02,4.314.029,6.47q0,4.882,0,9.764c.013.327-.126.675.139,1l3.124-3.049a2.569,2.569,0,0,1,3.5,3.5c-2.544,2.584-5.6,4.661-7.677,7.7a3.748,3.748,0,0,1-2.942,0c-2.45-2.678-5.038-5.216-7.677-7.7a2.569,2.569,0,0,1,3.5-3.5,7.406,7.406,0,0,0,1.928,2.307c.328.313.6.967,1.1.758s.177-.855.231-1.307Q152.816,228.207,152.815,223.472Z" transform="translate(-81.829 -207.164)" fill="#fff"/>
        <path id="Path_1619" data-name="Path 1619" d="M228.295,219.335c.009-.929-.025-1.86.038-2.785a2.35,2.35,0,0,1,4.693,0c.077,1.511.05,3.028.067,4.543q-.012.455-.025.911,0,5.615,0,11.231c.013.327-.125.674.182,1.049a24.829,24.829,0,0,0,3.06-3.112c1.167-.415,2.276-.514,3.193.547a2.205,2.205,0,0,1,.336,2.687,68.539,68.539,0,0,0-7.687,7.98,3.751,3.751,0,0,1-2.942,0c-2.454-2.673-5.025-5.229-7.677-7.7a2.569,2.569,0,0,1,3.5-3.5c1.046,1,2.091,2,3.147,3.018.264-.4.091-.841.115-1.26q0-6.648.007-13.3C228.3,219.542,228.3,219.439,228.295,219.335Z" transform="translate(-124.202 -207.164)" fill="#fff"/>
        <path id="Path_1620" data-name="Path 1620" d="M131.967,283.741a2.364,2.364,0,1,1,2.317-2.336A2.3,2.3,0,0,1,131.967,283.741Z" transform="translate(-72.734 -243.482)" fill="#ffc1a8"/>
        <path id="Path_1621" data-name="Path 1621" d="M58.806,281.357a2.363,2.363,0,1,1-2.31-2.343A2.3,2.3,0,0,1,58.806,281.357Z" transform="translate(-30.361 -243.481)" fill="#ffc1a8"/>
        <path id="Path_1622" data-name="Path 1622" d="M312.2,259.871a2.364,2.364,0,1,1-2.229-2.423A2.309,2.309,0,0,1,312.2,259.871Z" transform="translate(-172.614 -231.372)" fill="#ffc1a8"/>
        <path id="Path_1623" data-name="Path 1623" d="M274.456,281.321a2.364,2.364,0,1,1-2.346-2.306A2.3,2.3,0,0,1,274.456,281.321Z" transform="translate(-151.427 -243.482)" fill="#ffc1a8"/>
        <path id="Path_1624" data-name="Path 1624" d="M198.98,281.388a2.363,2.363,0,1,1-2.277-2.375A2.305,2.305,0,0,1,198.98,281.388Z" transform="translate(-109.055 -243.48)" fill="#ffc1a8"/>
        <path id="Path_1625" data-name="Path 1625" d="M246.125,268.094a68.534,68.534,0,0,1,7.687-7.98,1.836,1.836,0,0,1-.527,1.594c-2.092,2.053-4.15,4.14-6.231,6.2C246.808,268.157,246.547,268.621,246.125,268.094Z" transform="translate(-138.176 -232.871)" fill="#ffdfc0"/>
        <path id="Path_1626" data-name="Path 1626" d="M170.647,268.445c2.082-3.044,5.133-5.121,7.677-7.7a1.444,1.444,0,0,1-.508,1.3c-2.086,2.067-4.153,4.152-6.238,6.219C171.331,268.508,171.071,268.974,170.647,268.445Z" transform="translate(-95.802 -233.223)" fill="#ffdfc0"/>
        <path id="Path_1627" data-name="Path 1627" d="M95.169,268.446c2.1-3.027,5.109-5.146,7.677-7.7a1.445,1.445,0,0,1-.508,1.3c-2.086,2.066-4.153,4.151-6.237,6.218C95.853,268.508,95.593,268.974,95.169,268.446Z" transform="translate(-53.428 -233.224)" fill="#ffdfc0"/>
        <path id="Path_1628" data-name="Path 1628" d="M221.893,260.741c2.652,2.476,5.223,5.032,7.677,7.7-.537.543-.987.048-1.229-.259-1.774-2.247-3.983-4.068-5.936-6.137A1.5,1.5,0,0,1,221.893,260.741Z" transform="translate(-124.563 -233.223)" fill="#ffdfc0"/>
        <path id="Path_1629" data-name="Path 1629" d="M146.416,260.741c2.639,2.489,5.227,5.027,7.677,7.7-.424.528-.684.062-.932-.183-2.085-2.067-4.152-4.152-6.237-6.219A1.443,1.443,0,0,1,146.416,260.741Z" transform="translate(-82.189 -233.223)" fill="#ffdfc0"/>
        <path id="Path_1630" data-name="Path 1630" d="M248.215,230.673q.012-.455.025-.911l7.929,2.4c-1.711.778-3.195-.244-4.749-.627C250.348,231.266,249.408,230.5,248.215,230.673Z" transform="translate(-139.349 -215.831)" fill="#ffdebf"/>
        <path id="Path_1631" data-name="Path 1631" d="M81.459,254.014c-.027.42.155.862-.19,1.363-1.147-1.244-2.65-2.037-3.65-3.4,1-.418,1.567.344,2.223.842C80.376,253.228,80.672,253.952,81.459,254.014Z" transform="translate(-43.576 -228.237)" fill="#ffdfc0"/>
        <path id="Path_1632" data-name="Path 1632" d="M157.677,254.491c-.054.451.281,1.094-.231,1.307s-.775-.445-1.1-.758a7.407,7.407,0,0,1-1.928-2.307c.734-.14,1.144.356,1.591.8C156.475,254,156.871,254.606,157.677,254.491Z" transform="translate(-86.689 -228.713)" fill="#ffdfc0"/>
        <path id="Path_1633" data-name="Path 1633" d="M310.822,227.249a13.543,13.543,0,0,1,5.622-1.458c-.04.247-.118.51-.393.536a22.068,22.068,0,0,0-4.741,1.123A.415.415,0,0,1,310.822,227.249Z" transform="translate(-174.497 -213.602)" fill="#ffdebf"/>
        <path id="Path_1634" data-name="Path 1634" d="M233.155,254.491c-.024.419.149.859-.115,1.26-1.056-1.013-2.1-2.016-3.147-3.018.735-.14,1.144.356,1.591.8C231.953,254,232.349,254.606,233.155,254.491Z" transform="translate(-129.063 -228.713)" fill="#ffdfc0"/>
        <path id="Path_1635" data-name="Path 1635" d="M100.487,252.733l-3.125,3.048c-.264-.32-.125-.668-.138-.995.818-.075,1.153-.8,1.673-1.266C99.364,253.1,99.757,252.595,100.487,252.733Z" transform="translate(-54.568 -228.714)" fill="#ffdfc0"/>
        <path id="Path_1636" data-name="Path 1636" d="M175.965,252.733l-3.124,3.049c-.265-.321-.125-.668-.139-1,.818-.075,1.153-.8,1.673-1.266C174.842,253.1,175.235,252.595,175.965,252.733Z" transform="translate(-96.942 -228.714)" fill="#ffdfc0"/>
        <path id="Path_1637" data-name="Path 1637" d="M251.429,252.718a24.825,24.825,0,0,1-3.061,3.112c-.307-.375-.169-.722-.182-1.049.814-.074,1.147-.8,1.666-1.258C250.316,253.11,250.7,252.6,251.429,252.718Z" transform="translate(-139.322 -228.709)" fill="#ffdfc0"/>
        <path id="Path_1638" data-name="Path 1638" d="M71.581,233.026l3.554-1.169C74.245,233.142,72.951,233.2,71.581,233.026Z" transform="translate(-40.186 -217.007)" fill="#ffdebf"/>
        <path id="Path_1639" data-name="Path 1639" d="M215.142,225.122l2.364,0Q216.159,226.978,215.142,225.122Z" transform="translate(-120.782 -213.224)" fill="#ffdebf"/>
        <path id="Path_1640" data-name="Path 1640" d="M225.251,225.118l2.364,0Q226.6,226.979,225.251,225.118Z" transform="translate(-126.457 -213.224)" fill="#ffdebf"/>
        <path id="Path_1641" data-name="Path 1641" d="M180.1,233.8l3.25-.6C182.484,234.231,180.826,234.537,180.1,233.8Z" transform="translate(-101.108 -217.76)" fill="#ffdebf"/>
        <path id="Path_1642" data-name="Path 1642" d="M114.056,225.118l2.364,0C115.587,226.253,115.02,226.252,114.056,225.118Z" transform="translate(-64.032 -213.224)" fill="#ffdebf"/>
        <path id="Path_1643" data-name="Path 1643" d="M103.947,225.121l2.364,0C105.37,226.161,104.708,226.162,103.947,225.121Z" transform="translate(-58.356 -213.224)" fill="#ffdebf"/>
        <path id="Path_1644" data-name="Path 1644" d="M145.056,232.531a8.345,8.345,0,0,1,2.667.864C146.645,233.69,145.675,233.651,145.056,232.531Z" transform="translate(-81.435 -217.386)" fill="#ffdebf"/>
        <path id="Path_1645" data-name="Path 1645" d="M267.036,235.182c.689.1,1.443-.273,2.069.287C268.243,236.612,267.622,236.023,267.036,235.182Z" transform="translate(-149.915 -218.858)" fill="#ffdebf"/>
        <path id="Path_1646" data-name="Path 1646" d="M126.185,226.452a4.436,4.436,0,0,1,2.364.589A1.9,1.9,0,0,1,126.185,226.452Z" transform="translate(-70.841 -213.972)" fill="#ffdebf"/>
        <path id="Path_1647" data-name="Path 1647" d="M203.011,227.038a4.439,4.439,0,0,1,2.364-.589A1.916,1.916,0,0,1,203.011,227.038Z" transform="translate(-113.971 -213.971)" fill="#ffdebf"/>
        <path id="Path_1648" data-name="Path 1648" d="M174.708,235.23l1.477,0C175.695,236.157,175.2,236.155,174.708,235.23Z" transform="translate(-98.082 -218.899)" fill="#ffdebf"/>
        <path id="Path_1649" data-name="Path 1649" d="M156.512,235.226l1.477,0C157.494,236.155,157,236.157,156.512,235.226Z" transform="translate(-87.867 -218.899)" fill="#ffdebf"/>
        <path id="Path_1650" data-name="Path 1650" d="M190.194,231.743a3.014,3.014,0,0,1,1.483-.582C191.4,231.918,190.886,232.052,190.194,231.743Z" transform="translate(-106.776 -216.617)" fill="#ffdebf"/>
        <path id="Path_1651" data-name="Path 1651" d="M235.468,225.75c0,.1,0,.207.007.31-.541.168-1.164.753-1.463-.292Z" transform="translate(-131.375 -213.579)" fill="#ffdebf"/>
        <path id="Path_1652" data-name="Path 1652" d="M63.513,235.23l1.181,0a.548.548,0,0,1-.661.563C63.677,235.768,63.551,235.543,63.513,235.23Z" transform="translate(-35.657 -218.899)" fill="#ffdebf"/>
        <path id="Path_1653" data-name="Path 1653" d="M134.273,228.487a1.666,1.666,0,0,1,1.188.571C134.732,229.562,134.465,229.1,134.273,228.487Z" transform="translate(-75.382 -215.115)" fill="#ffdebf"/>
        <path id="Path_1654" data-name="Path 1654" d="M209.062,226.054c.32-.418.777-.248,1.188-.276C210.027,226.614,209.577,226.473,209.062,226.054Z" transform="translate(-117.368 -213.588)" fill="#ffdebf"/>
        <path id="Path_1655" data-name="Path 1655" d="M122.816,225.778c.412.027.871-.141,1.189.282C123.55,226.214,123,226.749,122.816,225.778Z" transform="translate(-68.95 -213.589)" fill="#ffdebf"/>
        <path id="Path_1656" data-name="Path 1656" d="M306.779,230.4c.029-.6.464-.592.891-.6C307.648,230.412,307.213,230.4,306.779,230.4Z" transform="translate(-172.227 -215.854)" fill="#ffdebf"/>
        <path id="Path_1657" data-name="Path 1657" d="M152.468,234.546c.326,0,.67-.06.9.271C152.887,235.314,152.6,235.19,152.468,234.546Z" transform="translate(-85.596 -218.515)" fill="#ffdebf"/>
        <path id="Path_1658" data-name="Path 1658" d="M45.991,235.227h.886c-.039.237-.071.49-.374.527C46.112,235.8,46.033,235.528,45.991,235.227Z" transform="translate(-25.82 -218.899)" fill="#ffdebf"/>
        <path id="Path_1659" data-name="Path 1659" d="M98.556,225.793h.886c-.043.3-.121.576-.512.528C98.627,226.282,98.6,226.03,98.556,225.793Z" transform="translate(-55.33 -213.603)" fill="#ffdebf"/>
        <path id="Path_1660" data-name="Path 1660" d="M141.012,231.161a.628.628,0,0,1,.6.285C141.144,231.911,141.075,231.543,141.012,231.161Z" transform="translate(-79.165 -216.617)" fill="#ffdebf"/>
        <path id="Path_1661" data-name="Path 1661" d="M85.028,229.885q.014.261.029.521a.588.588,0,0,1-.669-.275A.561.561,0,0,1,85.028,229.885Z" transform="translate(-47.376 -215.893)" fill="#ffdebf"/>
        <path id="Path_1662" data-name="Path 1662" d="M68.9,234.556l.59,0c-.043.214-.043.5-.357.435C69.033,234.965,68.98,234.707,68.9,234.556Z" transform="translate(-38.683 -218.521)" fill="#ffdebf"/>
      </g>
    </g>
  </g>
</svg>
