<svg id="Group_254" data-name="Group 254" xmlns="http://www.w3.org/2000/svg" xmlns:xlink="http://www.w3.org/1999/xlink" width="54.068" height="62.916" viewBox="0 0 54.068 62.916">
  <defs>
    <clipPath id="clip-path">
      <rect id="Rectangle_111" data-name="Rectangle 111" width="54.068" height="62.916" fill="#fff"/>
    </clipPath>
  </defs>
  <g id="Group_253" data-name="Group 253" clip-path="url(#clip-path)">
    <path id="Path_373" data-name="Path 373" d="M13.555,445.265H2.372A2.372,2.372,0,0,0,0,447.637v5.814a.536.536,0,0,0,.537.537H15.39a.537.537,0,0,0,.537-.537v-5.814a2.372,2.372,0,0,0-2.372-2.372Z" transform="translate(0 -391.072)" fill="#fff"/>
    <path id="Path_374" data-name="Path 374" d="M306.983,68.381c-6.145-2.945-12.237-2.021-18.166-.468a3.971,3.971,0,0,1,.723,2.289V74.66c5.984-1.124,12.075-1.674,18.193.027v-5.1a1.326,1.326,0,0,0-.75-1.205Z" transform="translate(-253.665 -58.368)" fill="#fff"/>
    <path id="Path_375" data-name="Path 375" d="M294.757,148.2v4.645c5.971-1.326,12.076-2.169,18.193-.375v-4.163C306.926,146.419,300.942,147.008,294.757,148.2Z" transform="translate(-258.882 -129.189)" fill="#fff"/>
    <path id="Path_376" data-name="Path 376" d="M57.553,26.413a4.008,4.008,0,0,1-2.9,3.454c-4.418,1.258-9.01,2.557-13.829,2.557a22.347,22.347,0,0,1-8.126-1.486V28.073a19.787,19.787,0,0,0,8.126,1.674c4.431,0,8.822-1.245,13.106-2.463A1.333,1.333,0,0,0,54.9,26V11.835a1.357,1.357,0,0,0-.535-1.071,1.3,1.3,0,0,0-1.165-.214c-6.908,1.955-13.44,3.8-19.934.7a1.276,1.276,0,0,0-.576-.121V8.863h-.027a4.947,4.947,0,1,0-6.011,0V51.514h6.037V43.961a19.984,19.984,0,0,0,8.126,1.66c4.431,0,8.822-1.232,13.106-2.45,6.908-1.968,13.44-3.815,19.934-.709a1.356,1.356,0,0,0,1.3-.067,1.324,1.324,0,0,0,.616-1.138V35.3c-7.162-2.4-14.337-.643-21.888,1.218-4.94,1.2-9.974,2.437-15.06,2.437a26.7,26.7,0,0,1-6.132-.7V35.527c6.721,1.781,13.467.12,20.55-1.62,7.336-1.794,14.914-3.641,22.531-1.406V26.078c-6-1.994-11.994-1.1-18.22.335ZM48.731,15.971a1.345,1.345,0,1,1-1.352,1.352,1.345,1.345,0,0,1,1.352-1.352m0,4.685a1.345,1.345,0,1,1-1.352,1.352,1.345,1.345,0,0,1,1.352-1.352m-5.355-3.012A1.345,1.345,0,1,1,42.024,19a1.345,1.345,0,0,1,1.352-1.352m0,4.351a1.345,1.345,0,1,1-1.352,1.352A1.345,1.345,0,0,1,43.376,22M37.686,17.31a1.345,1.345,0,1,1-1.352,1.352,1.345,1.345,0,0,1,1.352-1.352m0,4.351a1.345,1.345,0,1,1-1.352,1.352,1.345,1.345,0,0,1,1.352-1.352" transform="translate(-21.706)" fill="#fff"/>
  </g>
</svg>
