<svg id="Group_252" data-name="Group 252" xmlns="http://www.w3.org/2000/svg" xmlns:xlink="http://www.w3.org/1999/xlink" width="53.234" height="66.98" viewBox="0 0 53.234 66.98">
  <defs>
    <clipPath id="clip-path">
      <rect id="Rectangle_110" data-name="Rectangle 110" width="53.233" height="66.98" fill="#fff"/>
    </clipPath>
  </defs>
  <g id="Group_252-2" data-name="Group 252" clip-path="url(#clip-path)">
    <path id="Path_370" data-name="Path 370" d="M81.46,15.562c.3-5.63,3.653-11.113,8.038-15a2.289,2.289,0,0,1,3.014,0c4.7,4.156,8.227,10.179,8.056,16.238a9.752,9.752,0,0,1-7.049,9.207.915.915,0,0,1-1.147-.891V14.811a1.373,1.373,0,0,0-2.746,0v10.3A.915.915,0,0,1,88.46,26a10.18,10.18,0,0,1-7-10.437Z" transform="translate(-64.393 0)" fill="#fff"/>
    <path id="Path_371" data-name="Path 371" d="M47.4,132.5a9.8,9.8,0,0,1-11.067,1.776,1.014,1.014,0,0,0-1.116.112,26.656,26.656,0,0,0-6.375,7.486,7.7,7.7,0,0,0-.859,3.645v9.556a1.373,1.373,0,0,1-2.746,0v-9.579a8.2,8.2,0,0,0-1.079-4.066,27.1,27.1,0,0,0-6.133-7.039,1.013,1.013,0,0,0-1.118-.114A9.8,9.8,0,0,1,5.836,132.5c-4.4-4.165-6.17-10.912-5.785-17.182a2.271,2.271,0,0,1,2.132-2.124c5.841-.366,12.093,1.144,16.286,4.916h0a10.327,10.327,0,0,1,3,11.095.5.5,0,0,1-.809.183,72.6,72.6,0,0,0-8.475-6.343,1.374,1.374,0,1,0-1.52,2.288,142.522,142.522,0,0,1,12.834,10.719,27.662,27.662,0,0,1,1.927,2.289,1.357,1.357,0,0,0,2.4,0c.053-.091,1.073-1.412,1.447-1.793a134.761,134.761,0,0,1,13.327-11.215,1.373,1.373,0,0,0-1.519-2.288,73.568,73.568,0,0,0-8.494,6.352.5.5,0,0,1-.809-.183,10.339,10.339,0,0,1,2.995-11.1c4.193-3.771,10.445-5.282,16.286-4.916h0a2.271,2.271,0,0,1,2.132,2.124c.385,6.271-1.382,13.017-5.785,17.182Z" transform="translate(0 -89.464)" fill="#fff"/>
  </g>
</svg>
