<svg id="Group_961" data-name="Group 961" xmlns="http://www.w3.org/2000/svg" xmlns:xlink="http://www.w3.org/1999/xlink" width="123.167" height="39.828" viewBox="0 0 123.167 39.828">
  <defs>
    <clipPath id="clip-path">
      <rect id="Rectangle_370" data-name="Rectangle 370" width="123.167" height="39.828" fill="none"/>
    </clipPath>
  </defs>
  <g id="Group_901" data-name="Group 901" clip-path="url(#clip-path)">
    <path id="Path_789" data-name="Path 789" d="M390.39,88.658c-.439-.057-.779-.087-1.018-.095s-.422-.011-.545-.011h-.679v7.53h.248c.494,0,.9-.011,1.233-.032a5.682,5.682,0,0,0,1.069-.182c.452-.113.776-.56.976-1.339a9.953,9.953,0,0,0,.3-2.446,5.728,5.728,0,0,0-.462-2.246c-.308-.73-.683-1.124-1.12-1.18" transform="translate(-298.616 -68.126)" fill="#004379"/>
    <path id="Path_790" data-name="Path 790" d="M301.647,82.424H305.2l-1.808-5.247Z" transform="translate(-232.068 -59.375)" fill="#004379"/>
    <path id="Path_791" data-name="Path 791" d="M389.938,63.85a1.444,1.444,0,0,0,1.15-1.044,7.238,7.238,0,0,0,.288-2.219,5.936,5.936,0,0,0-.38-2.1q-.38-1.013-.946-1.161a4.881,4.881,0,0,0-1.048-.17c-.322-.015-.605-.028-.853-.043V64c.261,0,.524,0,.793-.009a5.56,5.56,0,0,0,1-.14" transform="translate(-298.616 -43.937)" fill="#004379"/>
    <path id="Path_792" data-name="Path 792" d="M167.028,0H69.6V39.828H176.38a.333.333,0,0,0,.333-.333V9.685A9.685,9.685,0,0,0,167.028,0M96.987,13.152c-.178.013-.373.028-.586.042s-.509.053-.893.117a1.316,1.316,0,0,0-.874.492,2.075,2.075,0,0,0-.359,1.076L94.233,15.9V28.361H91.727L81.966,15.392h-.083v9.961l.042,1.023a1.913,1.913,0,0,0,.339,1.046,1.326,1.326,0,0,0,.844.437,8.37,8.37,0,0,0,.965.117c.267.015.448.028.545.044v.34H78.678v-.34c.18-.015.381-.029.6-.044s.611-.068,1.171-.161.878-.571.961-1.44l.042-1.023V15.648l-.042-.982a4.581,4.581,0,0,0-.641-.83,2.011,2.011,0,0,0-.817-.533,2.673,2.673,0,0,0-.859-.149h-.62V12.81h7.86l7.389,9.814H93.8V15.818l-.042-1.023a1.932,1.932,0,0,0-.339-1.035,1.292,1.292,0,0,0-.832-.448,8.891,8.891,0,0,0-.893-.117c-.227-.013-.435-.028-.628-.042V12.81h5.919ZM102.7,24.841H97.213V21.534H102.7Zm32.817,3.52h-9.763v-.34c.164,0,.312,0,.443-.012s.367-.04.709-.1a2.171,2.171,0,0,0,.74-.223.641.641,0,0,0,.225-.586,4.67,4.67,0,0,0-.287-1.345l-.74-2.26h-3.863l-.637,2.219a5.041,5.041,0,0,0-.206,1.214.838.838,0,0,0,.236.683,1.357,1.357,0,0,0,.607.267,4.953,4.953,0,0,0,.719.1c.233.015.46.028.68.044v.34H103.213v-.34c.11,0,.265,0,.463-.012s.5-.036.9-.085a1.419,1.419,0,0,0,.872-.352,1.541,1.541,0,0,0,.329-.938l.042-.982V15.519l-.042-.98a1.811,1.811,0,0,0-.276-.95,1,1,0,0,0-.668-.331c-.3-.042-.564-.066-.781-.074s-.418-.019-.6-.032V12.81h9.946v.342l-1.356.064a1.271,1.271,0,0,0-.844.32,1.726,1.726,0,0,0-.288.959l-.042.982V27.933l1.768-.062A3.589,3.589,0,0,0,115.1,26.7a13.324,13.324,0,0,0,2.158-2.709,28.676,28.676,0,0,0,1.7-3.242h.329v7.224l.5-.036a2.128,2.128,0,0,0,1.033-.352,1.655,1.655,0,0,0,.528-.671q.176-.406.392-.959c.146-.371.267-.7.363-1l3.925-12.2h2.26l4.336,12.2.637,1.663a2.983,2.983,0,0,0,.585.95,1.488,1.488,0,0,0,.832.373l.844.087Zm16.192-1.894a3.711,3.711,0,0,1-1.521,1.33,5.924,5.924,0,0,1-2.26.5q-1.336.065-2.321.064l-10.05-.021V28h.637c.287-.042.57-.081.844-.117a1,1,0,0,0,.647-.32,1.667,1.667,0,0,0,.3-.948l.042-.98v-10.1l-.042-.98a1.679,1.679,0,0,0-.308-.959,1.106,1.106,0,0,0-.689-.34,7.472,7.472,0,0,0-.8-.074c-.24-.008-.456-.019-.649-.032V12.81l9.494-.021a23.436,23.436,0,0,1,3.021.149,4.082,4.082,0,0,1,1.82.662,3.53,3.53,0,0,1,1.551,3.07,2.668,2.668,0,0,1-.874,2.24,4.787,4.787,0,0,1-1.746.908,8.782,8.782,0,0,1-2.147.223v.17a15.928,15.928,0,0,1,2.249.117,6.227,6.227,0,0,1,1.5.437,3.039,3.039,0,0,1,1.326,1.2,4.079,4.079,0,0,1,.575,2.266,3.94,3.94,0,0,1-.6,2.234m13.529.794a5.9,5.9,0,0,1-3.736,1.354,6.214,6.214,0,0,1-3.5-1.162,8.37,8.37,0,0,0-2-1.163.773.773,0,0,0-.843.534,11.086,11.086,0,0,0-.31,1.791h-.348V20.98h.348c.083.3.223.791.422,1.472a11.756,11.756,0,0,0,1.11,2.444,7.268,7.268,0,0,0,2.138,2.357,5.175,5.175,0,0,0,3.072.938,2.421,2.421,0,0,0,1.644-.554,1.706,1.706,0,0,0,.637-1.324,2.109,2.109,0,0,0-.473-1.449,4.633,4.633,0,0,0-1.706-1.035q-1.234-.5-2.61-1.078a19.437,19.437,0,0,1-2.917-1.557q-1.54-.959-1.542-3.626a4.571,4.571,0,0,1,1.623-3.541,5.447,5.447,0,0,1,3.74-1.451,4.895,4.895,0,0,1,2.281.577l2.138,1.237a.748.748,0,0,0,.781-.524,3.9,3.9,0,0,0,.186-1.29h.39V18.23H165.4q-.1-.363-.42-1.237a6.8,6.8,0,0,0-1.229-1.963,6.43,6.43,0,0,0-1.8-1.568,4.47,4.47,0,0,0-2.141-.479,2.632,2.632,0,0,0-1.559.511,1.525,1.525,0,0,0-.717,1.281,1.838,1.838,0,0,0,.545,1.354,4.181,4.181,0,0,0,1.253.864q.709.318,1.964.81c.834.327,1.7.707,2.6,1.141a5.634,5.634,0,0,1,2.21,1.9,5.066,5.066,0,0,1,.862,2.955,4.221,4.221,0,0,1-1.719,3.465" transform="translate(-53.547)" fill="#004379"/>
    <path id="Path_793" data-name="Path 793" d="M20.2,46.258A.931.931,0,0,0,20.875,46a.941.941,0,0,0,.262-.708.929.929,0,0,0-.262-.707.942.942,0,0,0-.677-.25.964.964,0,0,0-.705.25.948.948,0,0,0-.254.707.882.882,0,0,0,.959.962" transform="translate(-14.801 -34.112)" fill="#9f0d1d"/>
    <path id="Path_794" data-name="Path 794" d="M20.2,98.039a.931.931,0,0,0,.677-.255.94.94,0,0,0,.262-.707.928.928,0,0,0-.262-.707.942.942,0,0,0-.677-.25.965.965,0,0,0-.705.25.947.947,0,0,0-.254.707.882.882,0,0,0,.959.962" transform="translate(-14.801 -73.949)" fill="#9f0d1d"/>
    <path id="Path_795" data-name="Path 795" d="M0,39.828H14.3V0H0ZM10.871,29.5H5.628v1.788H4.611a6.617,6.617,0,0,0-.095-.988,1.386,1.386,0,0,0-.4-.732,1.3,1.3,0,0,0-.545-.293,1.233,1.233,0,0,0-.3-.058V27.966h7.6ZM9.463,16.4a1.608,1.608,0,0,0-.983-.29,1.707,1.707,0,0,0-.983.272.952.952,0,0,0-.4.848,1.457,1.457,0,0,0,.069.471.934.934,0,0,0,.467.528l-.063,1.34-4.2-.534V14.847H4.637v3.1l1.661.272a3.094,3.094,0,0,1-.3-.54,2.268,2.268,0,0,1-.121-.79A2.295,2.295,0,0,1,8.36,14.548a2.894,2.894,0,0,1,1.882.676,2.455,2.455,0,0,1,.829,2.021,2.685,2.685,0,0,1-.582,1.781,2.265,2.265,0,0,1-1.652.775V18.313a1.446,1.446,0,0,0,.753-.34.962.962,0,0,0,.265-.732.989.989,0,0,0-.391-.845M3.817,9.421A1.863,1.863,0,0,1,5.229,8.8a2.238,2.238,0,0,1,.8.165,1.527,1.527,0,0,1,.741.716A2.117,2.117,0,0,1,7.6,8.829a2.373,2.373,0,0,1,1.159-.284,2.167,2.167,0,0,1,1.634.711,2.776,2.776,0,0,1,.674,1.986,2.579,2.579,0,0,1-.674,1.932,2.254,2.254,0,0,1-1.634.656A2.341,2.341,0,0,1,7.6,13.54a1.836,1.836,0,0,1-.781-.847,1.781,1.781,0,0,1-.794.719,2.225,2.225,0,0,1-.8.166,1.861,1.861,0,0,1-1.413-.626,2.485,2.485,0,0,1-.585-1.766,2.488,2.488,0,0,1,.585-1.765m0,11.944a1.863,1.863,0,0,1,1.413-.625,2.238,2.238,0,0,1,.8.165,1.528,1.528,0,0,1,.741.716,2.118,2.118,0,0,1,.834-.848,2.373,2.373,0,0,1,1.159-.285A2.168,2.168,0,0,1,10.4,21.2a2.777,2.777,0,0,1,.674,1.987,2.579,2.579,0,0,1-.674,1.932,2.254,2.254,0,0,1-1.634.656A2.338,2.338,0,0,1,7.6,25.484a1.835,1.835,0,0,1-.781-.847,1.781,1.781,0,0,1-.794.719,2.22,2.22,0,0,1-.8.166A1.862,1.862,0,0,1,3.817,24.9a2.486,2.486,0,0,1-.585-1.766,2.488,2.488,0,0,1,.585-1.766" fill="#9f0d1d"/>
    <path id="Path_796" data-name="Path 796" d="M33.606,97.7a1.222,1.222,0,0,0,.871-.291,1.2,1.2,0,0,0,0-1.61,1.457,1.457,0,0,0-1.754,0,1.211,1.211,0,0,0,0,1.6,1.212,1.212,0,0,0,.883.3" transform="translate(-24.943 -73.476)" fill="#9f0d1d"/>
    <path id="Path_797" data-name="Path 797" d="M33.606,45.916a1.223,1.223,0,0,0,.871-.291,1.2,1.2,0,0,0,0-1.61,1.457,1.457,0,0,0-1.754,0,1.211,1.211,0,0,0,0,1.6,1.213,1.213,0,0,0,.883.3" transform="translate(-24.943 -33.638)" fill="#9f0d1d"/>
  </g>
</svg>
