<?xml version="1.0" encoding="UTF-8"?><svg id="b" xmlns="http://www.w3.org/2000/svg" viewBox="0 0 303 303"><defs><style>.d,.e{fill:#fff;}.e{stroke:#005b99;stroke-miterlimit:10;stroke-width:6px;}.f{fill:#005b99;}</style></defs><g id="c"><circle class="e" cx="151.5" cy="151.5" r="148.5"/><path class="f" d="m29.71,138.74c8.56-.37,14.31,4.62,14.67,12.98.36,8.4-4.95,13.86-13.51,14.22-8.59.37-14.31-4.62-14.67-13.02-.36-8.36,4.91-13.81,13.51-14.18Zm.27,6.36c-6.08.26-9.42,3.15-9.23,7.63.19,4.51,3.76,7.11,9.85,6.85,6.04-.26,9.42-3.16,9.23-7.67-.19-4.47-3.8-7.07-9.85-6.81Z"/><path class="f" d="m47.41,119.15l-21.27,6.08c2.84.44,5.57,1.01,7.49,1.45l11.5,2.59-1.36,6.02-26.45-5.96,1.74-7.71,21.87-6.27c-2.79-.47-5.79-1.1-7.75-1.54l-11.77-2.65,1.35-5.98,26.45,5.96-1.8,8.01Z"/><path class="f" d="m60.08,89.36l-9,17.99-24.25-12.13,8.82-17.64,4.29,2.14-6.06,12.12,5.66,2.83,5.66-11.32,4.29,2.14-5.66,11.32,5.69,2.85,6.24-12.48,4.32,2.16Z"/><path class="f" d="m53.58,82.95l-2.74-1.97,5.51-7.65,2.74,1.97-5.51,7.65Z"/><path class="f" d="m61.86,53.18l15.82,15.75-4.33,4.34-15.82-15.75-6.38,6.4-3.4-3.38,17.08-17.15,3.4,3.38-6.38,6.4Z"/><path class="f" d="m86.08,61.84l-15.95-21.92,4.99-3.63,15.95,21.92-4.99,3.63Z"/><path class="f" d="m121.67,42.77l-5.63,2.52-4.91-10.97c-1.08-2.4-2.54-5.67-3.6-8.24.64,2.77,1.27,6.4,1.62,9.09l1.81,12.4-5.95,2.67-8.12-9.58c-1.74-2.06-4.01-4.92-5.62-7.26,1.21,2.51,2.66,5.74,3.73,8.14l4.91,10.97-5.63,2.52-11.08-24.74,8.82-3.95,13.67,17.17-3.7-21.63,8.61-3.85,11.08,24.74Z"/><path class="f" d="m145.7,39.33l-19.88,3.12-4.2-26.78,19.49-3.06.74,4.74-13.39,2.1.98,6.25,12.5-1.96.74,4.74-12.5,1.96.99,6.29,13.78-2.16.75,4.77Z"/><path class="f" d="m179.1,23.68c-.63,5.11-4.4,7.46-8.36,7.44-1.38-.01-2.44-.1-4.04-.3l-3.59-.44-1.21,9.83-6.12-.75,3.32-26.91,9.71,1.2c1.6.2,2.65.37,3.99.69,3.96.96,6.93,4.14,6.3,9.25Zm-6.4-.79c.28-2.3-.79-3.58-2.59-4.04-.54-.14-1.28-.24-2.14-.34l-3.35-.41-.92,7.49,3.35.41c.86.11,1.6.2,2.16.19,1.86,0,3.21-.99,3.49-3.29Z"/><path class="f" d="m204.19,39.88c-.44,1.18-.71,1.92-1.31,3.2-1.88,4.17-6.24,6.78-13.68,4.03-7.44-2.75-9.05-7.58-7.8-11.98.42-1.35.69-2.09,1.12-3.27l5.44-14.7,5.75,2.12-5.75,15.55c-.26.7-.44,1.18-.59,1.71-.8,2.85.24,5.12,3.41,6.29s5.44.13,6.65-2.57c.26-.49.44-.97.7-1.67l5.75-15.55,5.75,2.12-5.44,14.7Z"/><path class="f" d="m221.92,64.98l-5.58-3.74c.5-1.94,1.07-3.49,2.14-5.52,1.35-2.64,1.37-4.71-.24-5.98-.6-.45-1.15-.82-1.77-1.24l-2.02-1.36-5.93,8.84-5.12-3.44,15.11-22.51,8.55,5.74c1.34.9,2.2,1.52,3.28,2.44,3,2.58,4.61,6.03,1.96,9.98-1.93,2.87-4.81,3.63-8.19,2.55,1.71,2.38,1.39,4.77-.1,7.55-1.48,2.84-2.12,4.78-2.08,6.69Zm-2.31-19.82c.72.48,1.27.85,1.75,1.13,1.77.95,3.66,1.18,5.04-.88,1.38-2.06.61-3.52-.92-4.83-.43-.34-.97-.74-1.69-1.23l-2.84-1.91-3.99,5.94,2.64,1.77Z"/><path class="f" d="m253.23,71.98l-.26.29-4.17-4.55.24-.32c1.89-2.59,1.84-5.15-.37-7.55-2.66-2.9-7-2.7-11.43,1.37-5.01,4.59-5.16,8.79-2.67,11.51,2.15,2.35,4.87,2.46,7.67.75l.34-.21,4.17,4.55-.32.24c-4.94,3.68-10.74,2.65-15.38-2.42-5.02-5.47-5-12.95,1.55-18.95,6.72-6.16,14.44-5.35,19.49.15,5.07,5.53,4.72,11.13,1.15,15.15Z"/><path class="f" d="m252.66,108.22l-2.87-5.42,9.62-5.1-5.56-10.48-9.62,5.1-2.89-5.45,23.95-12.7,2.89,5.45-10.07,5.34,5.56,10.48,10.07-5.34,2.87,5.42-23.95,12.7Z"/><path class="f" d="m262.74,116.38l-8.04-.65-1.54-6.38,28.65,3.15,1.79,7.41-24.09,15.75-1.57-6.49,6.87-4.2-2.07-8.59Zm5.06.36l1.36,5.61,8.34-4.96-9.7-.65Z"/><path class="f" d="m278.39,156.1l-.11-6.21c2.51-.36,4.09-1.8,4.05-4.39-.03-1.92-.96-3.28-2.92-3.25-2.04.04-3.12,1.43-4.06,5.81-1.31,5.99-4.1,8.63-8.38,8.71-5.26.09-8.17-4.77-8.27-10.19-.11-6.64,2.64-11.08,8.48-11.66l.11,6.21c-2.78.6-4.08,2.78-4.04,5.25.04,2.24,1.25,3.99,3.09,3.95,1.89-.03,3.16-1.31,3.96-5.02,1.35-5.84,3.22-9.41,8.4-9.49,5.07-.09,8.09,4.54,8.18,9.8.12,6.76-3.6,9.8-8.5,10.48Z"/><path class="f" d="m255.03,179.51l3.91-19.73,26.59,5.26-3.83,19.35-4.7-.93,2.63-13.3-6.21-1.23-2.46,12.41-4.7-.93,2.46-12.41-6.24-1.24-2.71,13.68-4.74-.94Z"/><circle class="f" cx="151.5" cy="151.5" r="101.25"/><path class="d" d="m221.18,114.14c-7.21-7.22-17.22-11.7-28.24-11.7-11.01,0-21.02,4.48-28.24,11.7-7.22,7.21-11.7,17.22-11.7,28.24,0,11.01,4.48,21.02,11.7,28.24,7.21,7.22,17.22,11.7,28.24,11.7,11.01,0,21.02-4.48,28.24-11.7,7.22-7.21,11.7-17.22,11.7-28.24,0-11.01-4.48-21.02-11.7-28.24Zm-6.35,50.12c-5.12,5.11-11.98,8.43-19.64,8.98v-3.2c0-1.24-1.01-2.25-2.25-2.25s-2.25,1.01-2.25,2.25v3.2c-7.66-.55-14.52-3.86-19.64-8.98-5.11-5.12-8.43-11.98-8.98-19.64h3.2c1.24,0,2.25-1.01,2.25-2.25s-1.01-2.25-2.25-2.25h-3.2c.55-7.66,3.86-14.52,8.98-19.64,5.12-5.11,11.98-8.43,19.64-8.98v3.13c0,1.24,1.01,2.25,2.25,2.25s2.25-1.01,2.25-2.25v-3.13c7.66.55,14.52,3.86,19.64,8.98,5.11,5.12,8.43,11.98,8.98,19.64h-3.13c-1.24,0-2.25,1.01-2.25,2.25s1.01,2.25,2.25,2.25h3.13c-.55,7.66-3.86,14.52-8.98,19.64Z"/><path class="d" d="m192.84,124.58l-3.91,21.17c-.45,2.44,1.42,4.7,3.91,4.7h0c2.48,0,4.36-2.25,3.91-4.7l-3.91-21.17Z"/><path class="d" d="m70.13,123.73c1.25-2.87,3.44-3.86,6.53-3.75,4.83.17,9.67.04,14.5.05,3.74,0,5.21,1.13,6.14,4.7,1.05,4.02,2.16,8.03,3.14,12.07.29,1.18.81,1.48,1.99,1.47,13.88-.05,27.77-.03,41.65-.03.61,0,1.21,0,1.72,0-.28,27.34,12.82,44.11,39.18,50.86-.19,3.27-1.66,4.8-5.5,5.45,1.92,8.41.02,14.45-5.83,18.44-5.29,3.62-12.25,3.63-17.55.03-5.87-3.99-7.83-10.13-5.87-18.51h-11.42c2.26,8.1.33,14.85-7.11,19.19-5.66,3.3-11.48,2.75-16.81-1.09-5.54-3.99-7.16-9.69-5.34-18.12-3.31-.09-4.81-2-5.6-5.08-4.94-19.24-10.01-38.45-14.96-57.69-.38-1.49-.99-1.91-2.46-1.85-3.29.11-6.59-.1-9.87.08-3.09.17-5.28-.87-6.53-3.74v-2.47Zm53.97,82.11c3.15.03,5.7-2.43,5.78-5.57.08-3.15-2.54-5.84-5.7-5.84-3.12,0-5.65,2.53-5.67,5.68-.02,3.17,2.45,5.7,5.59,5.73Zm46.43-5.75c-.04-3.14-2.59-5.68-5.7-5.66-3.17.02-5.74,2.67-5.66,5.86.08,3.15,2.62,5.59,5.78,5.55,3.13-.04,5.62-2.6,5.58-5.75Z"/><polygon class="f" points="151.5 260.5 155.9 269.4 165.72 270.83 158.61 277.76 160.29 287.55 151.5 282.93 142.71 287.55 144.39 277.76 137.28 270.83 147.1 269.4 151.5 260.5"/><polygon class="f" points="186.5 255.41 190.9 264.32 200.72 265.75 193.61 272.68 195.29 282.47 186.5 277.85 177.71 282.47 179.39 272.68 172.28 265.75 182.1 264.32 186.5 255.41"/><polygon class="f" points="116.5 255.41 120.9 264.32 130.72 265.75 123.61 272.68 125.29 282.47 116.5 277.85 107.71 282.47 109.39 272.68 102.28 265.75 112.1 264.32 116.5 255.41"/></g></svg>