<?xml version="1.0" encoding="utf-8"?>
<!-- Generator: Adobe Illustrator 27.3.1, SVG Export Plug-In . SVG Version: 6.00 Build 0)  -->
<svg version="1.1" id="Layer_1" xmlns="http://www.w3.org/2000/svg" xmlns:xlink="http://www.w3.org/1999/xlink" x="0px" y="0px"
	 viewBox="0 0 170.2 150.2" style="enable-background:new 0 0 170.2 150.2;" xml:space="preserve">
<style type="text/css">
	.st0{fill:#F2F2F2;}
	.st1{fill:#FFCAC0;}
	.st2{fill:#E5837C;}
	.st3{fill:#79D60D;}
	.st4{fill:#3CC602;}
	.st5{fill:#E6E6E6;}
	.st6{fill:#F1F1F2;}
	.st7{fill:#63C5FE;}
	.st8{fill:#9FD8FF;}
	.st9{fill:#CFEBFF;}
</style>
<g id="Group_1241_00000071545343951195919570000008620044627602952873_" transform="translate(-85.113 -75)">
	<g transform="matrix(1, 0, 0, 1, 0, -0.22)">
		
			<image style="overflow:visible;opacity:0.75;" width="157" height="157" xlink:href="CF9215AD.png"  transform="matrix(1 0 0 1 92.113 71.42)">
		</image>
		<g>
			<g>
				<circle id="Ellipse_178-2_00000149352459074571674180000012868756913146775981_" class="st0" cx="168.7" cy="148.2" r="71.8"/>
			</g>
		</g>
	</g>
	<g id="Group_1239_00000070818362987745056450000010297789519686349743_" transform="translate(12.048 12.037)">
		<path id="Path_1583_00000172422184991038807370000006575773010809694357_" class="st1" d="M202.4,124.6c0.5,2.8,1,5.8,1.5,8.6
			c1.4,9.3,2.9,18.5,4.3,27.9c1.6,10.8,2.9,21.6,4,32.5c0.2,0.9-0.3,1.7-1,2.2c-7.1,5.3-15.2,9.3-23.7,11.8c-3.1,1-2.5,1.2-3.2-1.9
			c-2.2-8.6-4.4-17.3-8.6-25.2c-2.7-5.1-5.6-10.2-7.9-15.5c-2.8-6.8-5.2-13.7-5.4-21.1c-0.1-2.6,0.1-5.1,0.4-7.7
			c0.3-2.8,0.4-5.5,0.5-8.3c0.7-3.9-1.4-7.4-4.9-7.5c-1.9-0.1-3.8-0.3-5.7-0.3c-8.9-0.2-17.9,0.3-26.7,1.6
			c-8.7,1.1-17.6,0.9-26.3-0.5c-4.1-0.6-8.3-1.4-12.4-2.1c3-18,12.1-34.3,26-46.3c2.6-2.2,5.4-4.3,8.1-6.2c0.7-0.6,1.7-0.7,2.4-0.4
			c3.9,1.3,7.8,2.4,11.8,3.6c5,1.5,9.8,3.1,14.7,4.8c4,1.3,7.8,2.9,11.8,4.2c7.4,2.6,14.3,6.7,21.7,9.2
			c10.1,3.4,18.2,16.3,18.2,27.3c-2.8,1.4-6.1,1.1-8.6-0.7c-2.8-1.9-5.2-4.5-6.7-7.6c-0.4-0.7-0.8-1.5-1.8-1.1c-1,0.3-1,1.1-0.9,2
			c0.2,3.1,1.2,6.1,2.9,8.7C190.4,121.8,195.8,124.3,202.4,124.6z"/>
		<path id="Path_1584_00000036933244092588193790000015631856592229578382_" class="st2" d="M87.2,119c4.1,0.7,8.3,1.5,12.4,2.1
			c8.7,1.4,17.6,1.5,26.3,0.5c8.8-1.3,17.7-1.7,26.7-1.6c1.9,0.1,3.8,0.3,5.7,0.3c3.5,0.1,5.7,3.6,4.9,7.5c-1.5-0.4-2.9-0.2-4.5-0.8
			c-1.2-0.5-2.5-0.4-3.7,0c-1,0.3-2,0.4-3,0.2c-5.2,0.1-10.1,1.4-15.1,2c-5.5,0.7-11,1.6-16.5,2.3c-5.6,0.7-11.2,1.5-16.8,1.9
			c-4.1,0.2-8.3,0.6-12.4,0.4c-1.4-0.1-2.8,0.1-4.2,0c-0.5,0-0.9,0.2-1-0.6c0-1.2-0.9-2.4,0.1-3.5c0.2-0.3,0.3-0.6,0.3-0.9
			C85.2,125.5,87,122.3,87.2,119z"/>
		<path id="Path_1585_00000172424643734175768090000014038581743823205790_" class="st2" d="M202.4,124.6c-6.5-0.2-12-2.8-15.6-8.4
			c-1.7-2.6-2.6-5.6-2.9-8.7c-0.1-0.9-0.1-1.7,0.9-2c0.9-0.3,1.4,0.5,1.8,1.1c1.6,3.1,3.8,5.7,6.7,7.6c2.5,1.8,5.8,2.2,8.6,0.7
			c0.7,1.9-0.2,3.7,0.1,5.7C202.2,122,202.2,123.3,202.4,124.6z"/>
	</g>
	<g id="Group_1240_00000141422802047924936240000015904350535260501163_" transform="translate(0 43.541)">
		<path id="Path_1586_00000008140883996918756130000004294474621607422099_" class="st3" d="M128.5,159.2c-3.6-1.5-6.9-3.5-10.2-5.6
			c-3.9-2.5-7.4-5.6-10.6-9c-3.3-3.6-6.1-7.5-8.5-11.8c-1.2-2-2-4.3-3.1-6.4c-1.3-3.3-2.4-6.6-3.2-10.1c-0.4-2-0.7-4.1-0.9-6.2
			c-0.7-7.7-0.1-15.6-0.3-23.3c0-0.6,0.2-0.6,0.7-0.6c2.6,0,5.3,0,8,0c1.9-0.1,3.9-0.3,5.8-0.6c2.6-0.5,5.3-1.2,7.8-2.1
			c4.2-1.5,8.1-3.8,11.6-6.4c0.9-0.7,1.8-1.4,2.6-2.1c0.1-0.1,0.3-0.2,0.4,0c-0.2,0.2-0.2,0.4-0.2,0.7c0,8.8,0,17.6,0,26.4v0.1
			c-1.6,0-3.2,0-4.8,0c-0.6,0-0.7,0.2-0.7,0.7c0,2.5,0,5.2,0,7.7c0,0.5-0.1,0.7-0.7,0.7c-2.4,0-4.9,0-7.3,0c-1.1,0-1.1,0-1.1,1.1
			c0,3.1,0,6,0,9c0,0.6,0.2,0.8,0.8,0.8c2.4,0,5,0,7.4,0c0.8,0,1,0.2,0.9,1c0,2.5,0,5,0,7.5c0,0.5,0.1,0.7,0.7,0.7
			c1.6,0,3.2,0,4.8,0v0.1v27.9L128.5,159.2z"/>
		<path id="Path_1587_00000110451292753384603840000001910077177157928120_" class="st4" d="M128.7,101.9c0-8.8,0-17.6,0-26.4
			c0-0.2-0.1-0.5,0.2-0.7c3.3,2.8,6.9,5.3,10.9,7.1c3.6,1.6,7.3,2.8,11.3,3.6c4.4,0.8,8.8,0.6,13.2,0.6c1.3,0,1.3,0,1.3,1.3
			c0,5.4,0.1,10.8,0,16.2c0,3.1-0.2,6.1-0.6,9.2c-0.6,3.8-1.5,7.5-2.8,11.1c-2.9,8.4-7.8,16.1-14.2,22.5c-3.5,3.5-7.4,6.5-11.7,9
			c-1.8,1.1-3.9,2-5.7,3.1c-0.3,0.2-0.9,0.2-0.9,0.8h-0.8c0-9.3,0-18.6,0-27.9c1.6,0,3.2,0,4.8,0c0.5,0,0.7-0.2,0.7-0.7
			c0-2.5,0-5.2,0-7.7c0-0.6,0.2-0.8,0.8-0.8c2.5,0,5.2,0,7.7,0c0.5,0,0.7-0.1,0.7-0.7c0-1.2,0-2.4,0-3.7c0-1.8,0-3.8,0-5.6
			c0-0.7-0.2-1-1-1c-2.4,0.1-4.9,0-7.2,0c-0.7,0-1-0.1-0.9-0.9c0.1-2.4,0-4.9,0-7.2c0-0.8-0.1-1.1-1-1
			C131.7,102,130.2,101.9,128.7,101.9z"/>
		<path id="Path_1588_00000175320363949427854820000012074965685398289050_" class="st5" d="M128.7,101.9c1.5,0,2.9,0.1,4.5,0
			c0.9,0,1,0.3,1,1c-0.1,2.4,0,4.9,0,7.2c0,0.8,0.2,0.9,0.9,0.9c2.4,0,4.9,0,7.2,0c0.8,0,1,0.3,1,1c0,1.8,0,3.8,0,5.6
			c0,1.2,0,2.4,0,3.7c0,0.5-0.2,0.7-0.7,0.7c-2.5,0-5.2,0-7.7,0c-0.6,0-0.8,0.1-0.8,0.8c0,2.5,0,5.2,0,7.7c0,0.5-0.1,0.7-0.7,0.7
			c-1.6,0-3.2,0-4.8,0v-0.1c0-9.8,0-19.4,0-29.2C128.7,102,128.7,102,128.7,101.9z"/>
		<path id="Path_1589_00000144333618744751617570000005065291021539160968_" class="st6" d="M128.7,102c0,9.8,0,19.4,0,29.2
			c-1.6,0-3.2,0-4.8,0c-0.5,0-0.7-0.1-0.7-0.7c0-2.5,0-5,0-7.5c0-0.8-0.1-1-0.9-1c-2.4,0.1-5,0-7.4,0c-0.6,0-0.8-0.1-0.8-0.8
			c0-3.1,0-6,0-9c0-1.1,0-1.1,1.1-1.1c2.4,0,4.9,0,7.3,0c0.5,0,0.7-0.1,0.7-0.7c0-2.5,0-5.2,0-7.7c0-0.5,0.1-0.7,0.7-0.7
			C125.6,102.1,127.1,102,128.7,102z"/>
	</g>
	<path id="Path_1590_00000040562940083275388520000014048576844554292363_" class="st7" d="M206.7,112.2c-2.4-1.4-5.1-2.6-7.8-3.6
		c0.2-0.5,0.6-0.8,1.2-0.8c7-0.5,10.5-4.6,12-10.3c0.5-1.8,0.9-3.7,1.3-5.6h0.4c0.5,4.2,1.5,8.1,4.2,11.5c2.2,2.8,5.5,4.2,9,4.7
		c0.3,0,0.6,0.1,0.9,0.1c0.1,0,0.1,0.1,0.2,0.3c-0.9,0.6-1.9,1-3.1,1.3c-2,0.8-3.9,1.8-5.6,3.1c-1.3,1-2.2,2.3-2.7,4
		c-0.9,2.3-1.6,4.7-2.1,7c-0.2,1-0.4,2.1-0.6,3.2c-0.1,0.4-0.1,1-0.6,1s-0.4-0.5-0.5-0.9c-0.3-1.5-0.5-3.2-0.9-4.7
		c-0.8-3.1-1.6-6.2-3.7-8.8c-0.4-0.5-1.2-0.7-1.5-1.3C207,112.2,206.9,112.2,206.7,112.2z"/>
	<path id="Path_1591_00000082365855862213156200000007628222725895717763_" class="st8" d="M224.4,98.3c6-0.4,7.3-4.6,8-9.8
		c0.6,2.5,0.8,4.8,2,6.7c1.3,2.1,3.6,2.6,5.7,3.3c-0.1,0.3-0.3,0.5-0.7,0.5c-3.7,1-5.6,3.6-6.1,7.3c-0.2,1.1-0.5,2.2-1,3.4
		c-0.3-1.2-0.7-2.3-0.8-3.6c-0.3-3.4-2.7-6.2-6-7c-0.3-0.1-0.6-0.2-0.8-0.3C224.6,98.6,224.6,98.5,224.4,98.3z"/>
	<path id="Path_1592_00000175321847501670250640000012078546811293002625_" class="st9" d="M201.8,84.2c0.7-1.4,1.3-2.9,1.6-4.5h0.5
		c0.1,0.5,0.3,0.9,0.4,1.4c0.9,3.6,3.3,5.3,6.7,5.6c0,0.5-0.5,0.4-0.8,0.5c-3.6,0.9-5.3,3.5-5.8,6.9c-0.1,0.9-0.5,1.8-0.7,3.1
		c-0.9-2.5-1-5-2.2-7.1c-0.2-0.4-0.6-0.8-1-1c-1.1-1.1-2.7-1.3-4.3-2.2c2-0.1,3.9-0.9,5.4-2.2L201.8,84.2z"/>
	<path id="Path_1593_00000098899293008966610600000007670684160565548200_" class="st9" d="M232.5,123.1c1,0.7,2.1,1.2,3.4,1.3
		c-4.5,0.7-5.2,4.3-5.8,7.8c-0.7-1.7-0.8-3.6-1.6-5.1c-0.9-1.7-2.6-2-4.4-2.8c4.2-0.2,5.2-3.2,5.8-6.7c0.6,1.7,0.6,3.5,1.7,4.8
		C231.9,122.6,232.2,123,232.5,123.1z"/>
</g>
</svg>
