<?xml version="1.0" encoding="utf-8"?>
<!-- Generator: Adobe Illustrator 27.3.1, SVG Export Plug-In . SVG Version: 6.00 Build 0)  -->
<svg version="1.1" id="Layer_1" xmlns="http://www.w3.org/2000/svg" xmlns:xlink="http://www.w3.org/1999/xlink" x="0px" y="0px"
	 viewBox="0 0 433 110" style="enable-background:new 0 0 433 110;" xml:space="preserve">
<style type="text/css">
	.st0{fill:#039E2C;}
	.st1{enable-background:new    ;}
	.st2{fill:#F5F5F5;}
	.st3{fill:url(#Ellipse_136_00000026161227335887829250000011885564236833476502_);}
	.st4{fill-rule:evenodd;clip-rule:evenodd;fill:#FFFFFF;}
</style>
<g id="Group_1126" transform="translate(-1417 -3860)">
	<g transform="matrix(1, 0, 0, 1, 1417, 3860)">
		<path id="Rectangle_403-2" class="st0" d="M39,25h355c16.6,0,30,13.4,30,30l0,0c0,16.6-13.4,30-30,30H39C22.4,85,9,71.6,9,55l0,0
			C9,38.4,22.4,25,39,25z"/>
	</g>
	<g class="st1">
		<path class="st2" d="M1560.9,3920.9l-2.3,7.1h-5l8.5-23.5h5.9l8.3,23.5h-5.1l-2.3-7.1H1560.9z M1562,3917.2h5.5l-2.7-8.7
			L1562,3917.2z"/>
		<path class="st2" d="M1583,3909.2v0.9h3.7v3.1h-3.7v14.9h-4.7v-14.9h-1.9v-3.1h1.9v-0.7c0-0.6,0-1.5,0.1-2.1
			c0.3-3.1,2.3-4.9,6.6-4.9c0.7,0,1.5,0.1,2.1,0.2v3.3c-2.2-0.4-3.8,0.2-3.9,1.7C1583,3908.1,1583,3908.7,1583,3909.2z"/>
		<path class="st2" d="M1594.5,3921.5c0,0.6,0,1.1,0,1.6c0.1,1.8,0.8,2.2,3.4,2v3.1c-1.1,0.2-2,0.2-3.1,0.2c-3.5,0-4.8-1.2-5-3.7
			c-0.1-0.8-0.1-1.6-0.1-2.6v-8.9h-2.7v-3.1h2.7v-4.5h4.7v4.5h3.7v3.1h-3.7V3921.5z"/>
		<path class="st2" d="M1616.9,3920.2h-12.9c0.3,3.8,2,5,4.2,5c2,0,3.5-1.1,3.8-3.1h4.7c-0.9,4.2-4.3,6.4-8.6,6.4
			c-5,0-8.8-3.1-8.8-9.5c0-5.5,3.6-9.6,9.2-9.6s8.5,4.2,8.5,9.1C1617,3919,1617,3919.6,1616.9,3920.2z M1604.2,3917.1h8
			c-0.3-2.9-1.6-4.4-3.8-4.4C1606.1,3912.7,1604.6,3914.1,1604.2,3917.1z"/>
		<path class="st2" d="M1630.4,3909.6v3.8c-3.9-0.3-5.8,1.5-5.8,6.3v8.3h-4.7v-18.1h4.7v3.3l1.4-2.5c0.9-0.8,2.1-1.2,3.1-1.2
			C1629.6,3909.5,1630,3909.5,1630.4,3909.6z"/>
		<path class="st2" d="M1652.3,3928h-4.7v-18.5l-6.8,3.8v-4.4l5.4-3.2c1.3-0.7,2.5-1.1,3.8-1.1h2.3V3928z"/>
		<path class="st2" d="M1677.1,3919.9c0,5.4-4.1,8.6-8.9,8.6c-5.9,0-9-3.5-9-11.5c0-8.7,4.1-13,9.7-13c4.7,0,7.5,2.5,8,6.6l0,0.3
			h-4.8l-0.1-0.3c-0.5-2.1-1.6-3.1-3.5-3.1c-2.7,0-4.4,2.4-4.6,8.2l1.2-2.1c1.3-1,2.5-1.4,4.2-1.4
			C1674.5,3912.2,1677.1,3915.6,1677.1,3919.9z M1672.1,3920.5c0-2.8-1.3-4.8-4-4.8c-2.1,0-3.9,1.6-3.9,4.6c0,2.7,1.5,4.6,3.9,4.6
			C1670.6,3925,1672.1,3923,1672.1,3920.5z"/>
		<path class="st2" d="M1712.1,3928h-6.2l-4-19.5l-4.2,19.5h-6.3l-5.9-23.5h5.1l3.9,19.9l4.1-19.5h6.6l4,19.6l4.2-19.9h4.8
			L1712.1,3928z"/>
		<path class="st2" d="M1735.6,3920.2h-12.9c0.3,3.8,2,5,4.2,5c2,0,3.5-1.1,3.8-3.1h4.7c-0.9,4.2-4.3,6.4-8.6,6.4
			c-5,0-8.8-3.1-8.8-9.5c0-5.5,3.6-9.6,9.2-9.6c5.5,0,8.5,4.2,8.5,9.1C1735.7,3919,1735.7,3919.6,1735.6,3920.2z M1722.9,3917.1h8
			c-0.3-2.9-1.6-4.4-3.8-4.4C1724.8,3912.7,1723.3,3914.1,1722.9,3917.1z"/>
		<path class="st2" d="M1754.9,3920.2h-12.8c0.3,3.8,2,5,4.2,5c2,0,3.5-1.1,3.8-3.1h4.7c-0.9,4.2-4.3,6.4-8.6,6.4
			c-5,0-8.8-3.1-8.8-9.5c0-5.5,3.6-9.6,9.2-9.6s8.5,4.2,8.5,9.1C1755,3919,1755,3919.6,1754.9,3920.2z M1742.2,3917.1h8
			c-0.3-2.9-1.6-4.4-3.8-4.4C1744.1,3912.7,1742.6,3914.1,1742.2,3917.1z"/>
		<path class="st2" d="M1762.6,3922.5v5.5h-4.7v-25h4.7v15.2l7.3-8.3h5.6l-8,8.4l8.1,9.7h-5.9l-5.6-7.1L1762.6,3922.5z"/>
		<path class="st2" d="M1791,3915.1h-4.7c-0.3-1.7-1.2-2.6-2.8-2.6c-1.4,0-2.1,0.8-2.1,1.9c0,1.4,1.1,2.1,4.1,2.8
			c3.7,1,5.9,2.4,5.9,5.8c0,3.6-3.3,5.4-7.4,5.4c-4.4,0-7.5-1.9-8-6h4.7c0.4,2,1.7,2.9,3.4,2.9c1.5,0,2.7-0.6,2.7-2
			c0-1.4-1.2-2.2-4.3-3c-3.4-0.9-5.7-2.3-5.7-5.4c0-3.5,2.9-5.6,7.2-5.6S1790.6,3911.9,1791,3915.1z"/>
		<path class="st2" d="M1798.8,3912.3c0,1.7-1.2,2.8-2.9,2.8c-1.7,0-2.8-1.2-2.8-2.8c0-1.7,1.2-2.9,2.8-2.9
			C1797.6,3909.4,1798.8,3910.6,1798.8,3912.3z M1798.8,3925.6c0,1.7-1.2,2.9-2.9,2.9c-1.7,0-2.8-1.2-2.8-2.9s1.2-2.9,2.8-2.9
			C1797.6,3922.8,1798.8,3924,1798.8,3925.6z"/>
	</g>
	<g id="Artwork_18" transform="translate(1426 3860)">
		<g id="Group_979">
			
				<linearGradient id="Ellipse_136_00000002344221588671900740000008045512394379072640_" gradientUnits="userSpaceOnUse" x1="-97.1909" y1="448.4091" x2="-96.1909" y2="448.4091" gradientTransform="matrix(110 0 0 -110 10691 49380)">
				<stop  offset="0" style="stop-color:#11E900"/>
				<stop  offset="0.268" style="stop-color:#0CD30C"/>
				<stop  offset="0.993" style="stop-color:#009C2C"/>
			</linearGradient>
			
				<circle id="Ellipse_136" style="fill:url(#Ellipse_136_00000002344221588671900740000008045512394379072640_);" cx="55" cy="55" r="55"/>
		</g>
		<path id="Path_880" class="st4" d="M55,31h25.4c1.4,0,2.6,1.1,2.6,2.5c0,0,0,0,0,0c0,25,0,42.9-27.1,53.3c-0.6,0.2-1.3,0.2-1.9,0
			c-13.5-5.2-20.3-12.5-23.7-21.6C27,56.2,27,45.8,27,33.5c0-1.4,1.1-2.6,2.5-2.6c0,0,0,0,0,0L55,31z M55,36.1V59H33.7
			c-1.5-6.6-1.7-14.3-1.7-22.9H55z M55,81.7V59h21.1C73.8,68.8,68.2,76.4,55,81.7z"/>
	</g>
</g>
</svg>
