<?xml version="1.0" encoding="utf-8"?>
<!-- Generator: Adobe Illustrator 27.3.1, SVG Export Plug-In . SVG Version: 6.00 Build 0)  -->
<svg version="1.1" id="Layer_1" xmlns="http://www.w3.org/2000/svg" xmlns:xlink="http://www.w3.org/1999/xlink" x="0px" y="0px"
	 viewBox="0 0 433 110" style="enable-background:new 0 0 433 110;" xml:space="preserve">
<style type="text/css">
	.st0{fill:#FFA41C;}
	.st1{enable-background:new    ;}
	.st2{fill:#F5F5F5;}
	.st3{fill:url(#Ellipse_135_00000031911799345503775020000004610816912148366732_);}
	.st4{fill:#FFFFFF;}
</style>
<g id="Group_1123" transform="translate(-922 -3911)">
	<g transform="matrix(1, 0, 0, 1, 922, 3911)">
		<path id="Rectangle_402-2" class="st0" d="M39,25h355c16.6,0,30,13.4,30,30l0,0c0,16.6-13.4,30-30,30H39C22.4,85,9,71.6,9,55l0,0
			C9,38.4,22.4,25,39,25z"/>
	</g>
	<g class="st1">
		<path class="st2" d="M1074,3979v-23.5h4.7v23.5H1074z"/>
		<path class="st2" d="M1099.7,3968.8v10.2h-4.7v-9.6c0-0.7,0-1.6-0.1-2.5c-0.1-1.9-1.2-3.2-3.5-3.2c-2.3,0-4.1,2-4.1,7v8.3h-4.7
			v-18.1h4.7v2.9l1.4-2.1c1.3-0.9,2.6-1.3,4.4-1.3c3.8,0,6.1,1.9,6.4,5.1C1099.7,3966.4,1099.7,3967.3,1099.7,3968.8z"/>
		<path class="st2" d="M1127.2,3972.4c0,5.1-4.2,7.1-9,7.1c-5.2,0-8.9-2-8.9-7.1c0-3,2.1-5,4.6-5.8c-2-0.7-3.5-2.3-3.5-5
			c0-3.9,3-6.5,8.2-6.5c5.1,0,8.1,2.6,8.1,6.5c0,2.7-1.8,4.3-3.9,5C1125.2,3967.4,1127.2,3969.4,1127.2,3972.4z M1122.3,3972.3
			c0-2.2-1.3-3.8-4.1-3.8c-2.6,0-4,1.6-4,3.8c0,2.3,1.5,3.7,4.1,3.7C1121,3976,1122.3,3974.5,1122.3,3972.3z M1115.2,3961.8
			c0,2,1.2,3.3,3.2,3.3c2.1,0,3.4-1.3,3.4-3.3c0-1.9-1.2-3.2-3.4-3.2C1116.4,3958.6,1115.2,3959.9,1115.2,3961.8z"/>
		<path class="st2" d="M1129.6,3970.7v-2.7h7.9v2.7H1129.6z"/>
		<path class="st2" d="M1154,3979h-4.7v-18.5l-6.8,3.8v-4.4l5.4-3.2c1.3-0.7,2.5-1.1,3.8-1.1h2.3V3979z"/>
		<path class="st2" d="M1178.7,3970.9c0,5.4-4.1,8.6-8.9,8.6c-5.9,0-9-3.5-9-11.5c0-8.7,4.1-13,9.7-13c4.7,0,7.5,2.5,8,6.6l0,0.3
			h-4.8l-0.1-0.3c-0.5-2.1-1.6-3.1-3.5-3.1c-2.7,0-4.4,2.4-4.6,8.2l1.2-2.1c1.3-1,2.5-1.4,4.2-1.4
			C1176.2,3963.2,1178.7,3966.6,1178.7,3970.9z M1173.8,3971.5c0-2.8-1.3-4.8-4-4.8c-2.1,0-3.9,1.6-3.9,4.6c0,2.7,1.5,4.6,3.9,4.6
			C1172.2,3976,1173.8,3974,1173.8,3971.5z"/>
		<path class="st2" d="M1213.8,3979h-6.2l-4-19.5l-4.2,19.5h-6.3l-5.9-23.5h5.1l3.9,19.9l4.1-19.5h6.6l4,19.6l4.2-19.9h4.8
			L1213.8,3979z"/>
		<path class="st2" d="M1237.3,3971.2h-12.9c0.3,3.8,2,5,4.2,5c2,0,3.5-1.1,3.8-3.1h4.7c-0.9,4.2-4.3,6.4-8.6,6.4
			c-5,0-8.8-3.1-8.8-9.5c0-5.5,3.6-9.6,9.2-9.6c5.5,0,8.5,4.2,8.5,9.1C1237.4,3970,1237.4,3970.6,1237.3,3971.2z M1224.6,3968.1h8
			c-0.3-2.9-1.6-4.4-3.8-4.4C1226.5,3963.7,1225,3965.1,1224.6,3968.1z"/>
		<path class="st2" d="M1256.6,3971.2h-12.8c0.3,3.8,2,5,4.2,5c2,0,3.5-1.1,3.8-3.1h4.7c-0.9,4.2-4.3,6.4-8.6,6.4
			c-5,0-8.8-3.1-8.8-9.5c0-5.5,3.6-9.6,9.2-9.6s8.5,4.2,8.5,9.1C1256.7,3970,1256.7,3970.6,1256.6,3971.2z M1243.9,3968.1h8
			c-0.3-2.9-1.6-4.4-3.8-4.4C1245.8,3963.7,1244.3,3965.1,1243.9,3968.1z"/>
		<path class="st2" d="M1264.3,3973.5v5.5h-4.7v-25h4.7v15.2l7.3-8.3h5.6l-8,8.4l8.1,9.7h-5.9l-5.6-7.1L1264.3,3973.5z"/>
		<path class="st2" d="M1292.7,3966.1h-4.7c-0.3-1.7-1.2-2.6-2.8-2.6c-1.4,0-2.1,0.8-2.1,1.9c0,1.4,1.1,2.1,4.1,2.8
			c3.7,1,5.9,2.4,5.9,5.8c0,3.6-3.3,5.4-7.4,5.4c-4.4,0-7.5-1.9-8-6h4.7c0.4,2,1.7,2.9,3.4,2.9c1.5,0,2.7-0.6,2.7-2
			c0-1.4-1.2-2.2-4.3-3c-3.4-0.9-5.7-2.3-5.7-5.4c0-3.5,2.9-5.6,7.2-5.6C1289.8,3960.4,1292.3,3962.9,1292.7,3966.1z"/>
		<path class="st2" d="M1300.5,3963.3c0,1.7-1.2,2.8-2.9,2.8c-1.7,0-2.8-1.2-2.8-2.8c0-1.7,1.2-2.9,2.8-2.9
			C1299.3,3960.4,1300.5,3961.6,1300.5,3963.3z M1300.5,3976.6c0,1.7-1.2,2.9-2.9,2.9c-1.7,0-2.8-1.2-2.8-2.9s1.2-2.9,2.8-2.9
			C1299.3,3973.8,1300.5,3975,1300.5,3976.6z"/>
	</g>
	<g id="Artwork_17" transform="translate(931 3911)">
		<g id="Group_976" transform="translate(0 0)">
			
				<linearGradient id="Ellipse_135_00000019679839591253096100000011849403709133729727_" gradientUnits="userSpaceOnUse" x1="-97.1909" y1="448.4091" x2="-96.1909" y2="448.4091" gradientTransform="matrix(110 0 0 -110 10691 49380)">
				<stop  offset="0" style="stop-color:#EEC6B6"/>
				<stop  offset="0" style="stop-color:#F8DE61"/>
				<stop  offset="0" style="stop-color:#FFEE2A"/>
				<stop  offset="0.616" style="stop-color:#F0C00E"/>
				<stop  offset="1" style="stop-color:#E9A900"/>
			</linearGradient>
			
				<circle id="Ellipse_135" style="fill:url(#Ellipse_135_00000019679839591253096100000011849403709133729727_);" cx="55" cy="55" r="55"/>
		</g>
		<path id="Path_879" class="st4" d="M67.2,51.2L60.7,59c0.2,1.5-0.2,3.1-1.3,4.3c-1.1,1.2-2.6,1.9-4.2,2c-1.6,0.1-3.2-0.5-4.4-1.6
			c-1.1-1.1-1.8-2.6-1.7-4.1c0.1-1.6,0.9-3,2.1-3.9c1.3-1,2.9-1.4,4.5-1.2l8.2-6.2l0,0c0.6-0.5,1.4-0.6,2.2-0.4
			c0.7,0.2,1.3,0.7,1.5,1.5C67.9,49.9,67.7,50.7,67.2,51.2L67.2,51.2z M81,40.3c0.6-0.6,1-1.3,1.2-2.1c0.2-1.1-0.2-2.2-1-3
			c-0.8-0.8-2-1.2-3.1-1c-0.9,0.1-1.7,0.5-2.3,1.1l-3.1,2.9c-4.1-3-9-4.9-14.1-5.5v-2.6h2.7c0.9,0,1.8-0.3,2.6-0.9
			c0.7-0.6,1.2-1.4,1.3-2.3c0.1-1-0.2-2-0.9-2.7c-0.7-0.7-1.7-1.2-2.8-1.2h-13c-0.9,0-1.8,0.3-2.6,0.9c-0.7,0.6-1.2,1.4-1.3,2.3
			c-0.1,1,0.2,2,0.9,2.7c0.7,0.7,1.7,1.2,2.8,1.2h2.8v2.6c-4.8,0.6-9.4,2.3-13.3,5c-0.8,0.5-1.3,1.4-1.5,2.3
			c-0.1,0.9,0.1,1.9,0.7,2.6c0.6,0.8,1.5,1.3,2.4,1.4c1,0.1,2-0.1,2.8-0.6c4.3-2.9,9.4-4.3,14.6-3.9c5.1,0.4,10,2.6,13.7,6.2
			c7.4,7.2,7.9,18.9,1.1,26.7c-3.4,3.9-8.1,6.4-13.1,7.1c-5.1,0.8-10.4-0.2-14.9-2.8c-1.1-0.6-2.5-0.6-3.6-0.1
			c-1.1,0.5-1.9,1.6-2,2.9c-0.1,1.2,0.5,2.4,1.6,3.1c6,3.5,12.9,4.9,19.8,3.9c6.7-1,12.8-4.2,17.4-9.1c4.4-4.8,7-11,7.1-17.5
			c0.1-6.1-2-12.1-5.9-16.8L81,40.3z M21.8,58.1c-0.8,0-1.6,0.2-2.2,0.8c-1.1,1-1.2,2.7-0.3,3.8c0.1,0.1,0.2,0.2,0.3,0.3
			c0.6,0.5,1.4,0.8,2.2,0.8H39c0.8,0,1.6-0.2,2.2-0.8c1.1-1,1.2-2.7,0.3-3.8c-0.1-0.1-0.2-0.2-0.3-0.3c-0.6-0.5-1.4-0.8-2.2-0.8
			H21.8z M45.8,50.9c0-0.8-0.3-1.5-0.9-2c-0.6-0.5-1.3-0.8-2.1-0.8H25.6c-0.8,0-1.6,0.2-2.2,0.8c-1.1,1-1.2,2.7-0.3,3.8
			c0.1,0.1,0.2,0.2,0.3,0.3c0.6,0.5,1.4,0.8,2.2,0.8h17.2c0.8,0,1.5-0.3,2.1-0.8C45.4,52.4,45.8,51.7,45.8,50.9L45.8,50.9z
			 M35.1,73.7c0.8,0,1.6-0.2,2.2-0.8c1.1-1,1.2-2.7,0.3-3.8c-0.1-0.1-0.2-0.2-0.3-0.3c-0.6-0.5-1.4-0.8-2.2-0.8H18
			c-0.8,0-1.6,0.2-2.2,0.8c-1.1,1-1.2,2.7-0.3,3.8c0.1,0.1,0.2,0.2,0.3,0.3c0.6,0.5,1.4,0.8,2.2,0.8H35.1z"/>
	</g>
</g>
</svg>
