<?xml version="1.0" encoding="utf-8"?>
<!-- Generator: Adobe Illustrator 27.3.1, SVG Export Plug-In . SVG Version: 6.00 Build 0)  -->
<svg version="1.1" id="Layer_1" xmlns="http://www.w3.org/2000/svg" xmlns:xlink="http://www.w3.org/1999/xlink" x="0px" y="0px"
	 viewBox="0 0 433 110" style="enable-background:new 0 0 433 110;" xml:space="preserve">
<style type="text/css">
	.st0{fill:#048ECF;}
	.st1{enable-background:new    ;}
	.st2{fill:#F5F5F5;}
	.st3{fill:url(#Ellipse_132_00000008148094157413471240000006662823981859087238_);}
	.st4{fill:#FFFFFF;}
</style>
<g id="Group_1128" transform="translate(-47 -3859)">
	<g transform="matrix(1, 0, 0, 1, 47, 3859)">
		<path id="Rectangle_400-2" class="st0" d="M39,26h355c16.6,0,30,13.4,30,30l0,0c0,16.6-13.4,30-30,30H39C22.4,86,9,72.6,9,56l0,0
			C9,39.4,22.4,26,39,26z"/>
	</g>
	<g class="st1">
		<path class="st2" d="M197.3,3927v-23.5h4.7v23.5H197.3z"/>
		<path class="st2" d="M223.3,3916.8v10.2h-4.7v-9.6c0-0.7,0-1.6-0.1-2.5c-0.1-1.9-1.2-3.2-3.5-3.2c-2.3,0-4.1,2-4.1,7v8.3h-4.7
			v-18.1h4.7v2.9l1.4-2.1c1.3-0.9,2.6-1.3,4.4-1.3c3.8,0,6.1,1.9,6.4,5.1C223.3,3914.4,223.3,3915.3,223.3,3916.8z"/>
		<path class="st2" d="M251.5,3919.2c0,5.4-4.3,8.3-8.9,8.3c-5.2,0-8.2-2.2-8.7-6.9l0-0.3h4.7l0,0.3c0.3,2.1,1.5,3.4,3.8,3.4
			c2.6,0,4.1-1.8,4.1-4.6s-1.5-4.6-4-4.6c-1.8,0-3,0.8-3.8,2.7h-4.4l1.7-13.9h14.6v3.7h-10.8l-0.9,6.6l1.2-1.6
			c1.1-0.6,2.3-0.9,3.7-0.9C248.6,3911.3,251.5,3914.4,251.5,3919.2z"/>
		<path class="st2" d="M270.3,3921.5v5.5h-4.7v-5.5h-11.3v-2.5l11-15.4h5v14.2h2.9v3.7H270.3z M265.6,3908.8c-0.5,0.9-1,1.7-1.6,2.5
			l-4.6,6.4h6.2V3908.8z"/>
		<path class="st2" d="M300.5,3910.4h-4.8c-0.3-2.4-1.6-3.9-4-3.9c-1.9,0-3.3,0.9-3.3,2.8c0,2,1.3,3,5,3.8c5.2,1.2,7.5,3.6,7.5,7.3
			c0,4.4-4,6.9-8.7,6.9c-5.6,0-9.3-2.5-9.7-7.4h4.8c0.5,2.6,2.5,3.9,4.9,3.9c2.1,0,3.8-1.2,3.8-3c0-2-1.2-3.1-4.7-3.9
			c-4.8-1.2-7.8-2.8-7.8-7.1s3.9-6.9,8.4-6.9C297.4,3903.1,300,3906.3,300.5,3910.4z"/>
		<path class="st2" d="M320.1,3919.2h-12.9c0.3,3.8,2,5,4.2,5c2,0,3.5-1.1,3.8-3.1h4.7c-0.9,4.2-4.3,6.4-8.6,6.4
			c-5,0-8.8-3.1-8.8-9.5c0-5.5,3.6-9.6,9.2-9.6c5.5,0,8.5,4.2,8.5,9.1C320.2,3918,320.2,3918.6,320.1,3919.2z M307.4,3916.1h8
			c-0.3-2.9-1.6-4.4-3.8-4.4C309.4,3911.7,307.8,3913.1,307.4,3916.1z"/>
		<path class="st2" d="M339.5,3915.4h-4.6c-0.4-2.6-1.8-3.7-3.7-3.7c-2.4,0-4.1,1.9-4.1,6.1c0,4.5,1.7,6.4,4,6.4
			c1.8,0,3.2-1.2,3.7-3.4h4.7c-0.8,4.5-4.1,6.7-8.6,6.7c-4.9,0-8.6-3.1-8.6-9.4c0-6.2,4.1-9.7,9-9.7
			C336.2,3908.4,339.2,3911.4,339.5,3915.4z"/>
		<path class="st2" d="M360.1,3918c0,5.5-3.4,9.5-9.4,9.5s-9.4-4-9.4-9.5c0-5.5,3.4-9.5,9.4-9.5S360.1,3912.4,360.1,3918z
			 M355.2,3918c0-3.9-1.7-6.2-4.5-6.2s-4.5,2.3-4.5,6.2c0,3.9,1.7,6.2,4.5,6.2S355.2,3921.8,355.2,3918z"/>
		<path class="st2" d="M380.1,3916.8v10.2h-4.7v-9.6c0-0.7,0-1.6-0.1-2.5c-0.1-1.9-1.2-3.2-3.5-3.2c-2.3,0-4.1,2-4.1,7v8.3h-4.7
			v-18.1h4.7v2.9l1.4-2.1c1.3-0.9,2.6-1.3,4.4-1.3c3.8,0,6.1,1.9,6.4,5.1C380.1,3914.4,380.1,3915.3,380.1,3916.8z"/>
		<path class="st2" d="M401.8,3927h-4.7v-2.8l-1.4,2c-1,0.8-2.9,1.3-4.7,1.3c-5.1,0-8.1-3.8-8.1-9.2c0-6.6,4-9.9,8.7-9.9
			c1.5,0,3.3,0.4,4.2,1l1.2,1.9v-9.3h4.7V3927z M397.1,3918.2v-0.9c0-4.1-2.3-5.5-4.5-5.5c-2.7,0-4.7,2.1-4.7,6.3
			c0,3.7,1.8,6.2,4.6,6.2C395,3924.2,397.1,3922.6,397.1,3918.2z"/>
		<path class="st2" d="M419.8,3914.1h-4.7c-0.3-1.7-1.2-2.6-2.8-2.6c-1.4,0-2.1,0.8-2.1,1.9c0,1.4,1.1,2.1,4.1,2.8
			c3.7,1,5.9,2.4,5.9,5.8c0,3.6-3.3,5.4-7.4,5.4c-4.4,0-7.5-1.9-8-6h4.7c0.4,2,1.7,2.9,3.4,2.9c1.5,0,2.7-0.6,2.7-2
			c0-1.4-1.2-2.2-4.3-3c-3.4-0.9-5.7-2.3-5.7-5.4c0-3.5,2.9-5.6,7.2-5.6S419.4,3910.9,419.8,3914.1z"/>
		<path class="st2" d="M427.9,3911.3c0,1.7-1.2,2.8-2.9,2.8c-1.7,0-2.8-1.2-2.8-2.8c0-1.7,1.2-2.9,2.8-2.9
			C426.8,3908.4,427.9,3909.6,427.9,3911.3z M427.9,3924.6c0,1.7-1.2,2.9-2.9,2.9c-1.7,0-2.8-1.2-2.8-2.9s1.2-2.9,2.8-2.9
			C426.8,3921.8,427.9,3923,427.9,3924.6z"/>
	</g>
	<g id="Artwork_15" transform="translate(69 3859)">
		<g id="Group_978" transform="translate(-13)">
			<g id="Group_972" transform="translate(0 0)">
				
					<linearGradient id="Ellipse_132_00000044889188160191281930000017199947562487016856_" gradientUnits="userSpaceOnUse" x1="-194.3818" y1="6.6818" x2="-193.3818" y2="6.6818" gradientTransform="matrix(110 0 0 110 21382 -680)">
					<stop  offset="0" style="stop-color:#1957BB"/>
					<stop  offset="0.462" style="stop-color:#0044A6"/>
					<stop  offset="1" style="stop-color:#4800C5"/>
				</linearGradient>
				
					<circle id="Ellipse_132" style="fill:url(#Ellipse_132_00000044889188160191281930000017199947562487016856_);" cx="55" cy="55" r="55"/>
			</g>
			<path id="Path_877" class="st4" d="M22.4,58.2c-0.3-0.6-0.2-1.4,0.2-1.9l6.4-7.7l0,0c0.7-0.8,1.9-0.9,2.7-0.2
				c0.1,0.1,0.2,0.2,0.2,0.2l6.4,7.7l0,0c0.6,0.7,0.5,1.9-0.2,2.5c-0.3,0.3-0.7,0.4-1.1,0.4h-2.7c0.5,11.9,10.6,21.1,22.5,20.6
				s21.1-10.6,20.6-22.5S66.8,36.2,54.9,36.7c-6.8,0.3-13,3.8-16.9,9.4c-0.1,0.1-0.2,0.2-0.4,0.2s-0.3-0.1-0.4-0.2L33,41l0,0
				c-0.2-0.2-0.2-0.5,0-0.6c4.7-6,11.6-9.9,19.2-10.9v-2.8h-2.8c-2.1,0.2-3.9-1.3-4.1-3.3s1.3-3.9,3.3-4.1c0.2,0,0.5,0,0.7,0h13.2
				c2.1-0.1,3.8,1.5,3.9,3.6s-1.5,3.8-3.6,3.9c-0.1,0-0.2,0-0.3,0h-2.8v2.8c5.1,0.7,10,2.7,14.1,5.9l3.2-3.2
				c1.4-1.5,3.8-1.6,5.3-0.2c1.5,1.4,1.6,3.8,0.2,5.3c-0.1,0.1-0.2,0.2-0.2,0.2L79,40.7l0,0c3.9,5,6,11.2,5.9,17.6
				c0.3,16-12.4,29.3-28.4,29.7S27.2,75.5,26.8,59.5c0-0.1,0-0.2,0-0.3H24C23.3,59.2,22.7,58.8,22.4,58.2L22.4,58.2z M68,46.1
				c-0.8-0.8-2.2-0.9-3.1-0.2l-8.3,6.6c-3.2-0.4-6.1,1.8-6.6,5c-0.4,3.2,1.8,6.1,5,6.6c3.2,0.4,6.1-1.8,6.6-5c0.1-0.5,0.1-1.1,0-1.6
				l6.6-8.3C68.9,48.3,68.8,46.9,68,46.1L68,46.1z"/>
		</g>
	</g>
</g>
</svg>
