<svg xmlns="http://www.w3.org/2000/svg" xmlns:xlink="http://www.w3.org/1999/xlink" width="62" height="62" viewBox="0 0 62 62">
  <defs>
    <clipPath id="clip-path">
      <rect id="Rectangle_112" data-name="Rectangle 112" width="62" height="62" transform="translate(0 0)" fill="#fff"/>
    </clipPath>
  </defs>
  <g id="Group_256" data-name="Group 256" transform="translate(0 -0.034)">
    <g id="Group_255" data-name="Group 255" transform="translate(0 0.034)" clip-path="url(#clip-path)">
      <path id="Path_377" data-name="Path 377" d="M45.8,35.062a3.9,3.9,0,0,0-5.563,0L39.2,36.1l-3.881-3.881a19.421,19.421,0,0,0,4.27-12.291A19.632,19.632,0,0,0,19.925,0a19.925,19.925,0,0,0,0,39.85,20.2,20.2,0,0,0,12.291-4.27L36.1,39.461,35.062,40.5a3.9,3.9,0,0,0,0,5.563l2.07,2.07L47.87,37.392Zm-25.875-.518A14.685,14.685,0,1,1,34.674,19.925,14.716,14.716,0,0,1,19.925,34.544Z" transform="translate(0 -0.06)" fill="#fff"/>
      <path id="Path_378" data-name="Path 378" d="M373.162,362.424l-11.256-11.256-10.738,10.738,11.256,11.256a3.9,3.9,0,0,0,5.564,0l5.175-5.175a3.9,3.9,0,0,0,0-5.563" transform="translate(-312.225 -312.285)" fill="#fff"/>
      <path id="Path_379" data-name="Path 379" d="M94.4,167.294c-6.21-.647-11.126,2.329-12.938,7.245-1.423-4.528-5.563-7.375-11-6.728-.776,6.728,3.752,11.516,10.092,11.516v.259a2.191,2.191,0,0,0,.647-.259,22.1,22.1,0,0,0,3.364-1.811,11.5,11.5,0,0,0,2.847-2.717,12.677,12.677,0,0,0,1.035-1.423s-.259.647-.776,1.682a15.854,15.854,0,0,1-2.329,3.364,15.017,15.017,0,0,1-3.235,2.717l-.13.13c7.893.129,13.326-5.823,12.42-13.973ZM77.972,177a10.718,10.718,0,0,1-1.941-2.717c-.388-.776-.647-1.423-.647-1.423a5.053,5.053,0,0,0,.906,1.164,12.829,12.829,0,0,0,2.329,2.2,8.351,8.351,0,0,0,2.07,1.164,7.37,7.37,0,0,0-.13,1.682A11.281,11.281,0,0,1,77.972,177" transform="translate(-62.577 -148.724)" fill="#fff"/>
    </g>
  </g>
</svg>
