<svg xmlns="http://www.w3.org/2000/svg" xmlns:xlink="http://www.w3.org/1999/xlink" width="148.56" height="156.364" viewBox="0 0 148.56 156.364">
  <defs>
    <filter id="Ellipse_177" x="3.713" y="11.517" width="144.847" height="144.848" filterUnits="userSpaceOnUse">
      <feOffset dx="3.073" dy="3.073" input="SourceAlpha"/>
      <feGaussianBlur stdDeviation="1.097" result="blur"/>
      <feFlood flood-color="#d8d8d8" flood-opacity="0.749"/>
      <feComposite operator="in" in2="blur"/>
      <feComposite in="SourceGraphic"/>
    </filter>
  </defs>
  <g id="Artwork_30" data-name="Artwork 30" transform="translate(72.414 75)">
    <g id="Group_1238" data-name="Group 1238" transform="translate(-72.414 -75)">
      <g transform="matrix(1, 0, 0, 1, 0, 0)" filter="url(#Ellipse_177)">
        <ellipse id="Ellipse_177-2" data-name="Ellipse 177" cx="69.132" cy="69.132" rx="69.132" ry="69.132" transform="translate(3.93 11.74)" fill="#f2f2f2"/>
      </g>
      <g id="Group_1237" data-name="Group 1237">
        <g id="Group_1235" data-name="Group 1235">
          <path id="Path_1551" data-name="Path 1551" d="M57.8,42.713c.034-.1.069-.208.1-.313a1.116,1.116,0,0,0,.365-.944A22.856,22.856,0,0,1,70.1,36.391c10.218-1.5,19.1,1.311,26.243,8.938A28.369,28.369,0,0,1,103.692,60.9a32.71,32.71,0,0,1,.056,8.532,19.379,19.379,0,0,1-1.695,5.693,32.929,32.929,0,0,1-4.021,7.194c-.792-.446-1.335.2-1.934.482-3.558,1.646-7.185,2.984-11.2,2.819-.571-.471-1.071-.629-1.322.3H82.267c-.042-.346-.179-.6-.575-.625a.608.608,0,0,0-.738.62,30.9,30.9,0,0,1-12.919-4.141c-8.391-5.3-13.188-12.738-13.7-22.767.553-.528.414-.849-.3-1V56.039c.334-.047.639-.135.587-.568-.041-.336-.32-.374-.582-.417A30.333,30.333,0,0,1,57.8,42.713Z" transform="translate(-30.33 -20.199)" fill="#ffd55d"/>
          <path id="Path_1552" data-name="Path 1552" d="M72.117,94.013h1.314c.457-.03.963.153,1.322-.3,4.011.165,7.638-1.174,11.2-2.819.6-.277,1.142-.927,1.934-.482a29.666,29.666,0,0,1-19.629,11.414,23.31,23.31,0,0,1-9.743-.358C52.068,99.625,46.4,96.364,42.2,90.9A27.993,27.993,0,0,1,36.552,79.02a28.484,28.484,0,0,1,3.381-20.645,29.785,29.785,0,0,1,6.024-7.243c.506-.441.95-1.147,1.693-.322a30.335,30.335,0,0,0-3.763,12.339l0,.985q0,.986,0,1.971c0,.363-.066.744.3,1,.514,10.029,5.311,17.471,13.7,22.767A30.9,30.9,0,0,0,70.8,94.008Z" transform="translate(-20.18 -28.294)" fill="#ffc239"/>
          <path id="Path_1553" data-name="Path 1553" d="M163.063,166.106a.954.954,0,0,1-1.034-.283q-2.188-2.2-4.392-4.395c-.328-.327-.659-.772-.259-1.128,1.188-1.06,1.936-2.679,3.716-3.005l4.97,4.971v.839Z" transform="translate(-88.211 -88.253)" fill="#ffd662"/>
          <path id="Path_1554" data-name="Path 1554" d="M166.137,29.239q0,.46,0,.92l-4.892,4.892c-1.787-.408-2.682-1.861-3.71-3.161-.274-.347-.105-.607.137-.849q2.311-2.314,4.63-4.619a.807.807,0,0,1,.914-.1Z" transform="translate(-88.322 -14.715)" fill="#ffd662"/>
          <path id="Path_1555" data-name="Path 1555" d="M34.521,30.342c1.037.88,1.019,1.557-.07,2.547-2.609,2.372-2.545,2.442-5.044-.057l-.347-.347c-2.889-2.888-2.873-2.87.23-5.663.625-.562,1.036-.614,1.623,0,.824.866,1.719,1.665,2.584,2.493Z" transform="translate(-15.122 -14.802)" fill="#ffd662"/>
          <path id="Path_1556" data-name="Path 1556" d="M35.455,161.136c0,.431-.282.629-.507.856-1.343,1.351-2.709,2.68-4.03,4.052-.564.585-.966.634-1.618.054-3.149-2.8-3.167-2.778-.177-5.768,3.085-3.085,3.085-3.085,5.937.355C35.2,160.849,35.341,161.007,35.455,161.136Z" transform="translate(-15.111 -88.682)" fill="#ffd662"/>
          <path id="Path_1557" data-name="Path 1557" d="M95.911,3.855c0-3.939,0-3.9,3.982-3.841,1.01.015,1.331.3,1.292,1.308-.071,1.854-.047,3.714-.009,5.57.016.78-.277,1-1.042,1.048C95.91,8.21,95.911,8.231,95.911,3.855Z" transform="translate(-53.826 0)" fill="#ffd55d"/>
          <path id="Path_1558" data-name="Path 1558" d="M4.179,95.871c3.853,0,3.821,0,3.8,3.852,0,1.01-.2,1.486-1.337,1.427-1.743-.091-3.5-.065-5.242-.007C.464,101.173.071,100.96.05,99.9-.027,95.87-.07,95.871,4.179,95.871Z" transform="translate(-0.031 -53.79)" fill="#ffd55d"/>
          <path id="Path_1559" data-name="Path 1559" d="M189.595,95.871c3.945,0,3.91,0,3.851,3.971-.015.992-.273,1.346-1.295,1.3-1.854-.075-3.714-.047-5.57-.011-.767.015-1.009-.252-1.06-1.03C185.24,95.869,185.217,95.871,189.595,95.871Z" transform="translate(-104.045 -53.79)" fill="#ffd55d"/>
          <path id="Path_1560" data-name="Path 1560" d="M95.911,189.443c0-3.946,0-3.91,3.971-3.851.992.015,1.345.274,1.3,1.3-.075,1.854-.047,3.714-.01,5.57.015.768-.254,1.009-1.031,1.06C95.909,193.8,95.911,193.821,95.911,189.443Z" transform="translate(-53.826 -104.122)" fill="#ffd55d"/>
          <path id="Path_1561" data-name="Path 1561" d="M166.168,40.077l4.892-4.892c.5.3.3.608.009.9q-1.994,2-4,4C166.776,40.38,166.464,40.578,166.168,40.077Z" transform="translate(-93.246 -19.741)" fill="#fffffe"/>
          <path id="Path_1562" data-name="Path 1562" d="M171.048,162.243l-4.97-4.971a1.388,1.388,0,0,1,1.214.307q1.724,1.726,3.45,3.45A1.389,1.389,0,0,1,171.048,162.243Z" transform="translate(-93.195 -88.231)" fill="#fffffe"/>
          <path id="Path_1563" data-name="Path 1563" d="M173.58,28.951l-2.922-2.922c.155-.255.39-.445.641-.207q1.275,1.211,2.487,2.487C174.024,28.561,173.835,28.8,173.58,28.951Z" transform="translate(-95.765 -14.427)" fill="#fffffe"/>
          <path id="Path_1564" data-name="Path 1564" d="M170.564,173.533l3-3A3.58,3.58,0,0,1,170.564,173.533Z" transform="translate(-95.712 -95.68)" fill="#fffffe"/>
          <path id="Path_1565" data-name="Path 1565" d="M42.918,34.068l-1.024-1.024Q43.088,32.874,42.918,34.068Z" transform="translate(-23.519 -18.528)" fill="#fffffe"/>
          <path id="Path_1566" data-name="Path 1566" d="M63.016,48.431a1.116,1.116,0,0,1-.365.944C62.254,48.861,62.711,48.675,63.016,48.431Z" transform="translate(-35.079 -27.173)" fill="#ffc33c"/>
          <path id="Path_1567" data-name="Path 1567" d="M116.679,148.924l-1.313-.005a.608.608,0,0,1,.738-.62C116.5,148.324,116.637,148.577,116.679,148.924Z" transform="translate(-64.742 -83.204)" fill="#ffd45c"/>
          <path id="Path_1568" data-name="Path 1568" d="M122.673,148.556c-.359.456-.865.273-1.322.3C121.6,147.927,122.1,148.085,122.673,148.556Z" transform="translate(-68.1 -83.139)" fill="#ffd45c"/>
          <path id="Path_1569" data-name="Path 1569" d="M54.033,80.394l0-.985c.263.044.542.081.583.417C54.672,80.259,54.367,80.347,54.033,80.394Z" transform="translate(-30.33 -44.554)" fill="#ffd45c"/>
          <path id="Path_1570" data-name="Path 1570" d="M54.326,87.138c-.367-.251-.3-.633-.3-1C54.74,86.289,54.879,86.61,54.326,87.138Z" transform="translate(-30.323 -48.332)" fill="#ffd45c"/>
        </g>
        <g id="Group_1236" data-name="Group 1236" transform="translate(76.54 75.693)">
          <path id="Path_1571" data-name="Path 1571" d="M324.017,200.909c.266-.049.373.108.431.33Z" transform="translate(-258.35 -188.412)" fill="#fff"/>
          <path id="Path_1572" data-name="Path 1572" d="M198.407,180.237l.419-.4c.4-.027.717-.149.786-.6,2.935-2.961,9.562-6.456,12.988-6.788a57.667,57.667,0,0,0-2.864,10.067,31.907,31.907,0,0,0,.6,12.818,33.466,33.466,0,0,0,11.52,18.953A37.289,37.289,0,0,0,241,222.679a34.8,34.8,0,0,0,12.369-.813c.206,1.059-1.068,1.679-.815,2.752-.965.52-1.7,1.432-2.842,1.65-.664-.64-.739-.115-.814.411a8.466,8.466,0,0,1-3.257,1.626c-.646-.64-.737-.128-.821.4a8.112,8.112,0,0,1-4.063,1.236,1.684,1.684,0,0,0-2.453.784l-1.215.023c-.71-.575-1.33-.767-1.635.384-3.23-.133-6.454.222-9.7-.337-11.716-2.018-20.23-8.375-25.882-18.722-2.163-3.959-3.086-8.309-3.892-12.69.206-.106.561-.181.591-.324.091-.431-.306-.431-.6-.49-.193-5.082.063-10.093,1.894-14.936C198.263,182.595,199.369,181.536,198.407,180.237Z" transform="translate(-186.481 -172.449)" fill="#76a6f7"/>
          <path id="Path_1573" data-name="Path 1573" d="M186.336,190.191c.963,1.3-.144,2.358-.535,3.394-1.831,4.843-2.086,9.854-1.894,14.936q0,.407.009.814c.807,4.381,1.73,8.731,3.892,12.69,5.652,10.347,14.166,16.7,25.882,18.722,3.243.558,6.466.2,9.7.337.566-.039,1.195.19,1.635-.385l1.215-.023a3.947,3.947,0,0,0,2.453-.784,8.112,8.112,0,0,0,4.063-1.236.866.866,0,0,0,.821-.4,8.462,8.462,0,0,0,3.257-1.626.89.89,0,0,0,.814-.411c1.14-.218,1.877-1.13,2.842-1.65l.471.5a36.758,36.758,0,0,1-16.337,14.419,35.454,35.454,0,0,1-17.859,2.963,34.94,34.94,0,0,1-19.857-8.558,35.668,35.668,0,0,1-8.894-11.3,33.536,33.536,0,0,1-3.45-18.362C175.429,204.728,179.074,196.571,186.336,190.191Z" transform="translate(-174.41 -182.403)" fill="#5490f5"/>
          <path id="Path_1574" data-name="Path 1574" d="M325.376,288.172l-.47-.5c-.254-1.073,1.021-1.693.815-2.752a1.92,1.92,0,0,1,1.4.1A8.891,8.891,0,0,1,325.376,288.172Z" transform="translate(-258.829 -235.508)" fill="#75a5f7"/>
          <path id="Path_1575" data-name="Path 1575" d="M203.321,187.913c-.069.453-.391.575-.786.6Z" transform="translate(-190.19 -181.125)" fill="#5993f5"/>
          <path id="Path_1576" data-name="Path 1576" d="M294.938,303.127a3.947,3.947,0,0,1-2.453.784A1.684,1.684,0,0,1,294.938,303.127Z" transform="translate(-240.658 -245.638)" fill="#75a5f7"/>
          <path id="Path_1577" data-name="Path 1577" d="M287.628,304.678c-.44.575-1.069.345-1.635.384C286.3,303.911,286.917,304.1,287.628,304.678Z" transform="translate(-237.016 -246.382)" fill="#75a5f7"/>
          <path id="Path_1578" data-name="Path 1578" d="M196.056,232.765q0-.407-.009-.814c.294.059.691.058.6.49C196.617,232.584,196.262,232.659,196.056,232.765Z" transform="translate(-186.55 -205.834)" fill="#75a5f7"/>
          <path id="Path_1579" data-name="Path 1579" d="M317.433,294.687a.89.89,0,0,1-.814.411C316.694,294.572,316.769,294.047,317.433,294.687Z" transform="translate(-254.199 -240.867)" fill="#75a5f7"/>
          <path id="Path_1580" data-name="Path 1580" d="M308.15,299.323a.866.866,0,0,1-.821.4C307.413,299.195,307.5,298.683,308.15,299.323Z" transform="translate(-248.987 -243.467)" fill="#75a5f7"/>
        </g>
      </g>
      <path id="Path_1581" data-name="Path 1581" d="M65.742,233.389a35.314,35.314,0,0,0,42.135,26.863" transform="translate(-36.9 -130.947)" fill="none" stroke="#fbb03b" stroke-linecap="round" stroke-width="1.756"/>
      <path id="Path_1582" data-name="Path 1582" d="M251,125.752a31.414,31.414,0,0,0-23.257-37.883" transform="translate(-127.794 -49.301)" fill="none" stroke="#5490f5" stroke-width="1.317"/>
    </g>
  </g>
</svg>
