<svg id="Group_258" data-name="Group 258" xmlns="http://www.w3.org/2000/svg" xmlns:xlink="http://www.w3.org/1999/xlink" width="67.731" height="64.98" viewBox="0 0 67.731 64.98">
  <defs>
    <clipPath id="clip-path">
      <rect id="Rectangle_113" data-name="Rectangle 113" width="67.731" height="64.98" fill="#fff"/>
    </clipPath>
  </defs>
  <g id="Group_257" data-name="Group 257" clip-path="url(#clip-path)">
    <path id="Path_380" data-name="Path 380" d="M301.441,4.233h-8.466a2.116,2.116,0,1,1,0-4.233h8.466a2.116,2.116,0,1,1,0,4.233" transform="translate(-255.684)" fill="#fff"/>
    <path id="Path_381" data-name="Path 381" d="M327.975,10.582a2.116,2.116,0,0,1-2.116-2.116V2.117a2.116,2.116,0,1,1,4.233,0V8.466a2.116,2.116,0,0,1-2.116,2.116" transform="translate(-286.451 0)" fill="#fff"/>
    <path id="Path_382" data-name="Path 382" d="M147.113,96.67a2.107,2.107,0,0,1-1.5-.62l-2.993-2.993a2.116,2.116,0,0,1,2.993-2.993l2.993,2.993a2.116,2.116,0,0,1-1.5,3.612Z" transform="translate(-124.854 -78.651)" fill="#fff"/>
    <path id="Path_383" data-name="Path 383" d="M487.279,96.317a2.116,2.116,0,0,1-1.5-3.612l2.994-2.993a2.116,2.116,0,1,1,2.993,2.993L488.775,95.7a2.107,2.107,0,0,1-1.5.62Z" transform="translate(-426.489 -78.298)" fill="#fff"/>
    <path id="Path_384" data-name="Path 384" d="M13.795,243.71.008,248.064v17.391h0a12.016,12.016,0,0,0,1.209,5.684c3.023,6,10.642,7.716,12.577,8.079,1.935-.363,9.53-2.08,12.553-8.1a11.752,11.752,0,0,0,1.209-5.588V248.065Zm10.134,13.448L14.5,266.567a2.366,2.366,0,0,1-3.41,0l-5.007-4.982a2.41,2.41,0,0,1,0-3.41,2.437,2.437,0,0,1,3.434,0L12.8,261.44l7.691-7.692a2.439,2.439,0,0,1,3.435,0,2.409,2.409,0,0,1,0,3.411Z" transform="translate(-0.001 -214.237)" fill="#fff"/>
    <path id="Path_385" data-name="Path 385" d="M238.71,155.848a2.4,2.4,0,0,1,2.225-2.37,16.924,16.924,0,0,0-3.217-7.789,2.4,2.4,0,0,1-1.548.6,2.476,2.476,0,0,1-1.717-.7,2.419,2.419,0,0,1-.1-3.266,16.916,16.916,0,0,0-7.788-3.217,2.376,2.376,0,0,1-4.741.024,16.788,16.788,0,0,0-7.764,3.217,2.438,2.438,0,0,1-.121,3.241,2.375,2.375,0,0,1-3.241.12,17.3,17.3,0,0,0-2.443,4.572l5.515,1.741a2.418,2.418,0,0,1,1.693,2.322v15.939a16.5,16.5,0,0,0,6.361,2.3,2.375,2.375,0,0,1,4.741,0,16.915,16.915,0,0,0,7.788-3.217,2.382,2.382,0,0,1,3.362-3.362,16.919,16.919,0,0,0,3.217-7.788,2.4,2.4,0,0,1-2.225-2.371Zm-9.385,2.419H224.2a2.427,2.427,0,0,1-2.419-2.419v-7.232a2.419,2.419,0,1,1,4.837,0v4.813h2.709a2.419,2.419,0,0,1,0,4.838Z" transform="translate(-183.072 -122.287)" fill="#fff"/>
    <path id="Path_386" data-name="Path 386" d="M156.944,110.869a26.877,26.877,0,0,1-10.074-2.007,16.233,16.233,0,0,0,1.254-4.752,21.512,21.512,0,0,0,8.821,1.921,21.768,21.768,0,1,0-20.589-28.8l-4.6-1.455h0a26.6,26.6,0,1,1,25.191,35.092Z" transform="translate(-115.818 -50.701)" fill="#fff"/>
  </g>
</svg>
